<svg version="1.2" xmlns="http://www.w3.org/2000/svg" viewBox="0 0 455 389" width="455" height="389">
	<title>Plantify SIMBOLO copy-svg</title>
	<style>
		.s0 { fill: #ffffff } 
	</style>
	<g>
		<g id="Camada_1">
			<g id="Camada_1-2">
				<path fill-rule="evenodd" class="s0" d="m434.8 125.2c6.3 92.4-78.2 136.8-166.6 113.5v119.6h-91.7v-248.3c0-11.3-5.6-22.2-15.4-28-31-18.5-90-10.3-114.1 38.4 32-33.8 64.2-45.8 96.8-30.3 10.2 4.8 16.2 15.6 14.8 26.8-1.3 10.1-6.3 20.8-14.6 29.7-11.3 12.1-27.4 18.4-43.9 18.4-30.7 0-59.3 2.3-85 7.8-4-80.2 28.8-120.8 85.5-135.8 14.2-3.8 29-5.3 43.7-5.3h180.2c71 4.4 105.4 37.5 110.4 93.5zm-97.7 3.4c0-26.4-21.4-47.7-47.7-47.7h-6c-8.4 0-15.2 6.8-15.2 15.2v77c0 8.4 6.8 15.2 15.2 15.2h6c26.4 0 47.7-21.4 47.7-47.7z"/>
			</g>
		</g>
	</g>
</svg>