<svg version="1.2" xmlns="http://www.w3.org/2000/svg" viewBox="0 0 840 205" width="840" height="205">
	<title>Plantify LOGO white-svg</title>
	<style>
		.s0 { fill: #ffffff } 
	</style>
	<g>
		<g id="Camada_1">
			<g>
				<path fill-rule="evenodd" class="s0" d="m181.7 54.2c2.5 37.7-32 55.8-68.1 46.3v48.9h-37.5c0 0 0-80 0-101.4 0-4.7 6.4-4-6.3-11.5-12.7-7.5-36.8-4.2-46.6 15.7 13-13.8 26.2-18.7 39.5-12.4 4.1 2 6.6 6.4 6 11-0.6 4.1-2.6 8.5-6 12.1-4.6 4.9-11.2 7.5-17.9 7.5-12.5 0-24.2 1-34.7 3.2-1.7-32.8 11.7-49.4 34.9-55.5 5.8-1.6 11.8-2.2 17.8-2.2h73.6c29 1.8 43.1 15.3 45.1 38.2zm-40.2 1.3c0-10.8-8.7-19.5-19.5-19.5h-2.4c-3.4 0-6.2 2.8-6.2 6.2v31.5c0 3.4 2.8 6.2 6.2 6.2h2.4c10.8 0 19.5-8.7 19.5-19.5z"/>
				<path class="s0" d="m232 149.6v-143.6l-33.3 13.5v130.1h33.3z"/>
				<path fill-rule="evenodd" class="s0" d="m334.8 150c-2.9 0.8-6 1.1-9 0.8-7.9-0.7-14-3.9-17.6-10.7-23 21.5-67.3 9.5-54.8-24 6.1-15.1 27.7-22.5 52.5-28 3.1-6.3 2.5-13.1-0.3-19.1-0.6-1.2 1.8 0.6-2.5-3.4-4.3-4-9-4.1-14.2 0-1.6 1.3-2.5 2.2-3.9 4.7-1.4 2.5-2.5 5.2-3.3 8.2-2.8 9.8-10 11.9-17.9 8.1-3-1.4-5.4-3.9-6.7-6.9-3.3-7.4-1.8-14.7 5.9-21.7 2.3-2.1-5.5 1.1 7.7-5 13.2-6.1 27-6.7 41.3-3.5 13 2.3 20.8 9.8 25.4 20.7 2 4.8 2.9 10 2.9 15.2v34.6c0 3.2 2.6 5.8 5.8 5.8h5.1c1.6 12.7-3.8 20.9-16.4 24.2zm-28.8-45.5c-14.5 0.7-26.1 12.7-18.5 22.7 0.5 0.7 1.3 1.2 2.1 1.4 14.4 3.8 22-12.4 16.4-24.1z"/>
				<path class="s0" d="m370.6 54.7v94.9h33.3v-64.4c0-7.6 6.2-13.7 13.7-13.7 7.6 0 13.7 6.2 13.7 13.7v64.4h33.6v-74.8c0-16.4-14.4-29.3-30.7-27.1-16.3 2.2-21.7 6-30.7 13.8v-15.1z"/>
				<path class="s0" d="m489.1 72.9v52c0 14.3 11.6 25.9 25.9 25.9h5.7c16.6 0 30.1-13.5 30.1-30.1v-3.6c0 0-6.8 6.8-18 6.8-11.2 0-9.8-7.9-10.1-17.5v-33.4h23.8v-20.5h-23v-27.6h-11.5c-6.9 15.9-19.7 25.8-34.9 30.9v17.2h12.2z"/>
				<path class="s0" d="m603.7 47.9v101.6h-34.5v-94l34.5-7.6z"/>
				<path class="s0" d="m671.6 72.9v76.6h-33.9v-76.6h-13.1v-18.7h14v-9.2c0-21.8 17.7-39.5 39.5-39.5h2.9c10.2 0 18.5 8.3 18.5 18.5v1.4c0 7.4-6 13.5-13.5 13.5-3.8 0-7.2-2.3-8.8-5.7-2.3-4.9-5.3-7.4-9-7.3-2.1 0-4.1 1.3-5 3.2-3.8 8.1-3 16.2 2.4 20.9 5.4 4.7 5.8 3.2 9.1 3.2h19.8v19.6h-22.9z"/>
				<path class="s0" d="m752 167.4c-2.7 6.4-9.1 6.2-14.9-2.4-0.3-0.4-0.5-0.8-0.8-1.1-5.9-6.1-14.6-3.8-19.9 4.7q-1.3 2.1-1.8 4.5c-3.2 16 6.8 26.9 24 25 3.3-0.3 6.5-1.4 9.3-3.1 11.5-7 23.9-24.8 31.3-43.6l39-98.3h-28.1c0 0-15.6 38.6-21.5 55.9-8.5-17-24.1-55.9-24.1-55.9h-37.4c0 0 33.8 73.5 44.7 103.5 1.5 3.4 1.8 7.3 0.3 10.7z"/>
				<path class="s0" d="m586.4 40c-9.5 0-17.2-7.7-17.2-17.2 0-9.5 7.7-17.2 17.2-17.2 9.5 0 17.2 7.7 17.2 17.2 0 9.5-7.7 17.2-17.2 17.2z"/>
			</g>
		</g>
	</g>
</svg>