<?xml version="1.0" encoding="UTF-8"?>
<svg xmlns="http://www.w3.org/2000/svg" version="1.1" viewBox="0 0 1080 1080">
  <defs>
    <style>
      .cls-1 {
        fill: #008b47;
      }
    </style>
  </defs>
  <!-- Generator: Adobe Illustrator 28.6.0, SVG Export Plug-In . SVG Version: 1.2.0 Build 709)  -->
  <g>
    <g id="Camada_1">
      <g>
        <path class="cls-1" d="M307.5,492.1c-2-22.9-16.1-36.4-45.1-38.2h-73.6c-6,0-12,.6-17.8,2.2-23.2,6.1-36.6,22.7-34.9,55.5,10.5-2.2,22.2-3.2,34.7-3.2,6.7,0,13.3-2.6,17.9-7.5,3.4-3.6,5.4-8,6-12.1.6-4.6-1.9-9-6-11-13.3-6.3-26.5-1.4-39.5,12.4,9.8-19.9,33.9-23.2,46.6-15.7s6.3,6.8,6.3,11.5c0,21.4,0,101.4,0,101.4h37.5v-48.9c36.1,9.5,70.6-8.6,68.1-46.3ZM267.5,498.4c0,10.8-8.7,19.5-19.5,19.5h-2.4c-3.4,0-6.2-2.8-6.2-6.2v-31.5c0-3.4,2.8-6.2,6.2-6.2h2.4c10.8,0,19.5,8.7,19.5,19.5v4.9Z"/>
        <polygon class="cls-1" points="358 587.6 358 444 324.7 457.5 324.7 587.6 358 587.6"/>
        <path class="cls-1" d="M477.2,563.8h-5.1c-3.2,0-5.8-2.6-5.8-5.8v-34.6c0-5.2-.9-10.4-2.9-15.2-4.6-10.9-12.4-18.4-25.4-20.7-14.3-3.2-28.1-2.6-41.3,3.5s-5.4,2.9-7.7,5c-7.7,7-9.2,14.3-5.9,21.7,1.3,3,3.7,5.5,6.7,6.9,7.9,3.8,15.1,1.7,17.9-8.1.8-3,1.9-5.7,3.3-8.2s2.3-3.4,3.9-4.7c5.2-4.1,9.9-4,14.2,0s1.9,2.2,2.5,3.4c2.8,6,3.4,12.8.3,19.1-24.8,5.5-46.4,12.9-52.5,28-12.5,33.5,31.8,45.5,54.8,24,3.6,6.8,9.7,10,17.6,10.7,3,.3,6.1,0,9-.8,12.6-3.3,18-11.5,16.4-24.2ZM415.6,566.6c-.8-.2-1.6-.7-2.1-1.4-7.6-10,4-22,18.5-22.7,5.6,11.7-2,27.9-16.4,24.1Z"/>
        <path class="cls-1" d="M496.6,492.7v94.9h33.3v-64.4c0-7.6,6.2-13.7,13.7-13.7h0c7.6,0,13.7,6.2,13.7,13.7v64.4s33.6,0,33.6,0v-74.8c0-16.4-14.4-29.3-30.7-27.1s-21.7,6-30.7,13.8v-15.1s-32.9,8.3-32.9,8.3Z"/>
        <path class="cls-1" d="M615.1,510.9v52c0,14.3,11.6,25.9,25.9,25.9h5.7c16.6,0,30.1-13.5,30.1-30.1v-3.6s-6.8,6.8-18,6.8-9.8-7.9-10.1-17.5v-33.4s23.8,0,23.8,0v-20.5h-23v-27.6h-11.5s0,0,0,0c-6.9,15.9-19.7,25.8-34.9,30.9v17.2h12.2Z"/>
        <polygon class="cls-1" points="729.7 485.9 729.7 587.5 695.2 587.5 695.2 493.5 729.7 485.9"/>
        <path class="cls-1" d="M797.6,510.9v76.6h-33.9v-76.6h-13.1v-18.7h14v-9.2c0-21.8,17.7-39.5,39.5-39.5h2.9c10.2,0,18.5,8.3,18.5,18.5v1.4c0,7.4-6,13.5-13.5,13.5h0c-3.8,0-7.2-2.3-8.8-5.7-2.3-4.9-5.3-7.4-9-7.3-2.1,0-4.1,1.3-5,3.2-3.8,8.1-3,16.2,2.4,20.9s5.8,3.2,9.1,3.2h19.8s0,19.6,0,19.6h-22.9Z"/>
        <path class="cls-1" d="M878,605.4c-2.7,6.4-9.1,6.2-14.9-2.4-.3-.4-.5-.8-.8-1.1-5.9-6.1-14.6-3.8-19.9,4.7-.9,1.4-1.5,2.9-1.8,4.5-3.2,16,6.8,26.9,24,25,3.3-.3,6.5-1.4,9.3-3.1,11.5-7,23.9-24.8,31.3-43.6l39-98.3h-28.1s-15.6,38.6-21.5,55.9c-8.5-17-24.1-55.9-24.1-55.9h-37.4s33.8,73.5,44.7,103.5c1.5,3.4,1.8,7.3.3,10.7Z"/>
        <circle class="cls-1" cx="712.4" cy="460.8" r="17.2"/>
      </g>
    </g>
  </g>
</svg>