<?xml version="1.0" encoding="UTF-8"?>
<svg xmlns="http://www.w3.org/2000/svg" version="1.1" viewBox="0 0 1080 1080">
  <defs>
    <style>
      .cls-1 {
        fill: #008b47;
      }
    </style>
  </defs>
  <!-- Generator: Adobe Illustrator 28.6.0, SVG Export Plug-In . SVG Version: 1.2.0 Build 709)  -->
  <g>
    <g id="Camada_1">
      <g id="Camada_1-2" data-name="Camada_1">
        <path class="cls-1" d="M749.9,470.2c-5-56-39.4-89.1-110.4-93.5h-180.2c-14.7,0-29.5,1.5-43.7,5.3-56.7,15-89.5,55.6-85.5,135.8,25.7-5.5,54.3-7.8,85-7.8,16.5,0,32.6-6.3,43.9-18.4,8.3-8.9,13.3-19.6,14.6-29.7,1.4-11.2-4.6-22-14.8-26.8-32.6-15.5-64.8-3.5-96.8,30.3,24.1-48.7,83.1-56.9,114.1-38.4,9.8,5.8,15.4,16.7,15.4,28v248.3h91.7v-119.6c88.4,23.3,172.9-21.1,166.6-113.5h0ZM652.1,485.6c0,26.3-21.3,47.7-47.7,47.7h-6c-8.4,0-15.2-6.8-15.2-15.2v-77c0-8.4,6.8-15.2,15.2-15.2h6c26.3,0,47.7,21.3,47.7,47.7v12.1h0Z"/>
      </g>
    </g>
  </g>
</svg>