<svg width="280" height="100" viewBox="0 0 280 100" fill="none" xmlns="http://www.w3.org/2000/svg">
<path d="M73.6201 55.1172V98.9999H204.9V55.1065L139.26 11.3844L73.6201 55.1172Z" stroke="#ECEDDA" stroke-width="2" stroke-miterlimit="10"/>
<path d="M209.85 58.1253C209.57 58.1253 209.29 58.0316 209.01 57.8442L139.26 11.3845L70.9901 56.8696C69.6901 57.7317 68.2601 56.4573 67.8001 54.0209C67.3401 51.5846 68.0201 48.9046 69.3201 48.0425L139.26 1.43286L210.68 49.017C211.98 49.8791 212.66 52.5591 212.2 54.9955C211.84 56.9071 210.87 58.1065 209.84 58.1065L209.85 58.1253Z" stroke="#ECEDDA" stroke-width="2" stroke-miterlimit="10"/>
<path d="M150.55 32.8995H127.97V54.9768H150.55V32.8995Z" stroke="#ECEDDA" stroke-width="2" stroke-miterlimit="10" stroke-linecap="round"/>
<path d="M139.26 32.8995V54.9768" stroke="#ECEDDA" stroke-width="2" stroke-miterlimit="10" stroke-linecap="round"/>
<path d="M150.55 43.9381H127.97" stroke="#ECEDDA" stroke-width="2" stroke-miterlimit="10" stroke-linecap="round"/>
<path d="M106 99V66.8586H174V99" stroke="#ECEDDA" stroke-width="2" stroke-miterlimit="10"/>
<path d="M229.799 81.5C229.799 80.9477 230.247 80.5 230.799 80.5C231.352 80.5 231.799 80.9477 231.799 81.5V99.5H229.799V81.5Z" stroke="#ECEDDA"/>
<path d="M257.799 81.5C257.799 80.9477 258.247 80.5 258.799 80.5C259.352 80.5 259.799 80.9477 259.799 81.5V99.5H257.799V81.5Z" stroke="#ECEDDA"/>
<path d="M232.799 86.9644V84.9644H256.799V86.9644L232.799 86.9644ZM279.5 84.9644V86.9644L260.799 86.9644V84.9644H279.5ZM206.379 84.9644L228.799 84.9644V86.9644L206.379 86.9644V84.9644Z" stroke="#ECEDDA"/>
<path d="M232.799 94.5391V92.5391H256.799V94.5391L232.799 94.5391ZM279.5 92.5391V94.5391L260.799 94.5391V92.5391H279.5ZM206.379 92.5391L228.799 92.5391V94.5391L206.379 94.5391V92.5391Z" stroke="#ECEDDA"/>
<path d="M23.9199 81.5C23.9199 80.9477 24.3676 80.5 24.9199 80.5C25.4722 80.5 25.9199 80.9477 25.9199 81.5V99.5H23.9199V81.5Z" stroke="#ECEDDA"/>
<path d="M51.9199 81.5C51.9199 80.9477 52.3676 80.5 52.9199 80.5C53.4722 80.5 53.9199 80.9477 53.9199 81.5V99.5H51.9199V81.5Z" stroke="#ECEDDA"/>
<path d="M26.9199 86.9644V84.9644H50.9199V86.9644L26.9199 86.9644ZM73.6206 84.9644V86.9644L54.9199 86.9644V84.9644H73.6206ZM0.5 84.9644L22.9199 84.9644V86.9644L0.5 86.9644V84.9644Z" stroke="#ECEDDA"/>
<path d="M26.9199 94.5391V92.5391H50.9199V94.5391L26.9199 94.5391ZM73.6206 92.5391V94.5391L54.9199 94.5391V92.5391H73.6206ZM0.5 92.5391L22.9199 92.5391V94.5391L0.5 94.5391V92.5391Z" stroke="#ECEDDA"/>
<path d="M142.01 90.6145V88.6145H169.581V90.6145L142.01 90.6145ZM142.01 95.8498V93.8498L169.581 93.8498V95.8498H142.01ZM138.01 95.8498H110.44V93.8498L138.01 93.8498V95.8498ZM138.01 90.6145L110.44 90.6145V88.6145L138.01 88.6145V90.6145Z" stroke="#ECEDDA"/>
<path d="M139.01 85.9644C139.01 85.4121 139.458 84.9644 140.01 84.9644C140.563 84.9644 141.01 85.4121 141.01 85.9644V99.4999H139.01V85.9644Z" stroke="#ECEDDA"/>
<path d="M107.44 85.9644C107.44 85.4121 107.888 84.9644 108.44 84.9644C108.992 84.9644 109.44 85.4121 109.44 85.9644V99.4999H107.44V85.9644Z" stroke="#ECEDDA"/>
<path d="M170.581 85.9644C170.581 85.4121 171.028 84.9644 171.581 84.9644C172.133 84.9644 172.581 85.4121 172.581 85.9644V99.4999H170.581V85.9644Z" stroke="#ECEDDA"/>
</svg>
