<svg width="69" height="64" viewBox="0 0 69 64" fill="none" xmlns="http://www.w3.org/2000/svg">
<path fill-rule="evenodd" clip-rule="evenodd" d="M0.779541 0.136963H4.98225V59.6452H68.0229V63.6124H0.779541V0.136963ZM42.8066 45.7599C42.8066 46.286 43.028 46.7905 43.4221 47.1625C43.8162 47.5345 44.3507 47.7435 44.908 47.7435H61.7188C62.2762 47.7435 62.8106 47.5345 63.2047 47.1625C63.5988 46.7905 63.8202 46.286 63.8202 45.7599V29.8911C63.8202 29.365 63.5988 28.8604 63.2047 28.4884C62.8106 28.1164 62.2762 27.9075 61.7188 27.9075C61.1615 27.9075 60.627 28.1164 60.233 28.4884C59.8389 28.8604 59.6175 29.365 59.6175 29.8911V40.2058L44.4331 22.6826C44.2472 22.4685 44.0159 22.2934 43.754 22.1687C43.4921 22.044 43.2055 21.9724 42.9126 21.9586C42.6196 21.9448 42.3268 21.989 42.0531 22.0884C41.7793 22.1878 41.5307 22.3403 41.3231 22.5359L30.4507 32.799L15.0856 12.8558C14.7494 12.4524 14.2607 12.1876 13.7221 12.1172C13.1835 12.0468 12.637 12.1762 12.1973 12.4782C11.7577 12.7802 11.4592 13.2313 11.3645 13.7368C11.2699 14.2422 11.3865 14.7626 11.6898 15.1886L28.5006 37.0082C28.6791 37.2403 28.9087 37.433 29.1736 37.5732C29.4385 37.7134 29.7325 37.7977 30.0353 37.8204C30.3381 37.843 30.6425 37.8034 30.9275 37.7043C31.2125 37.6052 31.4714 37.4489 31.6863 37.2463L42.6511 26.8918L57.285 43.7763H44.908C44.3507 43.7763 43.8162 43.9853 43.4221 44.3573C43.028 44.7293 42.8066 45.2338 42.8066 45.7599Z" fill="#CE1B1B"/>
</svg>
