<svg width="68" height="64" viewBox="0 0 68 64" fill="none" xmlns="http://www.w3.org/2000/svg">
<path fill-rule="evenodd" clip-rule="evenodd" d="M0.328857 0.136963H4.53157V59.6452H67.5722V63.6124H0.328857V0.136963ZM42.356 14.0222C42.356 13.4961 42.5774 12.9916 42.9714 12.6196C43.3655 12.2476 43.9 12.0386 44.4573 12.0386H61.2682C61.8255 12.0386 62.36 12.2476 62.754 12.6196C63.1481 12.9916 63.3695 13.4961 63.3695 14.0222V29.8911C63.3695 30.4171 63.1481 30.9217 62.754 31.2937C62.36 31.6657 61.8255 31.8747 61.2682 31.8747C60.7108 31.8747 60.1763 31.6657 59.7823 31.2937C59.3882 30.9217 59.1668 30.4171 59.1668 29.8911V19.5763L43.9824 37.0995C43.7965 37.3137 43.5652 37.4887 43.3033 37.6134C43.0414 37.7381 42.7548 37.8097 42.4619 37.8235C42.1689 37.8373 41.8762 37.7931 41.6024 37.6937C41.3287 37.5943 41.08 37.4419 40.8724 37.2463L30 26.9831L14.6349 46.9263C14.2988 47.3297 13.8101 47.5945 13.2715 47.6649C12.7329 47.7354 12.1863 47.606 11.7467 47.304C11.307 47.0019 11.0085 46.5508 10.9138 46.0454C10.8192 45.5399 10.9358 45.0196 11.2391 44.5936L28.0499 22.7739C28.2284 22.5419 28.458 22.3491 28.7229 22.2089C28.9879 22.0687 29.2819 21.9844 29.5846 21.9618C29.8874 21.9391 30.1918 21.9787 30.4768 22.0778C30.7618 22.177 31.0207 22.3332 31.2356 22.5358L42.2005 32.8903L56.8343 16.0058H44.4573C43.9 16.0058 43.3655 15.7968 42.9714 15.4248C42.5774 15.0528 42.356 14.5483 42.356 14.0222Z" fill="#08BE65"/>
</svg>
