<svg version="1.2" xmlns="http://www.w3.org/2000/svg" viewBox="0 0 654 157" width="654" height="157">
	<title>fundoforum-svg</title>
	<defs>
		<clipPath clipPathUnits="userSpaceOnUse" id="cp1">
			<path d="m28 13.19h590c8.28 0 15 6.72 15 15v92.5c0 8.29-6.72 15-15 15h-590c-8.28 0-15-6.71-15-15v-92.5c0-8.28 6.72-15 15-15z"/>
		</clipPath>
	</defs>
	<style>
		.s0 { opacity: .3;fill: #f0f0f0 } 
	</style>
	<g id="Clip-Path" clip-path="url(#cp1)">
		<g>
			<path fill-rule="evenodd" class="s0" d="m409.8-9.1c16.3 0.4 22.2 1.7 33.9 7 9.3 4.2 17.2 9.9 23.1 16.6 6.6 7.5 11.7 11 18.9 13 5.5 1.3 13.9 4.8 18.8 7.7 4.8 2.7 11.8 8.4 15.4 12.4 3.7 4.2 8.5 11.9 10.7 17.4 3.1 7.5 3.8 13.9 3.1 26.5-0.9 12.1-2.6 20.1-7.2 29.8-3.6 7.3-10.4 17.4-15.2 22.7-5.1 5.3-10.8 9.5-12.8 9.3-2.2 0-6.2-3.3-13.2-14.4h-25.7c-23.2 0-26.7-0.4-37.7-5.9-6.6-3.1-16.7-10.8-22.6-17-5.8-6.2-12.2-11.3-14.1-11.3-2.2 0-6.2 2.9-8.8 6.7-3.3 4.1-7.1 6.6-10.6 6.6-3.7 0-7.7-2.7-12.1-8.4-3.7-4.4-9.9-14.6-13.9-22.5-5.3-11.1-7-18.1-7.9-30.9-0.9-14.4-0.2-18.1 4.6-28.7 3.3-7.1 9.3-15 14.1-19 4.9-3.7 11.9-8.6 15.9-10.6 3.7-2 10.7-4.4 15.4-5.7 4.4-1.1 16.9-1.8 27.9-1.3zm-46.2 24.9c-4.8 3.5-11 10.4-13.6 15-3.3 6-5.1 12.6-5.1 20.3 0 6.4 2 17 4.4 23.2 2.4 6.4 7 15.2 10.6 19.4l6.3 7.7c10.6-12.3 10.8-12.3 24.9-10.1q14.3 2.4 27.5 0.2c7.3-1.1 17.6-4.4 22.9-7.1 5.3-2.8 12.6-8.6 16.1-12.8 3.9-4.8 6.8-11.2 7.7-17.6 0.6-5.5 0.6-12.6-0.2-16.1-0.7-3.3-4.7-9.7-8.6-14.4-4.2-4.4-12.8-10.6-19.4-13.4-7.5-3.4-17.4-5.6-27.3-6-9.2-0.4-19.8 0.4-26.4 2.2-5.9 1.8-15 6.2-19.8 9.5zm113.8 52.5c-2.2 4.9-7.9 12.8-12.8 17.5-4.6 4.8-13.6 11-19.6 13.9-6.1 2.6-16.5 5.7-23.1 6.4l-12.1 1.5c11.9 9.9 20.9 14.3 27.5 16.3 9.3 2.7 17.2 3.1 33.5 2l21.5-1.3 7.3 12.1c6.6-8.6 11.2-16.1 14.3-22 4.6-9.1 5.7-14.2 6-27.8 0-14.8-0.7-17.7-6.2-24.8-3.3-4.4-9.7-10.6-14.3-13.4-4.4-2.9-10.4-6-13-6.9-4.2-1.3-4.6-0.6-4.8 8.2-0.3 5.3-2.2 13.5-4.2 18.3z"/>
		</g>
	</g>
</svg>