<svg version="1.2" xmlns="http://www.w3.org/2000/svg" viewBox="0 0 654 295" width="654" height="295">
	<title>fundomeusplantios-svg</title>
	<defs>
		<clipPath clipPathUnits="userSpaceOnUse" id="cp1">
			<path d="m28 13.19h590c8.28 0 15 6.72 15 15v230c0 8.29-6.72 15-15 15h-590c-8.28 0-15-6.71-15-15v-230c0-8.28 6.72-15 15-15z"/>
		</clipPath>
	</defs>
	<style>
		.s0 { opacity: .3;fill: #f0f0f0 } 
	</style>
	<g>
	</g>
	<g id="Clip-Path" clip-path="url(#cp1)">
		<g>
			<path fill-rule="evenodd" class="s0" d="m504.2-14q7.9 0 13.8 13.8c3.2 7.5 5.9 20.5 5.9 28.8 0 7.9-2.7 19.4-5.9 25.7-5.5 9.9-5.1 11.5 2 18.6 4.3 4.3 12.6 9 18.2 11 7.1 2 9.4 5.2 8.6 10.7-0.7 6.3-3.9 7.9-28.8 7.1l-0.8 24.1c0 13.4-3.9 34.8-16.2 71.5l15.4 13.8c13.9 12.7 15 15.8 15.4 33.6 0 13-2.7 24.1-7.9 32.4-4.3 7.1-11.8 15.4-16.9 18.5-6.7 4.4-21.4 5.6-68 4.4-32.7-1.2-80.5-3.2-106.6-5.1-31.2-2.4-53.3-6-64.7-11.1-9.9-4.4-24.5-15.4-32.8-25.3-8.7-9.9-16.2-23.7-17.8-31.6-1.2-7.5-1.2-23.7 0.4-35.5 1.2-11.9 5.2-25.7 8.3-30.8 3.2-4.8 5.9-14.3 5.9-20.6q0-11.8-5.9-11.8c-3.1 0-5.9-3.6-5.9-7.9 0-4.4 1.6-8.7 3.9-9.9 2-1.2 4-8.3 4-15.8 0-7.5-2-14.6-4-15.8-2.3-1.2-3.9-5.5-3.9-9.9 0-4.3 1.6-7.9 3.5-7.9 2 0 6.4-9.1 9.9-19.7 4.8-14.6 9.5-21.4 18.2-25.7 6.3-3.2 16.2-5.9 21.7-5.9 5.9 0 15.4 5.1 22.9 12.6 8.7 8.7 15.8 21.3 20.9 37.9 5.6 17.8 9.5 24.5 14.2 24.5 4 0 7.2 3.2 7.2 6.7 0 4-2 9.1-4.4 11.1-2.8 2.4-3.1 5.9-1.2 9.5 2.8 3.5 7.5 4.3 17.4 2.3 7.5-1.5 19-5.5 25.7-8.7 6.3-3.5 21.3-15 32.3-25.2 12.3-11.1 26.1-20.2 44.7-23.3l-9.9-14.7c-5.5-8.2-9.9-17.3-9.9-19.7 0-2.8 2.8-5.9 5.9-7.1 3.6-1.2 12.7 5.1 22.6 15.8 10.2 10.7 20.5 17.8 25.6 17.8 5.9 0 10.3-3.2 12.7-8.7 2.3-5.6 2.3-15.4 0-24.9-2-8.7-3.6-19-3.6-22.5 0-4.4 3.2-7.1 7.9-7.1zm-251.9 88.8c-0.8 11.9 0.4 13.9 7.9 15q9.1 0.8 9.8 9.9c0.8 5.6-1.5 10.3-6.7 12.7-4.3 1.9-7.9 6.3-7.9 9 0 3.6 5.6 3.6 24.9-1.1 13.4-3.2 24.9-6 25.7-6 0.8 0-1.6-9.4-4.8-20.5-5.1-16.6-8.3-21.3-15.4-21.7q-8.7-1.2-9.8-9.9c-0.4-5.1 1.9-10.3 5.1-11.9 5.1-2.7 5.1-3.9-0.8-10.2-3.9-4-9.5-7.1-12.2-6.7-2.8 0-7.5 6.3-10.3 13.8-2.8 7.5-5.1 19.7-5.5 27.6zm123.6 57.3c-11.1 4-34 8.3-51.4 9.9-17.3 1.2-39.1 5.1-48.5 8.3-10.3 3.1-19.8 10.3-24.5 17.4-4.4 6.3-9.1 21.3-10.3 32.7-1.6 15.8-0.4 23.7 5.5 34.4 4.8 8.3 14.7 17.4 24.9 22.9 11.1 5.9 28.5 9.9 47.8 11.9l30.8 2.7c-7.1-26.4-7.1-35.5-4.3-43.4 1.9-6.7 8.6-16.2 15-21.7 5.9-5.6 17.7-12.3 25.6-15 15-4.8 15-4.8 15-26.5v-21.7c29.3-13.1 43.9-17 51.4-17.4l13.8-0.4c1.6 50.9 3.1 57.3 7.9 57.3 3.1 0 7.5-6 9.9-12.7 1.9-7.1 5.5-21.7 7.5-32.8 1.9-11.4 1.9-25.2 0-32.4-2-7.1-7.5-15.8-12.3-18.9-5.1-3.2-14.6-5.9-21.7-5.9-9.9 0-18.6 5.1-37.5 22.1-13.8 12.2-33.6 24.9-44.6 29.2zm52.5 42.7c0.4 8.3-2 18.5-5.1 23.7-3.6 5.1-15.8 13.8-27.7 19.7-14.6 7.1-22.5 13.5-23.7 19.8-1.2 4.7 0.8 15 4 22.5 3.1 7.5 7.9 13.8 9.8 13.8 2 0 4.8-3.5 6-7.9 1.1-4.3 4.7-9.1 8.3-10.7 3.9-2.3 9.4 0.8 17.7 9.9 7.9 9.1 15 12.7 23.3 12.7 7.9 0 15.8-3.6 22.1-9.9 5.6-5.5 13.5-9.9 17.4-9.9 4.7 0 8.7 3.6 9.9 7.9 1.2 4.4 3.1 7.9 5.1 7.9 1.6 0 5.1-4.3 7.9-9.9 2.4-5.5 4.7-14.2 4.7-19.7 0-5.5-3.1-13-7.5-16.6-3.9-4-15-9.9-24-13-9.1-3.2-20.6-10.3-24.9-15-4.8-5.2-9.9-17-11.1-26.1-1.6-11.9-4.3-16.6-7.9-15.4-3.1 1.2-4.7 7.1-4.3 16.2z"/>
		</g>
	</g>
</svg>