<svg width="67" height="72" viewBox="0 0 67 72" fill="none" xmlns="http://www.w3.org/2000/svg">
<path d="M6.98145 49.2055V56.3149H6.03418L2.45508 50.8315V56.3149H1.5127V49.2055H2.45508L6.04883 54.7036V49.2055H6.98145ZM10.707 56.4125C10.3392 56.4125 10.0055 56.3507 9.70605 56.227C9.40983 56.1 9.1543 55.9226 8.93945 55.6948C8.72786 55.4669 8.5651 55.1967 8.45117 54.8842C8.33724 54.5717 8.28027 54.2299 8.28027 53.8588V53.6537C8.28027 53.2241 8.34375 52.8416 8.4707 52.5063C8.59766 52.1677 8.77018 51.8813 8.98828 51.6469C9.20638 51.4125 9.45378 51.2351 9.73047 51.1147C10.0072 50.9942 10.2936 50.934 10.5898 50.934C10.9674 50.934 11.293 50.9991 11.5664 51.1293C11.8431 51.2595 12.0693 51.4418 12.2451 51.6762C12.4209 51.9073 12.5511 52.1808 12.6357 52.4965C12.7204 52.809 12.7627 53.1508 12.7627 53.5219V53.9272H8.81738V53.1899H11.8594V53.1215C11.8464 52.8871 11.7975 52.6593 11.7129 52.4379C11.6315 52.2166 11.5013 52.0343 11.3223 51.8911C11.1432 51.7478 10.8991 51.6762 10.5898 51.6762C10.3848 51.6762 10.196 51.7202 10.0234 51.808C9.85091 51.8927 9.7028 52.0196 9.5791 52.1889C9.4554 52.3582 9.35938 52.5649 9.29102 52.809C9.22266 53.0532 9.18848 53.3347 9.18848 53.6537V53.8588C9.18848 54.1095 9.22266 54.3455 9.29102 54.5668C9.36263 54.7849 9.46517 54.977 9.59863 55.143C9.73535 55.309 9.89974 55.4392 10.0918 55.5336C10.2871 55.628 10.5085 55.6752 10.7559 55.6752C11.0749 55.6752 11.3451 55.6101 11.5664 55.4799C11.7878 55.3497 11.9814 55.1756 12.1475 54.9575L12.6943 55.392C12.5804 55.5646 12.4355 55.7289 12.2598 55.8852C12.084 56.0414 11.8675 56.1684 11.6104 56.2661C11.3564 56.3637 11.0553 56.4125 10.707 56.4125ZM14.7207 52.1596V56.3149H13.8174V51.0317H14.6719L14.7207 52.1596ZM14.5059 53.4731L14.1299 53.4584C14.1331 53.0971 14.1868 52.7634 14.291 52.4575C14.3952 52.1482 14.5417 51.8797 14.7305 51.6518C14.9193 51.4239 15.1439 51.2481 15.4043 51.1245C15.668 50.9975 15.9593 50.934 16.2783 50.934C16.5387 50.934 16.7731 50.9698 16.9814 51.0414C17.1898 51.1098 17.3672 51.2205 17.5137 51.3735C17.6634 51.5265 17.7773 51.725 17.8555 51.9692C17.9336 52.2101 17.9727 52.5047 17.9727 52.853V56.3149H17.0645V52.8432C17.0645 52.5665 17.0238 52.3452 16.9424 52.1791C16.861 52.0099 16.7422 51.8878 16.5859 51.8129C16.4297 51.7348 16.2376 51.6957 16.0098 51.6957C15.7852 51.6957 15.5801 51.7429 15.3945 51.8373C15.2122 51.9317 15.0544 52.062 14.9209 52.228C14.7907 52.394 14.6882 52.5844 14.6133 52.7993C14.5417 53.0108 14.5059 53.2355 14.5059 53.4731ZM20.248 48.8149V56.3149H19.3447V48.8149H20.248ZM20.0332 53.4731L19.6572 53.4584C19.6605 53.0971 19.7142 52.7634 19.8184 52.4575C19.9225 52.1482 20.069 51.8797 20.2578 51.6518C20.4466 51.4239 20.6712 51.2481 20.9316 51.1245C21.1953 50.9975 21.4867 50.934 21.8057 50.934C22.0661 50.934 22.3005 50.9698 22.5088 51.0414C22.7171 51.1098 22.8945 51.2205 23.041 51.3735C23.1908 51.5265 23.3047 51.725 23.3828 51.9692C23.4609 52.2101 23.5 52.5047 23.5 52.853V56.3149H22.5918V52.8432C22.5918 52.5665 22.5511 52.3452 22.4697 52.1791C22.3883 52.0099 22.2695 51.8878 22.1133 51.8129C21.957 51.7348 21.765 51.6957 21.5371 51.6957C21.3125 51.6957 21.1074 51.7429 20.9219 51.8373C20.7396 51.9317 20.5817 52.062 20.4482 52.228C20.318 52.394 20.2155 52.5844 20.1406 52.7993C20.069 53.0108 20.0332 53.2355 20.0332 53.4731ZM28.085 55.0942V51.0317H28.9932V56.3149H28.1289L28.085 55.0942ZM28.2559 53.9809L28.6318 53.9711C28.6318 54.3227 28.5944 54.6482 28.5195 54.9477C28.4479 55.2439 28.3307 55.5011 28.168 55.7192C28.0052 55.9373 27.792 56.1082 27.5283 56.2319C27.2646 56.3523 26.944 56.4125 26.5664 56.4125C26.3092 56.4125 26.0732 56.3751 25.8584 56.3002C25.6468 56.2254 25.4645 56.1098 25.3115 55.9536C25.1585 55.7973 25.0397 55.5939 24.9551 55.3432C24.8737 55.0925 24.833 54.7914 24.833 54.4399V51.0317H25.7363V54.4496C25.7363 54.6873 25.7624 54.8842 25.8145 55.0405C25.8698 55.1935 25.943 55.3155 26.0342 55.4067C26.1286 55.4946 26.2327 55.5564 26.3467 55.5922C26.4639 55.628 26.5843 55.6459 26.708 55.6459C27.0921 55.6459 27.3965 55.5727 27.6211 55.4262C27.8457 55.2765 28.0068 55.0763 28.1045 54.8256C28.2054 54.5717 28.2559 54.2901 28.2559 53.9809ZM31.2686 52.0815V56.3149H30.3604V51.0317H31.2197L31.2686 52.0815ZM31.083 53.4731L30.6631 53.4584C30.6663 53.0971 30.7135 52.7634 30.8047 52.4575C30.8958 52.1482 31.0309 51.8797 31.21 51.6518C31.389 51.4239 31.612 51.2481 31.8789 51.1245C32.1458 50.9975 32.4551 50.934 32.8066 50.934C33.054 50.934 33.2819 50.9698 33.4902 51.0414C33.6986 51.1098 33.8792 51.2189 34.0322 51.3686C34.1852 51.5183 34.304 51.7104 34.3887 51.9448C34.4733 52.1791 34.5156 52.4623 34.5156 52.7944V56.3149H33.6123V52.8383C33.6123 52.5616 33.5651 52.3403 33.4707 52.1743C33.3796 52.0082 33.2493 51.8878 33.0801 51.8129C32.9108 51.7348 32.7122 51.6957 32.4844 51.6957C32.2174 51.6957 31.9945 51.7429 31.8154 51.8373C31.6364 51.9317 31.4932 52.062 31.3857 52.228C31.2783 52.394 31.2002 52.5844 31.1514 52.7993C31.1058 53.0108 31.083 53.2355 31.083 53.4731ZM34.5059 52.975L33.9004 53.1606C33.9036 52.8709 33.9508 52.5925 34.042 52.3256C34.1364 52.0587 34.2715 51.8211 34.4473 51.6127C34.6263 51.4044 34.846 51.24 35.1064 51.1196C35.3669 50.9959 35.6647 50.934 36 50.934C36.2832 50.934 36.5339 50.9715 36.752 51.0463C36.9733 51.1212 37.1589 51.2368 37.3086 51.393C37.4616 51.546 37.5771 51.7429 37.6553 51.9838C37.7334 52.2247 37.7725 52.5112 37.7725 52.8432V56.3149H36.8643V52.8334C36.8643 52.5372 36.8171 52.3077 36.7227 52.145C36.6315 51.9789 36.5013 51.8634 36.332 51.7983C36.166 51.7299 35.9674 51.6957 35.7363 51.6957C35.5378 51.6957 35.362 51.7299 35.209 51.7983C35.056 51.8666 34.9274 51.961 34.8232 52.0815C34.7191 52.1987 34.6393 52.3338 34.584 52.4868C34.5319 52.6398 34.5059 52.8025 34.5059 52.975ZM42.2549 55.4116V52.6918C42.2549 52.4835 42.2126 52.3028 42.1279 52.1498C42.0465 51.9936 41.9229 51.8731 41.7568 51.7885C41.5908 51.7039 41.3857 51.6616 41.1416 51.6616C40.9137 51.6616 40.7135 51.7006 40.541 51.7787C40.3717 51.8569 40.2383 51.9594 40.1406 52.0864C40.0462 52.2133 39.999 52.35 39.999 52.4965H39.0957C39.0957 52.3077 39.1445 52.1205 39.2422 51.935C39.3398 51.7495 39.4798 51.5818 39.6621 51.4321C39.8477 51.2791 40.069 51.1586 40.3262 51.0707C40.5866 50.9796 40.8763 50.934 41.1953 50.934C41.5794 50.934 41.918 50.9991 42.2109 51.1293C42.5072 51.2595 42.7383 51.4565 42.9043 51.7202C43.0736 51.9806 43.1582 52.3077 43.1582 52.7016V55.1625C43.1582 55.3383 43.1729 55.5255 43.2021 55.7241C43.2347 55.9226 43.2819 56.0935 43.3438 56.2368V56.3149H42.4014C42.3558 56.2107 42.32 56.0724 42.2939 55.8998C42.2679 55.7241 42.2549 55.5613 42.2549 55.4116ZM42.4111 53.1118L42.4209 53.7465H41.5078C41.2507 53.7465 41.0212 53.7677 40.8193 53.81C40.6175 53.8491 40.4482 53.9093 40.3115 53.9907C40.1748 54.072 40.0706 54.1746 39.999 54.2983C39.9274 54.4187 39.8916 54.5603 39.8916 54.7231C39.8916 54.8891 39.929 55.0405 40.0039 55.1772C40.0788 55.3139 40.1911 55.423 40.3408 55.5043C40.4938 55.5825 40.681 55.6215 40.9023 55.6215C41.179 55.6215 41.4232 55.5629 41.6348 55.4457C41.8464 55.3286 42.014 55.1853 42.1377 55.0161C42.2646 54.8468 42.333 54.6824 42.3428 54.5229L42.7285 54.9575C42.7057 55.0942 42.6439 55.2455 42.543 55.4116C42.4421 55.5776 42.307 55.7371 42.1377 55.8901C41.9717 56.0398 41.7731 56.1651 41.542 56.2661C41.3141 56.3637 41.057 56.4125 40.7705 56.4125C40.4124 56.4125 40.0983 56.3425 39.8281 56.2026C39.5612 56.0626 39.3529 55.8754 39.2031 55.6411C39.0566 55.4034 38.9834 55.1381 38.9834 54.8452C38.9834 54.562 39.0387 54.3129 39.1494 54.0981C39.2601 53.88 39.4196 53.6993 39.6279 53.5561C39.8363 53.4096 40.0869 53.2989 40.3799 53.2241C40.6729 53.1492 41 53.1118 41.3613 53.1118H42.4111ZM47.9629 52.1596V56.3149H47.0596V51.0317H47.9141L47.9629 52.1596ZM47.748 53.4731L47.3721 53.4584C47.3753 53.0971 47.429 52.7634 47.5332 52.4575C47.6374 52.1482 47.7839 51.8797 47.9727 51.6518C48.1615 51.4239 48.3861 51.2481 48.6465 51.1245C48.9102 50.9975 49.2015 50.934 49.5205 50.934C49.7809 50.934 50.0153 50.9698 50.2236 51.0414C50.432 51.1098 50.6094 51.2205 50.7559 51.3735C50.9056 51.5265 51.0195 51.725 51.0977 51.9692C51.1758 52.2101 51.2148 52.5047 51.2148 52.853V56.3149H50.3066V52.8432C50.3066 52.5665 50.266 52.3452 50.1846 52.1791C50.1032 52.0099 49.9844 51.8878 49.8281 51.8129C49.6719 51.7348 49.4798 51.6957 49.252 51.6957C49.0273 51.6957 48.8223 51.7429 48.6367 51.8373C48.4544 51.9317 48.2965 52.062 48.1631 52.228C48.0329 52.394 47.9303 52.5844 47.8555 52.7993C47.7839 53.0108 47.748 53.2355 47.748 53.4731ZM52.3477 53.7319V53.6196C52.3477 53.2387 52.403 52.8855 52.5137 52.56C52.6243 52.2312 52.7839 51.9464 52.9922 51.7055C53.2005 51.4614 53.4528 51.2726 53.749 51.1391C54.0452 51.0024 54.3773 50.934 54.7451 50.934C55.1162 50.934 55.4499 51.0024 55.7461 51.1391C56.0456 51.2726 56.2995 51.4614 56.5078 51.7055C56.7194 51.9464 56.8805 52.2312 56.9912 52.56C57.1019 52.8855 57.1572 53.2387 57.1572 53.6196V53.7319C57.1572 54.1127 57.1019 54.4659 56.9912 54.7914C56.8805 55.117 56.7194 55.4018 56.5078 55.6459C56.2995 55.8868 56.0472 56.0756 55.751 56.2123C55.458 56.3458 55.126 56.4125 54.7549 56.4125C54.3838 56.4125 54.0501 56.3458 53.7539 56.2123C53.4577 56.0756 53.2038 55.8868 52.9922 55.6459C52.7839 55.4018 52.6243 55.117 52.5137 54.7914C52.403 54.4659 52.3477 54.1127 52.3477 53.7319ZM53.251 53.6196V53.7319C53.251 53.9955 53.2819 54.2446 53.3438 54.4789C53.4056 54.7101 53.4984 54.9151 53.6221 55.0942C53.749 55.2732 53.9069 55.4148 54.0957 55.519C54.2845 55.6199 54.5042 55.6703 54.7549 55.6703C55.0023 55.6703 55.2188 55.6199 55.4043 55.519C55.5931 55.4148 55.7493 55.2732 55.873 55.0942C55.9967 54.9151 56.0895 54.7101 56.1514 54.4789C56.2165 54.2446 56.249 53.9955 56.249 53.7319V53.6196C56.249 53.3592 56.2165 53.1134 56.1514 52.8823C56.0895 52.6479 55.9951 52.4412 55.8682 52.2621C55.7445 52.0799 55.5882 51.9366 55.3994 51.8325C55.2139 51.7283 54.9958 51.6762 54.7451 51.6762C54.4977 51.6762 54.2796 51.7283 54.0908 51.8325C53.9053 51.9366 53.749 52.0799 53.6221 52.2621C53.4984 52.4412 53.4056 52.6479 53.3438 52.8823C53.2819 53.1134 53.251 53.3592 53.251 53.6196ZM60.502 51.0317V51.725H57.6455V51.0317H60.502ZM58.6123 49.7475H59.5156V55.0063C59.5156 55.1853 59.5433 55.3204 59.5986 55.4116C59.654 55.5027 59.7256 55.5629 59.8135 55.5922C59.9014 55.6215 59.9958 55.6362 60.0967 55.6362C60.1715 55.6362 60.2497 55.6297 60.3311 55.6166C60.4157 55.6004 60.4792 55.5873 60.5215 55.5776L60.5264 56.3149C60.4548 56.3377 60.3604 56.3588 60.2432 56.3784C60.1292 56.4011 59.9909 56.4125 59.8281 56.4125C59.6068 56.4125 59.4033 56.3686 59.2178 56.2807C59.0322 56.1928 58.8841 56.0463 58.7734 55.8412C58.666 55.6329 58.6123 55.353 58.6123 55.0014V49.7475ZM64.6768 55.4116V52.6918C64.6768 52.4835 64.6344 52.3028 64.5498 52.1498C64.4684 51.9936 64.3447 51.8731 64.1787 51.7885C64.0127 51.7039 63.8076 51.6616 63.5635 51.6616C63.3356 51.6616 63.1354 51.7006 62.9629 51.7787C62.7936 51.8569 62.6602 51.9594 62.5625 52.0864C62.4681 52.2133 62.4209 52.35 62.4209 52.4965H61.5176C61.5176 52.3077 61.5664 52.1205 61.6641 51.935C61.7617 51.7495 61.9017 51.5818 62.084 51.4321C62.2695 51.2791 62.4909 51.1586 62.748 51.0707C63.0085 50.9796 63.2982 50.934 63.6172 50.934C64.0013 50.934 64.3398 50.9991 64.6328 51.1293C64.929 51.2595 65.1602 51.4565 65.3262 51.7202C65.4954 51.9806 65.5801 52.3077 65.5801 52.7016V55.1625C65.5801 55.3383 65.5947 55.5255 65.624 55.7241C65.6566 55.9226 65.7038 56.0935 65.7656 56.2368V56.3149H64.8232C64.7777 56.2107 64.7419 56.0724 64.7158 55.8998C64.6898 55.7241 64.6768 55.5613 64.6768 55.4116ZM64.833 53.1118L64.8428 53.7465H63.9297C63.6725 53.7465 63.443 53.7677 63.2412 53.81C63.0394 53.8491 62.8701 53.9093 62.7334 53.9907C62.5967 54.072 62.4925 54.1746 62.4209 54.2983C62.3493 54.4187 62.3135 54.5603 62.3135 54.7231C62.3135 54.8891 62.3509 55.0405 62.4258 55.1772C62.5007 55.3139 62.613 55.423 62.7627 55.5043C62.9157 55.5825 63.1029 55.6215 63.3242 55.6215C63.6009 55.6215 63.8451 55.5629 64.0566 55.4457C64.2682 55.3286 64.4359 55.1853 64.5596 55.0161C64.6865 54.8468 64.7549 54.6824 64.7646 54.5229L65.1504 54.9575C65.1276 55.0942 65.0658 55.2455 64.9648 55.4116C64.8639 55.5776 64.7288 55.7371 64.5596 55.8901C64.3936 56.0398 64.195 56.1651 63.9639 56.2661C63.736 56.3637 63.4788 56.4125 63.1924 56.4125C62.8343 56.4125 62.5202 56.3425 62.25 56.2026C61.9831 56.0626 61.7747 55.8754 61.625 55.6411C61.4785 55.4034 61.4053 55.1381 61.4053 54.8452C61.4053 54.562 61.4606 54.3129 61.5713 54.0981C61.682 53.88 61.8415 53.6993 62.0498 53.5561C62.2581 53.4096 62.5088 53.2989 62.8018 53.2241C63.0947 53.1492 63.4219 53.1118 63.7832 53.1118H64.833ZM12.8359 67.4116V64.6918C12.8359 64.4835 12.7936 64.3028 12.709 64.1498C12.6276 63.9936 12.5039 63.8731 12.3379 63.7885C12.1719 63.7039 11.9668 63.6616 11.7227 63.6616C11.4948 63.6616 11.2946 63.7006 11.1221 63.7787C10.9528 63.8569 10.8193 63.9594 10.7217 64.0864C10.6273 64.2133 10.5801 64.35 10.5801 64.4965H9.67676C9.67676 64.3077 9.72559 64.1205 9.82324 63.935C9.9209 63.7495 10.0609 63.5818 10.2432 63.4321C10.4287 63.2791 10.6501 63.1586 10.9072 63.0707C11.1676 62.9796 11.4574 62.934 11.7764 62.934C12.1605 62.934 12.499 62.9991 12.792 63.1293C13.0882 63.2595 13.3193 63.4565 13.4854 63.7202C13.6546 63.9806 13.7393 64.3077 13.7393 64.7016V67.1625C13.7393 67.3383 13.7539 67.5255 13.7832 67.7241C13.8158 67.9226 13.863 68.0935 13.9248 68.2368V68.3149H12.9824C12.9368 68.2107 12.901 68.0724 12.875 67.8998C12.849 67.7241 12.8359 67.5613 12.8359 67.4116ZM12.9922 65.1118L13.002 65.7465H12.0889C11.8317 65.7465 11.6022 65.7677 11.4004 65.81C11.1986 65.8491 11.0293 65.9093 10.8926 65.9907C10.7559 66.072 10.6517 66.1746 10.5801 66.2983C10.5085 66.4187 10.4727 66.5603 10.4727 66.7231C10.4727 66.8891 10.5101 67.0405 10.585 67.1772C10.6598 67.3139 10.7721 67.423 10.9219 67.5043C11.0749 67.5825 11.262 67.6215 11.4834 67.6215C11.7601 67.6215 12.0042 67.5629 12.2158 67.4457C12.4274 67.3286 12.5951 67.1853 12.7188 67.0161C12.8457 66.8468 12.9141 66.6824 12.9238 66.5229L13.3096 66.9575C13.2868 67.0942 13.2249 67.2455 13.124 67.4116C13.0231 67.5776 12.888 67.7371 12.7188 67.8901C12.5527 68.0398 12.3542 68.1651 12.123 68.2661C11.8952 68.3637 11.638 68.4125 11.3516 68.4125C10.9935 68.4125 10.6794 68.3425 10.4092 68.2026C10.1423 68.0626 9.93392 67.8754 9.78418 67.6411C9.6377 67.4034 9.56445 67.1381 9.56445 66.8452C9.56445 66.562 9.61979 66.3129 9.73047 66.0981C9.84115 65.88 10.0007 65.6993 10.209 65.5561C10.4173 65.4096 10.668 65.2989 10.9609 65.2241C11.2539 65.1492 11.5811 65.1118 11.9424 65.1118H12.9922ZM18.4902 67.2895V60.8149H19.3984V68.3149H18.5684L18.4902 67.2895ZM14.9355 65.7319V65.6293C14.9355 65.2257 14.9844 64.8595 15.082 64.5307C15.1829 64.1987 15.3245 63.9138 15.5068 63.6762C15.6924 63.4386 15.9121 63.2563 16.166 63.1293C16.4232 62.9991 16.7096 62.934 17.0254 62.934C17.3574 62.934 17.6471 62.9926 17.8945 63.1098C18.1452 63.2237 18.3568 63.3914 18.5293 63.6127C18.7051 63.8308 18.8434 64.0945 18.9443 64.4037C19.0452 64.713 19.1152 65.0629 19.1543 65.4536V65.9028C19.1185 66.2901 19.0485 66.6384 18.9443 66.9477C18.8434 67.2569 18.7051 67.5206 18.5293 67.7387C18.3568 67.9568 18.1452 68.1245 17.8945 68.2416C17.6439 68.3556 17.3509 68.4125 17.0156 68.4125C16.7064 68.4125 16.4232 68.3458 16.166 68.2123C15.9121 68.0789 15.6924 67.8917 15.5068 67.6508C15.3245 67.4099 15.1829 67.1267 15.082 66.8012C14.9844 66.4724 14.9355 66.116 14.9355 65.7319ZM15.8438 65.6293V65.7319C15.8438 65.9955 15.8698 66.2429 15.9219 66.4741C15.9772 66.7052 16.0618 66.9086 16.1758 67.0844C16.2897 67.2602 16.4346 67.3985 16.6104 67.4995C16.7861 67.5971 16.9961 67.6459 17.2402 67.6459C17.5397 67.6459 17.7855 67.5825 17.9775 67.4555C18.1729 67.3286 18.3291 67.1609 18.4463 66.9526C18.5635 66.7442 18.6546 66.518 18.7197 66.2739V65.0971C18.6807 64.9181 18.6237 64.7455 18.5488 64.5795C18.4772 64.4103 18.3828 64.2605 18.2656 64.1303C18.1517 63.9968 18.0101 63.8911 17.8408 63.8129C17.6748 63.7348 17.4779 63.6957 17.25 63.6957C17.0026 63.6957 16.7894 63.7478 16.6104 63.852C16.4346 63.9529 16.2897 64.0929 16.1758 64.2719C16.0618 64.4477 15.9772 64.6528 15.9219 64.8871C15.8698 65.1183 15.8438 65.3657 15.8438 65.6293ZM21.7861 63.0317V68.3149H20.8779V63.0317H21.7861ZM20.8096 61.6303C20.8096 61.4838 20.8535 61.3601 20.9414 61.2592C21.0326 61.1583 21.166 61.1078 21.3418 61.1078C21.5143 61.1078 21.6462 61.1583 21.7373 61.2592C21.8317 61.3601 21.8789 61.4838 21.8789 61.6303C21.8789 61.7703 21.8317 61.8907 21.7373 61.9916C21.6462 62.0893 21.5143 62.1381 21.3418 62.1381C21.166 62.1381 21.0326 62.0893 20.9414 61.9916C20.8535 61.8907 20.8096 61.7703 20.8096 61.6303ZM25.3506 67.6703C25.5654 67.6703 25.764 67.6264 25.9463 67.5385C26.1286 67.4506 26.2783 67.3302 26.3955 67.1772C26.5127 67.0209 26.5794 66.8435 26.5957 66.645H27.4551C27.4388 66.9575 27.333 67.2488 27.1377 67.519C26.9456 67.7859 26.6934 68.0024 26.3809 68.1684C26.0684 68.3312 25.7249 68.4125 25.3506 68.4125C24.9535 68.4125 24.6068 68.3425 24.3105 68.2026C24.0176 68.0626 23.7734 67.8705 23.5781 67.6264C23.3861 67.3823 23.2412 67.1023 23.1436 66.7866C23.0492 66.4675 23.002 66.1306 23.002 65.7758V65.5707C23.002 65.2159 23.0492 64.8806 23.1436 64.5649C23.2412 64.2459 23.3861 63.9643 23.5781 63.7202C23.7734 63.476 24.0176 63.284 24.3105 63.144C24.6068 63.004 24.9535 62.934 25.3506 62.934C25.764 62.934 26.1253 63.0187 26.4346 63.1879C26.7438 63.3539 26.9863 63.5818 27.1621 63.8715C27.3411 64.158 27.4388 64.4835 27.4551 64.8481H26.5957C26.5794 64.63 26.5176 64.433 26.4102 64.2573C26.306 64.0815 26.1628 63.9415 25.9805 63.8373C25.8014 63.7299 25.5915 63.6762 25.3506 63.6762C25.0739 63.6762 24.8411 63.7315 24.6523 63.8422C24.4668 63.9496 24.3187 64.0961 24.208 64.2817C24.1006 64.464 24.0225 64.6674 23.9736 64.892C23.9281 65.1134 23.9053 65.3396 23.9053 65.5707V65.7758C23.9053 66.0069 23.9281 66.2348 23.9736 66.4594C24.0192 66.684 24.0957 66.8875 24.2031 67.0698C24.3138 67.2521 24.4619 67.3985 24.6475 67.5092C24.8363 67.6166 25.0706 67.6703 25.3506 67.6703ZM29.4521 63.0317V68.3149H28.5439V63.0317H29.4521ZM28.4756 61.6303C28.4756 61.4838 28.5195 61.3601 28.6074 61.2592C28.6986 61.1583 28.832 61.1078 29.0078 61.1078C29.1803 61.1078 29.3122 61.1583 29.4033 61.2592C29.4977 61.3601 29.5449 61.4838 29.5449 61.6303C29.5449 61.7703 29.4977 61.8907 29.4033 61.9916C29.3122 62.0893 29.1803 62.1381 29.0078 62.1381C28.832 62.1381 28.6986 62.0893 28.6074 61.9916C28.5195 61.8907 28.4756 61.7703 28.4756 61.6303ZM30.6631 65.7319V65.6196C30.6631 65.2387 30.7184 64.8855 30.8291 64.56C30.9398 64.2312 31.0993 63.9464 31.3076 63.7055C31.516 63.4614 31.7682 63.2726 32.0645 63.1391C32.3607 63.0024 32.6927 62.934 33.0605 62.934C33.4316 62.934 33.7653 63.0024 34.0615 63.1391C34.361 63.2726 34.6149 63.4614 34.8232 63.7055C35.0348 63.9464 35.196 64.2312 35.3066 64.56C35.4173 64.8855 35.4727 65.2387 35.4727 65.6196V65.7319C35.4727 66.1127 35.4173 66.4659 35.3066 66.7914C35.196 67.117 35.0348 67.4018 34.8232 67.6459C34.6149 67.8868 34.3626 68.0756 34.0664 68.2123C33.7734 68.3458 33.4414 68.4125 33.0703 68.4125C32.6992 68.4125 32.3656 68.3458 32.0693 68.2123C31.7731 68.0756 31.5192 67.8868 31.3076 67.6459C31.0993 67.4018 30.9398 67.117 30.8291 66.7914C30.7184 66.4659 30.6631 66.1127 30.6631 65.7319ZM31.5664 65.6196V65.7319C31.5664 65.9955 31.5973 66.2446 31.6592 66.4789C31.721 66.7101 31.8138 66.9151 31.9375 67.0942C32.0645 67.2732 32.2223 67.4148 32.4111 67.519C32.5999 67.6199 32.8197 67.6703 33.0703 67.6703C33.3177 67.6703 33.5342 67.6199 33.7197 67.519C33.9085 67.4148 34.0648 67.2732 34.1885 67.0942C34.3122 66.9151 34.4049 66.7101 34.4668 66.4789C34.5319 66.2446 34.5645 65.9955 34.5645 65.7319V65.6196C34.5645 65.3592 34.5319 65.1134 34.4668 64.8823C34.4049 64.6479 34.3105 64.4412 34.1836 64.2621C34.0599 64.0799 33.9036 63.9366 33.7148 63.8325C33.5293 63.7283 33.3112 63.6762 33.0605 63.6762C32.8132 63.6762 32.5951 63.7283 32.4062 63.8325C32.2207 63.9366 32.0645 64.0799 31.9375 64.2621C31.8138 64.4412 31.721 64.6479 31.6592 64.8823C31.5973 65.1134 31.5664 65.3592 31.5664 65.6196ZM37.5088 64.1596V68.3149H36.6055V63.0317H37.46L37.5088 64.1596ZM37.2939 65.4731L36.918 65.4584C36.9212 65.0971 36.9749 64.7634 37.0791 64.4575C37.1833 64.1482 37.3298 63.8797 37.5186 63.6518C37.7074 63.4239 37.932 63.2481 38.1924 63.1245C38.4561 62.9975 38.7474 62.934 39.0664 62.934C39.3268 62.934 39.5612 62.9698 39.7695 63.0414C39.9779 63.1098 40.1553 63.2205 40.3018 63.3735C40.4515 63.5265 40.5654 63.725 40.6436 63.9692C40.7217 64.2101 40.7607 64.5047 40.7607 64.853V68.3149H39.8525V64.8432C39.8525 64.5665 39.8118 64.3452 39.7305 64.1791C39.6491 64.0099 39.5303 63.8878 39.374 63.8129C39.2178 63.7348 39.0257 63.6957 38.7979 63.6957C38.5732 63.6957 38.3682 63.7429 38.1826 63.8373C38.0003 63.9317 37.8424 64.062 37.709 64.228C37.5788 64.394 37.4762 64.5844 37.4014 64.7993C37.3298 65.0108 37.2939 65.2355 37.2939 65.4731ZM45.248 67.4116V64.6918C45.248 64.4835 45.2057 64.3028 45.1211 64.1498C45.0397 63.9936 44.916 63.8731 44.75 63.7885C44.584 63.7039 44.3789 63.6616 44.1348 63.6616C43.9069 63.6616 43.7067 63.7006 43.5342 63.7787C43.3649 63.8569 43.2314 63.9594 43.1338 64.0864C43.0394 64.2133 42.9922 64.35 42.9922 64.4965H42.0889C42.0889 64.3077 42.1377 64.1205 42.2354 63.935C42.333 63.7495 42.473 63.5818 42.6553 63.4321C42.8408 63.2791 43.0622 63.1586 43.3193 63.0707C43.5798 62.9796 43.8695 62.934 44.1885 62.934C44.5726 62.934 44.9111 62.9991 45.2041 63.1293C45.5003 63.2595 45.7314 63.4565 45.8975 63.7202C46.0667 63.9806 46.1514 64.3077 46.1514 64.7016V67.1625C46.1514 67.3383 46.166 67.5255 46.1953 67.7241C46.2279 67.9226 46.2751 68.0935 46.3369 68.2368V68.3149H45.3945C45.349 68.2107 45.3132 68.0724 45.2871 67.8998C45.2611 67.7241 45.248 67.5613 45.248 67.4116ZM45.4043 65.1118L45.4141 65.7465H44.501C44.2438 65.7465 44.0143 65.7677 43.8125 65.81C43.6107 65.8491 43.4414 65.9093 43.3047 65.9907C43.168 66.072 43.0638 66.1746 42.9922 66.2983C42.9206 66.4187 42.8848 66.5603 42.8848 66.7231C42.8848 66.8891 42.9222 67.0405 42.9971 67.1772C43.0719 67.3139 43.1842 67.423 43.334 67.5043C43.487 67.5825 43.6742 67.6215 43.8955 67.6215C44.1722 67.6215 44.4163 67.5629 44.6279 67.4457C44.8395 67.3286 45.0072 67.1853 45.1309 67.0161C45.2578 66.8468 45.3262 66.6824 45.3359 66.5229L45.7217 66.9575C45.6989 67.0942 45.637 67.2455 45.5361 67.4116C45.4352 67.5776 45.3001 67.7371 45.1309 67.8901C44.9648 68.0398 44.7663 68.1651 44.5352 68.2661C44.3073 68.3637 44.0501 68.4125 43.7637 68.4125C43.4056 68.4125 43.0915 68.3425 42.8213 68.2026C42.5544 68.0626 42.346 67.8754 42.1963 67.6411C42.0498 67.4034 41.9766 67.1381 41.9766 66.8452C41.9766 66.562 42.0319 66.3129 42.1426 66.0981C42.2533 65.88 42.4128 65.6993 42.6211 65.5561C42.8294 65.4096 43.0801 65.2989 43.373 65.2241C43.666 65.1492 43.9932 65.1118 44.3545 65.1118H45.4043ZM50.9023 67.2895V60.8149H51.8105V68.3149H50.9805L50.9023 67.2895ZM47.3477 65.7319V65.6293C47.3477 65.2257 47.3965 64.8595 47.4941 64.5307C47.5951 64.1987 47.7367 63.9138 47.9189 63.6762C48.1045 63.4386 48.3242 63.2563 48.5781 63.1293C48.8353 62.9991 49.1217 62.934 49.4375 62.934C49.7695 62.934 50.0592 62.9926 50.3066 63.1098C50.5573 63.2237 50.7689 63.3914 50.9414 63.6127C51.1172 63.8308 51.2555 64.0945 51.3564 64.4037C51.4574 64.713 51.5273 65.0629 51.5664 65.4536V65.9028C51.5306 66.2901 51.4606 66.6384 51.3564 66.9477C51.2555 67.2569 51.1172 67.5206 50.9414 67.7387C50.7689 67.9568 50.5573 68.1245 50.3066 68.2416C50.056 68.3556 49.763 68.4125 49.4277 68.4125C49.1185 68.4125 48.8353 68.3458 48.5781 68.2123C48.3242 68.0789 48.1045 67.8917 47.9189 67.6508C47.7367 67.4099 47.5951 67.1267 47.4941 66.8012C47.3965 66.4724 47.3477 66.116 47.3477 65.7319ZM48.2559 65.6293V65.7319C48.2559 65.9955 48.2819 66.2429 48.334 66.4741C48.3893 66.7052 48.474 66.9086 48.5879 67.0844C48.7018 67.2602 48.8467 67.3985 49.0225 67.4995C49.1982 67.5971 49.4082 67.6459 49.6523 67.6459C49.9518 67.6459 50.1976 67.5825 50.3896 67.4555C50.585 67.3286 50.7412 67.1609 50.8584 66.9526C50.9756 66.7442 51.0667 66.518 51.1318 66.2739V65.0971C51.0928 64.9181 51.0358 64.7455 50.9609 64.5795C50.8893 64.4103 50.7949 64.2605 50.6777 64.1303C50.5638 63.9968 50.4222 63.8911 50.2529 63.8129C50.0869 63.7348 49.89 63.6957 49.6621 63.6957C49.4147 63.6957 49.2015 63.7478 49.0225 63.852C48.8467 63.9529 48.7018 64.0929 48.5879 64.2719C48.474 64.4477 48.3893 64.6528 48.334 64.8871C48.2819 65.1183 48.2559 65.3657 48.2559 65.6293ZM56.332 67.4116V64.6918C56.332 64.4835 56.2897 64.3028 56.2051 64.1498C56.1237 63.9936 56 63.8731 55.834 63.7885C55.668 63.7039 55.4629 63.6616 55.2188 63.6616C54.9909 63.6616 54.7907 63.7006 54.6182 63.7787C54.4489 63.8569 54.3154 63.9594 54.2178 64.0864C54.1234 64.2133 54.0762 64.35 54.0762 64.4965H53.1729C53.1729 64.3077 53.2217 64.1205 53.3193 63.935C53.417 63.7495 53.557 63.5818 53.7393 63.4321C53.9248 63.2791 54.1462 63.1586 54.4033 63.0707C54.6637 62.9796 54.9535 62.934 55.2725 62.934C55.6566 62.934 55.9951 62.9991 56.2881 63.1293C56.5843 63.2595 56.8154 63.4565 56.9814 63.7202C57.1507 63.9806 57.2354 64.3077 57.2354 64.7016V67.1625C57.2354 67.3383 57.25 67.5255 57.2793 67.7241C57.3118 67.9226 57.359 68.0935 57.4209 68.2368V68.3149H56.4785C56.4329 68.2107 56.3971 68.0724 56.3711 67.8998C56.3451 67.7241 56.332 67.5613 56.332 67.4116ZM56.4883 65.1118L56.498 65.7465H55.585C55.3278 65.7465 55.0983 65.7677 54.8965 65.81C54.6947 65.8491 54.5254 65.9093 54.3887 65.9907C54.252 66.072 54.1478 66.1746 54.0762 66.2983C54.0046 66.4187 53.9688 66.5603 53.9688 66.7231C53.9688 66.8891 54.0062 67.0405 54.0811 67.1772C54.1559 67.3139 54.2682 67.423 54.418 67.5043C54.571 67.5825 54.7581 67.6215 54.9795 67.6215C55.2562 67.6215 55.5003 67.5629 55.7119 67.4457C55.9235 67.3286 56.0911 67.1853 56.2148 67.0161C56.3418 66.8468 56.4102 66.6824 56.4199 66.5229L56.8057 66.9575C56.7829 67.0942 56.721 67.2455 56.6201 67.4116C56.5192 67.5776 56.3841 67.7371 56.2148 67.8901C56.0488 68.0398 55.8503 68.1651 55.6191 68.2661C55.3913 68.3637 55.1341 68.4125 54.8477 68.4125C54.4896 68.4125 54.1755 68.3425 53.9053 68.2026C53.6383 68.0626 53.43 67.8754 53.2803 67.6411C53.1338 67.4034 53.0605 67.1381 53.0605 66.8452C53.0605 66.562 53.1159 66.3129 53.2266 66.0981C53.3372 65.88 53.4967 65.6993 53.7051 65.5561C53.9134 65.4096 54.1641 65.2989 54.457 65.2241C54.75 65.1492 55.0771 65.1118 55.4385 65.1118H56.4883Z" fill="#E3E3E3"/>
<path d="M30.4017 6.36106H18.5045C17.2424 6.36106 16.0319 6.86244 15.1394 7.75491C14.247 8.64737 13.7456 9.85781 13.7456 11.1199V37.2938C13.7456 38.5559 14.247 39.7664 15.1394 40.6588C16.0319 41.5513 17.2424 42.0527 18.5045 42.0527H44.6783C45.9405 42.0527 47.1509 41.5513 48.0434 40.6588C48.9358 39.7664 49.4372 38.5559 49.4372 37.2938V25.3966M46.0727 2.99653C46.5117 2.54201 47.0368 2.17947 47.6174 1.93006C48.198 1.68065 48.8225 1.54937 49.4543 1.54388C50.0862 1.53839 50.7129 1.6588 51.2977 1.89808C51.8826 2.13736 52.4139 2.49072 52.8607 2.93755C53.3076 3.38437 53.6609 3.91571 53.9002 4.50056C54.1395 5.08541 54.2599 5.71205 54.2544 6.34394C54.2489 6.97582 54.1176 7.60028 53.8682 8.18088C53.6188 8.76148 53.2563 9.2866 52.8017 9.72559L32.3719 30.1555H25.6428V23.4264L46.0727 2.99653Z" stroke="#EBEBEB" stroke-width="3.09546" stroke-linecap="round" stroke-linejoin="round"/>
</svg>
