<svg width="23" height="23" viewBox="0 0 23 23" fill="none" xmlns="http://www.w3.org/2000/svg">
<path fill-rule="evenodd" clip-rule="evenodd" d="M15.1997 0.201416C15.7641 0.201416 16.9225 0.501631 17.7245 0.891911C18.5562 1.28219 19.5661 1.97269 20.0117 2.45303C20.4572 2.93338 21.1107 4.01415 21.4672 4.82473C21.8236 5.66534 22.18 7.07635 22.2692 7.97699C22.3286 8.87764 22.2395 10.3487 22.0612 11.2193C21.883 12.0599 21.3781 13.561 20.9028 14.4917C20.4572 15.4223 19.3582 17.0135 18.4671 17.9742C17.576 18.9349 16.1503 20.1357 15.3483 20.586C14.5166 21.0664 13.0611 21.6668 12.0809 21.907C11.1007 22.1772 9.70461 22.3873 8.96202 22.3873C8.21943 22.3873 6.94219 22.2072 6.14019 21.967C5.3085 21.7269 4.12036 21.1264 3.46688 20.6761C2.67479 20.0957 1.95201 19.165 1.29853 17.8841C0.734167 16.7433 0.348022 15.4824 0.348022 14.8819C0.348022 14.3115 0.615353 13.2908 0.912388 12.6303C1.20942 11.9098 3.28866 9.56813 6.02138 6.74611C8.54617 4.19428 11.071 1.76254 11.6353 1.37226C12.1997 0.981976 13.0017 0.561674 13.4175 0.441588C13.8334 0.321502 14.6354 0.201416 15.1997 0.201416ZM11.2492 4.04417C10.8036 4.46447 10.4472 5.09493 10.4472 5.42516C10.4769 5.7554 10.269 6.20572 10.0016 6.41587C9.76401 6.596 9.40757 6.71609 9.25905 6.62602C9.11054 6.53596 7.50655 7.91695 5.72434 9.71824C3.22926 12.18 2.42726 13.1707 2.27875 13.9813C2.15993 14.6118 2.21934 15.5124 2.45697 16.2329C2.66489 16.8934 3.31837 17.9441 3.88273 18.5746C4.65502 19.4152 5.42731 19.8655 6.58574 20.1958C7.71448 20.526 8.7838 20.6161 10.0016 20.466C11.0116 20.3459 12.5858 19.8955 13.6552 19.3852C14.6651 18.8748 16.1503 17.8541 16.9225 17.0435C17.6948 16.2629 18.7047 14.8819 19.1503 13.9813C19.5958 13.0807 20.1008 11.5195 20.3087 10.5288C20.5761 9.08779 20.5761 8.36727 20.2493 6.92624C19.982 5.72538 19.5364 4.79471 18.9424 4.10422C18.4374 3.56383 17.5166 2.84331 16.9225 2.5431C16.2988 2.21286 15.4374 1.97269 14.9918 1.97269C14.5166 1.97269 13.6849 2.2729 13.1205 2.60314C12.5561 2.9634 11.7244 3.59385 11.2492 4.04417Z" fill="#545454"/>
<path d="M18.1106 18.9949C17.8532 19.155 17.8037 19.105 17.9621 18.8448C18.0809 18.6647 18.2591 18.4845 18.3185 18.4845C18.4077 18.4845 18.4671 18.5446 18.4671 18.6346C18.4671 18.7247 18.2888 18.8748 18.1106 18.9949Z" fill="#545454" fill-opacity="0.2"/>
<path d="M9.22933 20.7662C9.16992 20.8562 8.90259 20.8562 8.66497 20.7962C8.33823 20.6761 8.36793 20.6161 8.78378 20.6161C9.11052 20.586 9.28874 20.6761 9.22933 20.7662Z" fill="#545454" fill-opacity="0.8"/>
<path d="M4.06081 19.085C3.9717 19.085 3.82318 18.9349 3.73407 18.7847C3.64496 18.6346 3.64496 18.4845 3.73407 18.4845C3.82318 18.4845 3.9717 18.6346 4.06081 18.7847C4.14992 18.9349 4.14992 19.085 4.06081 19.085Z" fill="#545454" fill-opacity="0.4"/>
<path d="M3.82336 11.4895C3.58573 11.6496 3.54613 11.5996 3.70455 11.3394C3.82336 11.1593 4.00158 10.9791 4.06099 10.9791C4.1501 10.9791 4.20951 11.0392 4.20951 11.1293C4.20951 11.2193 4.03129 11.3694 3.82336 11.4895Z" fill="#545454" fill-opacity="0.3"/>
<path d="M15.4076 1.91264C15.2888 2.03272 15.1106 2.0027 14.9918 1.88262C14.8433 1.76253 14.9324 1.67247 15.17 1.67247C15.4076 1.67247 15.4968 1.76253 15.4076 1.91264Z" fill="#545454" fill-opacity="0.7"/>
<path d="M20.7542 8.8176C20.6354 8.93768 20.5166 8.8176 20.5166 8.57742C20.5166 8.33725 20.6354 8.21717 20.7542 8.33725C20.873 8.48736 20.873 8.66749 20.7542 8.8176Z" fill="#545454" fill-opacity="0.8"/>
<path d="M17.1305 8.87762C17.0414 8.72752 17.0711 8.36726 17.1899 8.12708C17.279 7.85689 17.5761 7.67676 17.8434 7.7368C18.1107 7.79685 18.3483 8.12708 18.3781 8.51736C18.4375 8.99771 18.3186 9.17784 17.8731 9.17784C17.5464 9.17784 17.2196 9.02773 17.1305 8.87762Z" fill="#545454"/>
<path d="M6.28875 13.9813C6.14024 13.9813 5.99172 13.8312 5.99172 13.6811C5.99172 13.531 6.14024 13.3809 6.28875 13.3809C6.43727 13.3809 6.58579 13.531 6.58579 13.6811C6.58579 13.8312 6.43727 13.9813 6.28875 13.9813Z" fill="#545454"/>
<path d="M4.41744 15.7225C4.29862 15.8426 4.17981 15.7225 4.17981 15.4824C4.17981 15.2422 4.29862 15.1221 4.41744 15.2722C4.53625 15.3923 4.53625 15.5724 4.41744 15.7225Z" fill="#545454"/>
<path d="M6.14024 17.2837C6.05113 17.1335 6.05113 16.7733 6.14024 16.5331C6.19964 16.2929 6.37786 16.0828 6.49668 16.0828C6.6452 16.0828 6.94223 16.2029 7.17986 16.353C7.44719 16.5331 7.5363 16.8033 7.41748 17.1035C7.26897 17.3737 6.97193 17.5839 6.73431 17.5839C6.49668 17.5839 6.22935 17.4338 6.14024 17.2837Z" fill="#545454"/>
<path d="M15.4968 16.6832C15.3483 16.6832 15.1998 16.5331 15.1998 16.383C15.1998 16.2329 15.3483 16.0828 15.4968 16.0828C15.6453 16.0828 15.7939 16.2329 15.7939 16.383C15.7939 16.5331 15.6453 16.6832 15.4968 16.6832Z" fill="#545454"/>
<path d="M15.4968 10.0785C15.3483 10.0785 15.1997 9.92838 15.1997 9.77827C15.1997 9.62817 15.3483 9.47806 15.4968 9.47806C15.6453 9.47806 15.7938 9.62817 15.7938 9.77827C15.7938 9.92838 15.6453 10.0785 15.4968 10.0785Z" fill="#545454"/>
<path d="M4.71443 15.7225C4.59562 15.8426 4.47681 15.7225 4.47681 15.4824C4.47681 15.2422 4.59562 15.1221 4.71443 15.2422C4.83325 15.3923 4.83325 15.5724 4.71443 15.7225Z" fill="#545454"/>
</svg>
