<svg width="26" height="26" viewBox="0 0 26 26" fill="none" xmlns="http://www.w3.org/2000/svg">
<path fill-rule="evenodd" clip-rule="evenodd" d="M10.2941 0.467173C10.654 0.481658 10.7925 0.505799 11.0417 0.621679C11.2133 0.70376 11.5511 0.940347 11.8169 1.17693C12.0772 1.40386 12.4537 1.80461 12.6586 2.07017C12.858 2.33573 13.1625 2.77028 13.3287 3.03583C13.4892 3.30139 13.7495 3.75525 14.1704 4.56641L14.5303 4.53744C14.7297 4.52295 15.2779 4.49398 15.7486 4.4795C16.3079 4.46019 16.7841 4.46984 17.1053 4.50847C17.3766 4.53744 17.8528 4.61952 18.1574 4.68712C18.462 4.75471 18.8994 4.87542 19.1265 4.95267C19.3535 5.03475 19.6802 5.13132 19.8463 5.16512C20.0125 5.20375 20.2506 5.23272 20.3724 5.23272C20.4942 5.23272 20.7323 5.19892 20.8985 5.15063C21.1421 5.08304 21.2806 5.00096 21.5796 4.74023C21.8398 4.50847 21.9894 4.4119 22.089 4.4119C22.1666 4.4119 22.2939 4.44087 22.3825 4.4795C22.4656 4.5133 22.5653 4.60021 22.604 4.67263C22.6373 4.74023 22.6705 4.83679 22.6705 4.88025C22.6705 4.92853 22.5653 5.16029 22.4268 5.40171C22.2939 5.64312 22.0835 5.96662 21.9561 6.12595C21.8288 6.28529 21.574 6.56533 21.0369 7.0723L21.1753 7.15438C21.2529 7.19784 21.5242 7.39097 21.7845 7.57927C22.0447 7.76758 22.4213 8.07659 22.6317 8.26972C22.8366 8.45803 23.1578 8.78152 23.3461 8.98431C23.5343 9.19193 23.8444 9.56854 24.0327 9.81961C24.221 10.0707 24.5311 10.5487 24.7083 10.8818C24.891 11.215 25.1291 11.7123 25.2344 11.9924C25.3396 12.2724 25.478 12.7069 25.5389 12.958C25.6054 13.2091 25.6829 13.6147 25.7161 13.8513C25.7493 14.0878 25.777 14.6093 25.777 15.01C25.777 15.406 25.7383 15.9612 25.694 16.2413C25.6497 16.5213 25.5611 16.9317 25.4946 17.1586C25.4337 17.3856 25.3285 17.7091 25.262 17.8829C25.2011 18.0567 25.0848 18.3271 25.0129 18.4864C24.9353 18.6458 24.7471 18.9934 24.5975 19.259C24.4425 19.5245 24.1767 19.9253 24.0106 20.1522C23.8389 20.3791 23.5066 20.7702 23.2741 21.0213C23.0415 21.2724 22.593 21.6924 22.2773 21.958C21.9617 22.2187 21.4467 22.6002 21.1421 22.8029C20.832 23.0057 20.306 23.3099 19.9792 23.4837C19.647 23.6527 19.0877 23.9086 18.7388 24.0438C18.39 24.1838 17.803 24.3818 17.4375 24.488C17.072 24.5942 16.4851 24.7391 16.1362 24.8067C15.7873 24.8743 15.2003 24.9612 14.8349 25.0047C14.4251 25.0529 13.755 25.0819 13.0905 25.0819C12.426 25.0819 11.756 25.0529 11.3462 25.0047C10.9807 24.9612 10.3938 24.8743 10.0449 24.8067C9.69604 24.7391 9.10906 24.5942 8.74358 24.488C8.3781 24.3818 7.79112 24.1838 7.44226 24.0438C7.09339 23.9086 6.5341 23.6527 6.20185 23.4837C5.87514 23.3099 5.34907 23.0057 5.03897 22.8029C4.73441 22.6002 4.21941 22.2187 3.90377 21.958C3.58814 21.6924 3.1396 21.2724 2.90702 21.0213C2.67444 20.7702 2.34219 20.3791 2.17053 20.1522C2.0044 19.9253 1.7386 19.5245 1.58355 19.259C1.43403 18.9934 1.24576 18.6458 1.16823 18.4864C1.09624 18.3271 0.979956 18.0567 0.919043 17.8829C0.852593 17.7091 0.74738 17.3856 0.686467 17.1586C0.620017 16.9317 0.531416 16.5213 0.487116 16.2413C0.442815 15.9612 0.404053 15.3867 0.404053 14.9618C0.404053 14.4934 0.437278 13.9816 0.492653 13.6581C0.542491 13.3636 0.620017 12.987 0.669854 12.8132C0.714155 12.6393 0.83598 12.2724 0.946731 11.9924C1.05194 11.7123 1.2956 11.2005 1.48941 10.8577C1.67769 10.5101 1.97118 10.0562 2.12623 9.84375C2.28681 9.63131 2.53047 9.32712 2.67444 9.16779C2.81288 9.00846 3.11744 8.69462 3.35002 8.46768C3.57706 8.24075 3.98684 7.89312 4.2471 7.69515C4.5129 7.49719 4.72887 7.31372 4.72887 7.28475C4.72887 7.25578 4.65688 7.16887 4.56274 7.09162C4.4686 7.00953 4.23049 6.73915 4.03668 6.48808C3.84286 6.237 3.56598 5.81211 3.42755 5.54656C3.26142 5.21823 3.17836 4.99613 3.17836 4.85611C3.17836 4.68712 3.20605 4.63401 3.34448 4.53261C3.4497 4.45536 3.57706 4.4119 3.69335 4.4119C3.83732 4.41673 3.93146 4.47467 4.2028 4.71126C4.38554 4.87542 4.6458 5.05407 4.78424 5.10718C4.97806 5.18443 5.14418 5.20375 5.50412 5.20375C5.90836 5.19892 6.0468 5.17478 6.50088 5.02027C6.78883 4.91888 7.17646 4.79817 7.3592 4.74988C7.54193 4.7016 7.8908 4.62435 8.13445 4.58089C8.3781 4.53744 8.95401 4.48916 10.2609 4.43604L10.0283 4.07392C9.90646 3.87596 9.70157 3.57178 9.57421 3.39796C9.44685 3.22414 9.27518 2.96824 9.19766 2.82822C9.1146 2.69302 9.00938 2.4323 8.95954 2.24882C8.90417 2.05569 8.88202 1.80944 8.89309 1.63562C8.90971 1.47629 8.98169 1.23005 9.05368 1.08037C9.13675 0.925862 9.27518 0.7617 9.38593 0.684447C9.48561 0.612022 9.63512 0.534769 9.71265 0.505799C9.79017 0.476829 10.0504 0.457516 10.2941 0.467173ZM10.0061 1.64045C9.98952 1.74668 10.0172 1.94946 10.0671 2.10397C10.1169 2.25848 10.3329 2.63991 10.5488 2.94892C10.7648 3.26276 11.1247 3.81319 11.3462 4.17049C11.5677 4.52778 11.9166 5.16029 12.1215 5.5707C12.3264 5.9811 12.5146 6.39151 12.5423 6.47359C12.5756 6.58947 12.57 6.68121 12.5091 6.80192C12.4593 6.90331 12.3541 6.99988 12.2488 7.04816C12.1381 7.09644 11.9997 7.11576 11.9 7.09644C11.8058 7.08196 11.6785 7.01919 11.612 6.96125C11.5456 6.89848 11.3407 6.54602 11.1579 6.17424L10.8202 5.49827C10.4104 5.44033 10.0338 5.42585 9.71265 5.42585C9.39147 5.42585 8.89309 5.45965 8.60514 5.49344C8.31719 5.53207 7.8908 5.61898 7.66376 5.68175C7.43672 5.74934 6.98818 5.88454 6.667 5.9811C6.25723 6.10664 5.94712 6.16941 5.62041 6.19355L5.14972 6.22252C5.65917 6.70052 5.94712 6.92745 6.11325 7.03368C6.27938 7.14473 6.5784 7.30406 6.77776 7.39097C6.97711 7.47788 7.29828 7.5841 7.49764 7.63239C7.77451 7.69998 8.05693 7.7193 8.68821 7.71447C9.2918 7.71447 9.61297 7.69033 9.85109 7.63239C10.0338 7.58893 10.2775 7.55031 10.3938 7.55031C10.5045 7.55031 10.6651 7.58893 10.7426 7.63239C10.8202 7.68067 10.9088 7.79655 10.942 7.88829C10.9863 8.01865 10.9807 8.0959 10.9143 8.22627C10.87 8.31801 10.6097 8.63185 10.3384 8.92637C10.0671 9.2209 9.7348 9.62165 9.6019 9.81961C9.469 10.0176 9.30287 10.2976 9.23088 10.4328C9.1589 10.5728 9.10906 10.6984 9.12013 10.7128C9.12567 10.7273 9.24196 10.6984 9.3804 10.6453C9.51884 10.5921 9.90093 10.4521 10.2387 10.3362C10.5765 10.2252 11.0583 10.0079 11.3185 9.85824C11.5788 9.71339 11.8944 9.49611 12.0273 9.38023C12.1879 9.23539 12.2876 9.09054 12.3374 8.92637C12.3873 8.78152 12.4703 8.65116 12.5479 8.60771C12.6143 8.56425 12.7251 8.5208 12.786 8.51597C12.8469 8.51114 12.9521 8.50631 13.0241 8.51114C13.0905 8.51114 13.2179 8.57391 13.301 8.64633C13.4006 8.73324 13.4726 8.85395 13.4948 8.97466C13.5169 9.11468 13.5834 9.21124 13.7384 9.33195C13.8547 9.42369 14.1593 9.58785 14.4196 9.68925C14.8238 9.85824 14.9788 9.89204 15.5547 9.94515C15.9202 9.98377 16.3466 10.0417 16.4961 10.0803C16.6512 10.119 16.7841 10.1431 16.8007 10.1335C16.8173 10.119 16.7342 9.94032 16.618 9.73753C16.5017 9.52991 16.2968 9.23056 16.1694 9.07122C16.0365 8.91189 15.7319 8.59805 15.4883 8.37112C15.2502 8.14419 15.0065 7.9076 14.9567 7.84C14.9013 7.77241 14.8626 7.62756 14.8626 7.51168C14.8626 7.34752 14.8902 7.28958 15.0287 7.18818C15.1284 7.11576 15.2668 7.06747 15.3775 7.06747C15.4717 7.06747 15.8039 7.11093 16.1085 7.16887C16.5017 7.24129 16.8616 7.27509 17.3544 7.27509C17.8307 7.27509 18.1685 7.25095 18.4343 7.19301C18.6502 7.14473 19.0212 7.02402 19.2649 6.92262C19.5085 6.82123 19.8796 6.62327 20.0845 6.48325L20.461 6.22252C19.7467 6.14044 19.3535 6.05353 19.1265 5.9811C18.8994 5.90868 18.5506 5.79763 18.3512 5.73969C18.1519 5.67692 17.7808 5.58518 17.5206 5.54173C17.1828 5.47896 16.8007 5.45482 16.1639 5.45482C15.6766 5.45482 14.9069 5.47413 14.4472 5.49344C13.6166 5.5369 13.6166 5.5369 13.4671 5.42102C13.373 5.3486 13.2179 5.09752 13.0629 4.77403C12.9244 4.4795 12.6586 3.99184 12.4703 3.68766C12.2876 3.38347 11.9886 2.93444 11.8058 2.69785C11.6176 2.45644 11.3573 2.14742 11.2133 2.00258C11.0749 1.86255 10.8478 1.67425 10.7094 1.58734C10.571 1.50043 10.3938 1.42318 10.3107 1.40869C10.2276 1.39421 10.1335 1.39904 10.0947 1.41835C10.0615 1.43766 10.0228 1.53906 10.0061 1.64045ZM18.7388 8.15867C18.3291 8.24558 17.9857 8.28421 17.5704 8.28904C17.1939 8.29387 16.989 8.31801 17.0111 8.34698C17.0277 8.37112 17.1219 8.49183 17.216 8.61253C17.3157 8.73324 17.4763 8.965 17.5704 9.12916C17.6645 9.29815 17.7919 9.54923 17.8528 9.68442C17.9137 9.82444 18.0134 10.1431 18.0743 10.3845C18.1352 10.6308 18.1906 10.9687 18.1962 11.1329C18.2017 11.3019 18.174 11.4854 18.1408 11.5433C18.102 11.6061 18.0079 11.693 17.9248 11.7365C17.8141 11.7944 17.7088 11.8089 17.5483 11.7847C17.3877 11.7606 17.2492 11.6882 17.0388 11.5095C16.8782 11.3792 16.6124 11.215 16.4574 11.1474C16.2469 11.0605 15.9922 11.0122 15.5547 10.9736C15.2225 10.9446 14.774 10.877 14.558 10.8239C14.342 10.7708 13.9821 10.6453 13.755 10.5439C13.528 10.4425 13.2401 10.2928 13.1182 10.2107L12.8967 10.061C12.5313 10.3604 12.2544 10.5439 12.0384 10.6646C11.828 10.7853 11.457 10.9639 11.2244 11.0653C10.9863 11.1715 10.5931 11.3164 10.3495 11.3936C10.1058 11.4709 9.76249 11.6157 9.59082 11.7123C9.41362 11.8137 9.10352 12.0455 8.89863 12.2289C8.6882 12.4076 8.4667 12.5814 8.40025 12.6152C8.32273 12.649 8.19536 12.6538 8.068 12.6297C7.94618 12.6104 7.81327 12.538 7.73021 12.451C7.60285 12.3158 7.59731 12.2821 7.63054 11.9054C7.64715 11.6882 7.70252 11.3502 7.74682 11.1571C7.79666 10.9687 7.90188 10.6453 7.9794 10.4473C8.05693 10.2493 8.21751 9.92101 8.3338 9.72305C8.45009 9.52508 8.6439 9.23056 8.76573 9.07122L8.99277 8.78152C8.02924 8.73324 7.57516 8.68013 7.3592 8.63667C7.14877 8.58839 6.78883 8.49183 6.57287 8.41457C6.35137 8.33732 6.0468 8.20696 5.89175 8.1297C5.72009 8.04279 5.58165 7.99934 5.53735 8.01865C5.49305 8.04279 5.23832 8.22144 4.97806 8.4194C4.71226 8.61736 4.31909 8.95534 4.10313 9.16779C3.88716 9.38023 3.5826 9.70373 3.42755 9.89204C3.26696 10.0755 3.03438 10.3797 2.90702 10.568C2.77966 10.7515 2.58584 11.0701 2.47509 11.2681C2.36434 11.4661 2.19821 11.8137 2.09854 12.0406C1.99886 12.2676 1.85489 12.678 1.77736 12.958C1.69984 13.2381 1.6057 13.6485 1.57247 13.8754C1.53925 14.1023 1.51156 14.5996 1.51156 14.9859C1.51156 15.3867 1.55032 15.9129 1.60016 16.2171C1.65 16.5117 1.76629 16.9655 1.85489 17.2311C1.94349 17.4966 2.07639 17.8539 2.15945 18.0277C2.23698 18.2016 2.43633 18.5685 2.59692 18.8486C2.76304 19.1286 3.08422 19.5873 3.31126 19.8722C3.54383 20.1619 3.99791 20.635 4.33017 20.9296C4.65688 21.2241 5.11096 21.6007 5.338 21.7697C5.56504 21.9338 5.94159 22.1753 6.16863 22.3105C6.39567 22.4456 6.81098 22.6629 7.08232 22.7933C7.3592 22.9285 7.84096 23.1313 8.16214 23.252C8.48332 23.3727 8.94293 23.5272 9.18658 23.5948C9.43023 23.6672 9.90646 23.7783 10.2387 23.841C10.5765 23.9086 11.1247 23.9955 11.457 24.039C11.8335 24.0873 12.4537 24.1162 13.0905 24.1162C13.7274 24.1162 14.3476 24.0873 14.7241 24.039C15.0619 23.9955 15.6101 23.9086 15.9424 23.841C16.2802 23.7783 16.7509 23.6672 16.9945 23.5948C17.2382 23.5272 17.6978 23.3727 18.019 23.252C18.3401 23.1313 18.8274 22.9285 19.0988 22.7933C19.3756 22.6629 19.7854 22.4456 20.0125 22.3105C20.2395 22.1753 20.6161 21.9338 20.8431 21.7697C21.0701 21.6007 21.5242 21.2241 21.8565 20.9296C22.1832 20.635 22.6373 20.1619 22.8698 19.8722C23.1024 19.5873 23.4623 19.0513 23.6728 18.6796C23.8832 18.3078 24.1269 17.796 24.221 17.5449C24.3151 17.2938 24.4425 16.8689 24.5034 16.6034C24.5643 16.3378 24.6308 15.8598 24.6529 15.5412C24.6806 15.2225 24.6751 14.7107 24.6529 14.4065C24.6308 14.1023 24.5588 13.6147 24.4923 13.3201C24.4259 13.0256 24.2764 12.5428 24.1601 12.2434C24.0383 11.9489 23.8167 11.4806 23.6617 11.2053C23.5066 10.935 23.263 10.5583 23.1246 10.3749C22.9917 10.1866 22.7203 9.86307 22.532 9.65062C22.3438 9.43818 21.9672 9.06639 21.6959 8.82981C21.4245 8.58839 20.9705 8.23593 20.6936 8.04279C20.4112 7.85449 20.162 7.69515 20.1398 7.69998C20.1121 7.69998 19.9239 7.77724 19.7079 7.86897C19.4919 7.96071 19.06 8.09108 18.7388 8.15867Z" fill="#555555" stroke="#555555" stroke-width="0.4"/>
<path d="M2.93479 14.7059C2.98463 14.6431 3.07877 14.5755 3.14522 14.5514C3.20613 14.5272 3.33349 14.5176 3.42763 14.532C3.51623 14.5465 3.62698 14.5803 3.67128 14.6141C3.71558 14.6479 3.78203 14.7445 3.82634 14.8314C3.8651 14.9135 3.89832 15.1356 3.89832 15.3239C3.89832 15.5122 3.94816 15.884 4.00907 16.1544C4.06999 16.4296 4.18074 16.8255 4.25826 17.0379C4.34133 17.2504 4.51299 17.6222 4.64589 17.8588C4.77879 18.0953 5.03906 18.5009 5.22733 18.752C5.46545 19.061 5.80324 19.4086 6.27393 19.819C6.65602 20.1522 7.13224 20.524 7.33159 20.6447C7.53095 20.7702 7.91857 20.9827 8.18991 21.1179C8.46125 21.2579 8.91533 21.451 9.18667 21.5524C9.45801 21.649 9.84564 21.7793 10.045 21.8325C10.2443 21.8904 10.5766 21.9676 10.7926 22.0111C11.003 22.0546 11.4238 22.1173 11.7173 22.1559C12.0163 22.1946 12.4483 22.2284 12.6753 22.2284C12.919 22.2284 13.1682 22.2573 13.2844 22.3008C13.3897 22.3394 13.5004 22.4167 13.5336 22.4698C13.5669 22.5229 13.589 22.6388 13.589 22.7209C13.5945 22.8319 13.5447 22.9236 13.445 23.0106C13.3011 23.1409 13.2734 23.1458 12.7362 23.1458C12.4317 23.1458 11.9167 23.112 11.5955 23.0733C11.2743 23.0299 10.787 22.9526 10.5157 22.8947C10.2443 22.8416 9.76811 22.7209 9.46355 22.6291C9.15898 22.5374 8.63845 22.3443 8.30066 22.2042C7.96287 22.0594 7.45342 21.8131 7.16547 21.6441C6.87752 21.48 6.45113 21.2096 6.22409 21.0406C5.99705 20.8764 5.63157 20.5819 5.41561 20.384C5.19964 20.1908 4.92277 19.9204 4.80094 19.7901C4.67912 19.6597 4.45761 19.3845 4.30256 19.1865C4.14751 18.9886 3.92047 18.6409 3.78757 18.414C3.66021 18.1871 3.49962 17.8925 3.43871 17.7622C3.37779 17.6318 3.26704 17.3469 3.19506 17.1345C3.12307 16.9221 3.01232 16.5117 2.9514 16.2171C2.89603 15.9226 2.84619 15.488 2.84619 15.2515C2.84619 14.928 2.86834 14.7879 2.93479 14.7059Z" fill="#555555"/>
<path d="M14.918 22.2767C14.9457 22.2235 15.0398 22.1463 15.1229 22.1077C15.2115 22.069 15.3223 22.0401 15.3721 22.0352C15.4275 22.0352 15.5327 22.0642 15.6102 22.098C15.6877 22.127 15.7874 22.2284 15.8317 22.3153C15.8926 22.4312 15.9037 22.5084 15.8594 22.6388C15.8206 22.7547 15.7486 22.8319 15.6213 22.885C15.5161 22.9333 15.3832 22.9526 15.289 22.9333C15.206 22.9188 15.0786 22.8512 15.0011 22.7836C14.9125 22.7064 14.8626 22.6098 14.8626 22.5181C14.8626 22.4408 14.8848 22.3298 14.918 22.2767Z" fill="#555555"/>
<path d="M2.93479 14.7059C2.98463 14.6431 3.07877 14.5755 3.14522 14.5514C3.20613 14.5272 3.33349 14.5176 3.42763 14.532C3.51623 14.5465 3.62698 14.5803 3.67128 14.6141C3.71558 14.6479 3.78203 14.7445 3.82634 14.8314C3.8651 14.9135 3.89832 15.1356 3.89832 15.3239C3.89832 15.5122 3.94816 15.884 4.00907 16.1544C4.06999 16.4296 4.18074 16.8255 4.25826 17.0379C4.34133 17.2504 4.51299 17.6222 4.64589 17.8588C4.77879 18.0953 5.03906 18.5009 5.22733 18.752C5.46545 19.061 5.80324 19.4086 6.27393 19.819C6.65602 20.1522 7.13224 20.524 7.33159 20.6447C7.53095 20.7702 7.91857 20.9827 8.18991 21.1179C8.46125 21.2579 8.91533 21.451 9.18667 21.5524C9.45801 21.649 9.84564 21.7793 10.045 21.8325C10.2443 21.8904 10.5766 21.9676 10.7926 22.0111C11.003 22.0546 11.4238 22.1173 11.7173 22.1559C12.0163 22.1946 12.4483 22.2284 12.6753 22.2284C12.919 22.2284 13.1682 22.2573 13.2844 22.3008C13.3897 22.3394 13.5004 22.4167 13.5336 22.4698C13.5669 22.5229 13.589 22.6388 13.589 22.7209C13.5945 22.8319 13.5447 22.9236 13.445 23.0106C13.3011 23.1409 13.2734 23.1458 12.7362 23.1458C12.4317 23.1458 11.9167 23.112 11.5955 23.0733C11.2743 23.0299 10.787 22.9526 10.5157 22.8947C10.2443 22.8416 9.76811 22.7209 9.46355 22.6291C9.15898 22.5374 8.63845 22.3443 8.30066 22.2042C7.96287 22.0594 7.45342 21.8131 7.16547 21.6441C6.87752 21.48 6.45113 21.2096 6.22409 21.0406C5.99705 20.8764 5.63157 20.5819 5.41561 20.384C5.19964 20.1908 4.92277 19.9204 4.80094 19.7901C4.67912 19.6597 4.45761 19.3845 4.30256 19.1865C4.14751 18.9886 3.92047 18.6409 3.78757 18.414C3.66021 18.1871 3.49962 17.8925 3.43871 17.7622C3.37779 17.6318 3.26704 17.3469 3.19506 17.1345C3.12307 16.9221 3.01232 16.5117 2.9514 16.2171C2.89603 15.9226 2.84619 15.488 2.84619 15.2515C2.84619 14.928 2.86834 14.7879 2.93479 14.7059Z" stroke="#555555" stroke-width="0.4"/>
<path d="M14.918 22.2767C14.9457 22.2235 15.0398 22.1463 15.1229 22.1077C15.2115 22.069 15.3223 22.0401 15.3721 22.0352C15.4275 22.0352 15.5327 22.0642 15.6102 22.098C15.6877 22.127 15.7874 22.2284 15.8317 22.3153C15.8926 22.4312 15.9037 22.5084 15.8594 22.6388C15.8206 22.7547 15.7486 22.8319 15.6213 22.885C15.5161 22.9333 15.3832 22.9526 15.289 22.9333C15.206 22.9188 15.0786 22.8512 15.0011 22.7836C14.9125 22.7064 14.8626 22.6098 14.8626 22.5181C14.8626 22.4408 14.8848 22.3298 14.918 22.2767Z" stroke="#555555" stroke-width="0.4"/>
</svg>
