<svg width="477" height="637" viewBox="0 0 477 637" fill="none" xmlns="http://www.w3.org/2000/svg">
<g opacity="0.5" filter="url(#filter0_f_429_320)">
<path d="M263.278 634.165C373.793 634.165 463.382 624.137 463.382 611.768C463.382 599.399 373.793 589.372 263.278 589.372C152.763 589.372 63.1735 599.399 63.1735 611.768C63.1735 624.137 152.763 634.165 263.278 634.165Z" fill="#242424"/>
<path d="M263.278 634.165C373.793 634.165 463.382 624.137 463.382 611.768C463.382 599.399 373.793 589.372 263.278 589.372C152.763 589.372 63.1735 599.399 63.1735 611.768C63.1735 624.137 152.763 634.165 263.278 634.165Z" stroke="#666464" stroke-width="5.31743" stroke-miterlimit="10"/>
</g>
<path d="M267.65 511.339L260.72 507.433C257.058 485.89 253.911 464.27 250.828 442.651C250.391 440.244 251.462 438.012 253.2 436.568C253.714 436.228 254.293 435.878 254.96 435.539C256.129 441.447 257.201 447.366 258.272 453.275C261.365 470.518 264.284 488.122 266.83 505.475C267.104 507.433 267.377 509.381 267.65 511.339Z" fill="#702F18" stroke="#702F18" stroke-width="1.06349" stroke-miterlimit="10"/>
<path d="M302.824 424.816C301.414 424.98 300.037 425.145 298.671 425.331C285.467 427.037 273.913 429.269 265.475 431.655C263.114 432.333 260.993 433.011 259.157 433.711C257.736 434.237 256.479 434.762 255.408 435.298C255.386 435.298 255.364 435.298 255.353 435.32L254.982 435.528C254.315 435.856 253.736 436.217 253.222 436.556C252.992 436.709 252.774 436.863 252.566 437.027L249.046 432.53C250.26 431.578 251.823 430.67 253.648 429.816C253.67 429.805 253.681 429.805 253.703 429.795C266.371 423.897 291.555 420.407 301.163 419.236C301.513 419.204 301.852 419.16 302.158 419.127L302.835 424.805L302.824 424.816Z" fill="#521908"/>
<path d="M298.671 425.342C297.884 428.405 297.141 431.469 296.375 434.532C295.501 438.066 294.648 441.611 293.84 445.156C284.439 440.561 274.963 436.075 265.475 431.666C273.913 429.281 285.467 427.049 298.671 425.342Z" fill="#823919"/>
<path d="M298.671 425.342C297.884 428.405 297.141 431.469 296.375 434.532C295.501 438.066 294.648 441.611 293.84 445.156C284.439 440.561 274.963 436.075 265.475 431.666C273.913 429.281 285.467 427.049 298.671 425.342Z" fill="#823919"/>
<path d="M249.473 403.875L274.416 451.545L296.343 449.007L276.996 403.798L249.473 403.875Z" fill="#666464" stroke="#666464" stroke-width="5.31743" stroke-miterlimit="10"/>
<path d="M290.932 523.757C289.303 523.287 287.697 522.619 286.166 521.755L272.569 514.107C267.399 487.969 263.048 461.524 259.343 435.156C259.704 435.243 260.043 435.386 260.37 435.55C263.42 436.972 266.491 438.351 269.574 439.707H269.585C268.164 471.874 271.913 502.477 290.932 523.757Z" fill="#702F18" stroke="#702F18" stroke-width="1.06349" stroke-miterlimit="10"/>
<path d="M318.816 49.5464C318.805 48.2115 317.537 46.5485 316.925 45.4106C314.553 41.428 312.017 37.5111 309.252 33.8021C305.568 28.8676 301.524 24.2395 296.933 20.3664C294.211 18.0797 291.358 15.8258 287.904 14.8958C267.814 8.16699 246.248 6.79934 225.131 7.77311C223.677 7.76216 222.485 8.72498 221.513 9.72063L219.753 11.329C218.736 12.2918 214.801 15.9024 212.571 17.9702C212.571 17.9702 212.564 17.9775 212.55 17.9921C212.44 18.1234 212.32 18.2547 212.189 18.3641C212.014 18.5173 211.828 18.6705 211.653 18.8237C211.577 18.8893 211.5 18.9549 211.446 19.0097C211.336 19.1081 211.238 19.1956 211.172 19.2613C211.172 19.2613 211.172 19.2613 211.172 19.2504H211.161C207.128 22.7187 202.712 26.0886 197.564 27.8391C191.946 29.8414 185.77 29.546 180.141 28.0908C179.255 27.872 178.72 26.9748 178.938 26.0886C179.157 25.2461 179.977 24.7209 180.818 24.8632C185.879 25.64 191.137 25.4321 195.76 23.2548C199.149 21.7012 202.089 19.2613 204.909 16.4713C204.8 16.4166 204.691 16.3728 204.603 16.3291C203.39 15.9024 202.209 15.049 200.941 14.9286C199.816 14.7207 198.58 15.2131 197.531 15.5741C192.754 17.2044 176.61 22.664 171.691 24.3489C169.735 24.9726 167.909 26.5153 166.335 27.7954L162.466 30.9355L160.531 32.5001C158.925 33.7145 157.853 34.6226 157.482 36.4826C156.618 41.5922 151.71 69.6233 147.48 93.8361C173.254 85.7068 206.396 81.4835 250.85 80.6082H250.861C262.36 75.1377 273.87 69.6562 286.352 66.7239C297.436 64.2622 308.803 62.8836 320.204 62.6757C319.745 58.2336 319.198 53.0694 318.827 49.5464H318.816ZM295.414 56.1767C291.828 56.6909 288.189 56.5377 284.647 56.0782C270.722 53.89 258.239 47.0299 246.019 40.5527L241.504 38.08C234.782 34.6992 228.235 27.5328 230.618 19.4364C231.088 17.5435 231.864 15.8258 232.782 14.2393C233.263 13.375 234.356 13.0796 235.219 13.5719C236.028 14.0424 236.334 15.0599 235.941 15.8914C231.809 24.2942 236.269 29.9398 243.876 33.6489C248.281 35.9137 253.113 38.463 257.507 40.6512C269.388 46.4281 281.63 52.8068 295.086 52.4458C296.113 52.402 296.988 53.2116 297.02 54.251C297.053 55.2139 296.343 56.0345 295.414 56.1767Z" fill="#823919" stroke="#823919" stroke-width="1.06349" stroke-miterlimit="10"/>
<path d="M212.571 17.9708C212.571 17.9708 212.56 17.9818 212.55 17.9927C212.44 18.124 212.32 18.2553 212.189 18.3647C212.014 18.5179 211.828 18.6711 211.653 18.8243C211.577 18.8899 211.5 18.9555 211.446 19.0102C211.347 19.0868 211.26 19.1744 211.161 19.251H211.15C207.117 22.7193 202.701 26.0892 197.553 27.8397C191.935 29.842 185.759 29.5466 180.13 28.0914C179.244 27.8726 178.709 26.9754 178.927 26.0892C179.146 25.2467 179.966 24.7215 180.807 24.8638C185.868 25.6406 191.126 25.4327 195.749 23.2554C199.138 21.7018 202.078 19.2619 204.898 16.4719C205.816 15.5529 206.724 14.601 207.642 13.6272C208.888 12.3033 210.965 12.2377 212.287 13.485C213.566 14.6666 213.654 16.6688 212.571 17.9708Z" fill="#521908"/>
<path d="M297.02 54.2515C297.053 55.2144 296.343 56.035 295.414 56.1772C291.828 56.6914 288.189 56.5382 284.647 56.0787C270.722 53.8905 258.239 47.0304 246.019 40.5532L241.504 38.0806C234.782 34.6997 228.235 27.5333 230.618 19.4369C231.088 17.544 231.864 15.8263 232.782 14.2398C233.263 13.3755 234.356 13.0801 235.219 13.5724C236.028 14.0429 236.334 15.0604 235.941 15.8919C231.809 24.2947 236.269 29.9403 243.876 33.6494C248.281 35.9142 253.113 38.4635 257.507 40.6517C269.388 46.4286 281.63 52.8073 295.086 52.4463C296.113 52.4025 296.988 53.2121 297.02 54.2515Z" fill="#521908"/>
<path d="M152.694 289.781L113.519 300.81C105.114 303.173 101.212 312.845 105.595 320.395L123.149 350.581L142.256 344.301L129.707 320.515C128.024 317.32 130.057 313.425 133.631 312.987L155.252 310.318L152.694 289.792V289.781Z" fill="#666464" stroke="#666464" stroke-width="5.31743" stroke-miterlimit="10"/>
<path d="M252.916 87.1404C246.937 87.2388 241.155 87.403 235.58 87.6218H235.569C197.586 89.1535 168.817 93.519 146.191 101.145C145.294 101.451 144.42 101.758 143.545 102.064L141.348 95.8823C143.338 95.1712 145.382 94.4928 147.469 93.8473C173.243 85.7071 206.385 81.4838 250.839 80.6085H250.85C251.495 80.5976 252.151 80.5866 252.807 80.5757L252.916 87.1404Z" fill="#521908"/>
<path d="M183.147 433.307C175.003 437.333 167.418 442.399 160.433 448.056L155.591 437.793C162.892 426.83 173.189 427.53 183.147 433.307Z" fill="#823919" stroke="#823919" stroke-width="1.06349" stroke-miterlimit="10"/>
<path d="M190 432.639C189.497 432.027 188.962 431.436 188.404 430.867C183.453 425.746 176.698 422.409 169.341 422.344C160.706 422.147 153.23 428.777 151.098 436.72C151.098 436.731 150.902 437.388 150.694 438.055C150.519 438.679 150.322 439.313 150.279 439.456L150.792 437.913L151.109 438.58C151.273 438.952 151.732 439.915 152.333 441.206H152.344C152.771 442.114 153.273 443.186 153.82 444.324C155.164 447.158 156.706 450.408 157.711 452.574L157.766 452.683C158.312 453.843 158.706 454.664 158.826 454.937L160.826 453.395L160.979 453.274C169.746 446.534 179.343 440.878 189.399 436.184L188.47 434.193L190 432.639ZM160.477 448.176L160.422 448.055L155.58 437.793C162.881 426.829 173.178 427.53 183.136 433.307C183.453 433.482 183.77 433.679 184.087 433.876C175.834 437.946 167.898 442.683 160.477 448.176Z" fill="#521908"/>
<path d="M163.526 358.557C161.723 354.312 158.52 350.811 154.454 348.634L147.775 345.067L146.464 344.356L143.709 342.89C139.435 340.603 134.32 340.384 129.937 342.441C122.22 346.084 115.99 351.708 111.038 359.05C108.841 362.31 108.382 366.457 109.737 370.144C112.918 378.831 117.236 385.954 123.04 390.987L109.103 392.026C106.863 392.19 104.83 393.525 103.933 395.582C101.222 401.851 102.272 410.418 107.835 414.127C118.055 418.405 129.434 420.331 142.07 419.707C142.682 419.685 143.305 419.653 143.928 419.609C144.081 419.609 144.245 419.587 144.398 419.576C146.999 419.379 149.546 418.58 151.798 417.267C164.117 410.079 172.85 402.672 179.102 395.112L163.526 358.557ZM150.421 414.904C149.218 415.604 147.928 416.13 146.584 416.469C156.651 403.066 149.666 390.735 143.447 379.739C136.692 367.824 130.822 357.463 146.048 347.233L153.164 351.041C156.662 352.923 159.46 355.964 161.012 359.63L175.932 394.63C169.56 401.972 161.198 408.613 150.421 414.904Z" fill="#BBBBBB"/>
<path d="M166.04 357.485C163.996 352.682 160.335 348.677 155.733 346.215L144.999 340.471C139.927 337.758 133.861 337.572 128.778 339.968C120.832 343.71 114.11 349.618 108.775 357.529C106.108 361.478 105.507 366.555 107.169 371.085C109.803 378.262 113.027 384.072 116.951 388.7L108.896 389.291C105.584 389.542 102.72 391.534 101.43 394.499C98.3478 401.599 99.3315 411.742 106.327 416.403L106.786 416.654C116.154 420.582 126.483 422.563 137.577 422.563C139.884 422.552 142.223 422.475 144.595 422.3C147.59 422.081 150.552 421.162 153.175 419.63C165.133 412.65 174.304 405.199 181.212 396.851L182.272 395.571L166.04 357.485ZM146.584 416.468C145.797 416.654 144.999 416.786 144.201 416.84C143.95 416.862 143.687 416.873 143.436 416.895C130.932 417.705 119.411 415.954 109.158 411.72C104.928 408.689 104.327 401.556 106.447 396.676C106.906 395.604 108.032 394.849 109.3 394.75L129.806 393.229L124.832 388.919C119.608 384.4 115.509 377.945 112.306 369.203C111.913 368.12 111.716 366.982 111.716 365.855C111.716 363.984 112.251 362.146 113.301 360.581C118.077 353.502 124.067 348.24 131.096 344.913C134.637 343.25 138.867 343.404 142.42 345.296L143.873 346.073L146.048 347.233L153.164 351.04C156.662 352.922 159.46 355.964 161.012 359.629L175.932 394.63C169.56 401.971 161.198 408.613 150.421 414.904C149.218 415.604 147.928 416.129 146.584 416.468Z" fill="#666464"/>
<path d="M175.932 394.63C169.56 401.971 161.198 408.613 150.421 414.904C149.218 415.604 147.928 416.129 146.584 416.468C156.651 403.066 149.666 390.735 143.447 379.739C136.692 367.824 130.822 357.463 146.048 347.233L153.164 351.04C156.662 352.922 159.46 355.964 161.012 359.629L175.932 394.63Z" fill="#8E8E8E"/>
<path d="M223.436 401.567L198.493 445.944L172.61 442.946L195.913 398.208L223.436 401.567Z" fill="#666464" stroke="#666464" stroke-width="5.31743" stroke-miterlimit="10"/>
<path d="M316.05 266.651C315.231 263.38 312.881 260.24 309.907 258.03C308.924 258.26 307.94 258.5 306.967 258.73C256.108 270.864 210.495 275.667 171.178 273.03C165.92 274.496 161.843 276.345 158.728 278.654C156.192 280.536 154.826 283.731 155.143 286.991C158.411 319.705 163.592 348.053 170.587 371.544C170.751 372.091 170.915 372.638 171.079 373.185C171.243 373.732 171.407 374.279 171.582 374.826C172.795 378.732 174.063 382.507 175.386 386.129C176.621 389.531 179.605 391.993 183.168 392.562C190.186 393.678 197.925 394.728 206.057 395.669C206.603 395.735 207.161 395.801 207.707 395.855C208.254 395.921 208.811 395.987 209.358 396.041C231.525 398.492 256.151 400.057 276.34 399.717C276.952 399.707 277.564 399.696 278.154 399.685C279.313 399.663 280.461 399.63 281.587 399.586C282.057 399.116 282.537 398.612 282.997 398.076C283.434 397.562 283.893 397.015 284.319 396.435C288.276 391.238 291.675 383.82 294.714 374.826C294.9 374.279 295.075 373.732 295.25 373.185C295.435 372.638 295.599 372.091 295.774 371.544C301.874 352.255 306.519 326.598 311.317 300.131C312.87 291.564 314.476 282.713 316.116 274.146C316.63 271.476 316.597 268.96 316.018 266.651H316.05Z" fill="#BBBBBB" stroke="#BBBBBB" stroke-width="1.06349" stroke-miterlimit="10"/>
<path d="M357.149 265.36C348.929 254.748 337.999 250.152 321.778 250.513H321.45L321.133 250.601C264.393 265.711 213.97 271.87 171.265 268.894L170.806 268.862L170.358 268.993C164.259 270.667 159.482 272.833 155.755 275.634C151.71 278.654 149.524 283.731 150.038 288.884C153.033 319.191 157.657 345.832 163.843 368.426C164.248 369.936 164.674 371.424 165.1 372.901C165.188 373.207 165.275 373.524 165.363 373.831C167.232 373.732 169.101 373.645 170.981 373.557L170.784 372.901C170.325 371.347 169.877 369.772 169.429 368.163C163.166 345.636 158.487 318.895 155.471 288.348C155.154 285.087 156.509 281.893 159.023 280.011C162.116 277.702 166.15 275.853 171.363 274.387C210.342 277.024 255.55 272.221 305.962 260.087C306.934 259.857 307.907 259.616 308.88 259.387C313.285 258.303 317.734 257.166 322.215 255.973C336.556 255.732 345.738 259.551 352.831 268.708C355.99 272.789 357.357 278.118 356.57 283.337C351.859 314.574 342.939 341.719 329.943 364.4C328.795 366.413 327.615 368.382 326.391 370.319C328.817 370.045 331.069 369.772 333.058 369.531L333.288 369.498C334.446 367.562 335.572 365.603 336.654 363.601C348.918 341.062 357.4 314.475 361.969 284.146C362.975 277.461 361.226 270.612 357.149 265.36ZM304.06 396.457C303.207 396.949 302.322 397.398 301.425 397.792C299.895 398.47 298.31 399.017 296.671 399.433C295.042 399.86 293.37 400.144 291.654 400.297C288.287 400.593 284.658 400.812 280.832 400.943C279.717 400.987 278.581 401.02 277.433 401.041C276.843 401.052 276.242 401.063 275.629 401.074C255.725 401.413 231.448 399.86 209.576 397.431H209.544C207.576 397.398 205.609 397.354 203.641 397.311C198.285 397.201 192.929 397.059 187.552 396.895C183.627 396.774 179.703 396.654 175.768 396.512C176.413 396.993 177.091 397.42 177.812 397.792C179.233 398.536 180.775 399.05 182.403 399.313C182.666 399.357 182.917 399.4 183.179 399.433C186.732 400.002 190.47 400.549 194.35 401.074C199.16 401.72 204.177 402.333 209.325 402.901C229.35 405.112 251.331 406.589 270.263 406.589C278.22 406.589 285.642 406.337 292.134 405.757C296.944 405.319 301.546 403.974 305.677 401.807C306.136 401.578 306.585 401.326 307.033 401.074C307.918 400.56 308.782 400.013 309.612 399.433C310.345 398.919 311.066 398.372 311.755 397.792C312.64 397.081 313.482 396.315 314.291 395.505C310.924 395.877 307.514 396.184 304.06 396.457Z" fill="#666464"/>
<path d="M296.583 396.96C299.097 396.818 301.578 396.654 304.049 396.457C303.196 396.949 302.311 397.398 301.414 397.792C299.884 398.47 298.299 399.017 296.66 399.433C295.031 399.86 293.359 400.144 291.643 400.297C288.276 400.593 284.647 400.812 280.821 400.943C281.291 400.472 281.761 399.969 282.22 399.433C282.658 398.919 283.106 398.372 283.532 397.792C283.609 397.693 283.674 397.595 283.751 397.496L284.964 397.464C286.757 397.409 288.538 397.354 290.309 397.278C292.408 397.19 294.506 397.081 296.583 396.96Z" fill="#8E8E8E"/>
<path d="M356.559 283.337C351.432 317.342 341.311 346.489 326.38 370.319C325.768 370.384 325.145 370.461 324.511 370.537C323.942 370.603 323.352 370.669 322.762 370.723C322.139 370.8 321.505 370.866 320.871 370.931C320.237 370.997 319.603 371.063 318.958 371.128C317.668 371.26 316.356 371.391 315.034 371.511C314.378 371.577 313.711 371.642 313.055 371.697C312.389 371.752 311.722 371.807 311.055 371.861C310.388 371.916 309.722 371.971 309.066 372.014C309.022 372.014 308.989 372.014 308.946 372.014C308.322 372.069 307.699 372.113 307.087 372.146C306.3 372.2 305.524 372.244 304.748 372.299C304.213 372.332 303.688 372.354 303.163 372.375C301.884 372.441 300.617 372.496 299.37 372.529C298.922 372.54 298.485 372.551 298.048 372.562H297.971C297.611 372.572 297.261 372.572 296.911 372.572C296.255 372.583 295.621 372.583 294.998 372.572C300.999 353.327 305.568 327.801 310.301 301.477C311.842 292.91 313.427 284.059 315.056 275.492C315.569 272.822 315.537 270.306 314.957 267.997C314.148 264.726 311.82 261.586 308.869 259.375C313.274 258.292 317.723 257.154 322.204 255.962C336.545 255.721 345.727 259.54 352.821 268.697C355.979 272.778 357.346 278.107 356.559 283.326V283.337Z" fill="#8E8E8E"/>
<path d="M362.636 103.979C360.428 102.622 358.133 101.309 355.761 100.04C350.11 97.0094 343.704 95.5324 337.255 95.7512C263.333 98.2129 195.564 114.592 131.347 138.991C122.657 142.295 115.64 148.816 111.814 157.109C105.846 170.074 103.146 182.613 102.578 194.878C100.774 233.992 113.607 266.378 170.915 270.984C207.795 273.96 253.812 268.621 305.317 257.297C306.06 257.133 306.803 256.969 307.546 256.805C307.743 256.761 307.94 256.728 308.126 256.684C322.849 253.61 335.922 249.966 347.41 245.776C410.599 222.712 419.748 139.001 362.636 103.979ZM346.481 243.205C336.512 246.837 325.243 250.076 312.87 252.855C356.974 216.476 348.525 196.902 329.353 152.536C324.139 140.468 327.833 126.211 338.141 118.629C349.443 110.325 363.51 110.872 376.747 120.128L377.338 119.275C392.367 134.975 399.734 156.004 397.482 178.466C394.52 207.996 374.977 232.8 346.481 243.205Z" fill="#BBBBBB"/>
<path d="M364.068 101.649C361.827 100.27 359.477 98.9244 357.051 97.6224C355.269 96.6705 353.411 95.8609 351.509 95.1935L359.74 105.423C360.231 105.719 360.723 106.014 361.204 106.31C365.697 109.067 369.817 112.163 373.545 115.555C374.867 116.758 376.135 118.006 377.338 119.275C392.367 134.975 399.734 156.004 397.483 178.466C394.52 207.997 374.977 232.8 346.481 243.205C336.512 246.838 325.243 250.076 312.87 252.855C311.317 253.205 309.733 253.544 308.137 253.884C307.743 253.971 307.35 254.048 306.945 254.135C252.096 266.346 206.396 271.105 171.134 268.26C123.444 264.42 103.146 241.837 105.31 195.009C105.901 182.132 108.841 170.107 114.295 158.258C115.29 156.103 116.503 154.09 117.924 152.241C116.132 152.011 114.427 151.715 112.82 151.354L113.148 149.472C111.672 151.486 110.393 153.652 109.333 155.961C103.583 168.466 100.479 181.158 99.8452 194.758C98.7959 217.57 102.895 234.824 112.393 247.516C123.914 262.91 142.977 271.488 170.697 273.709C177.43 274.256 184.535 274.53 192.011 274.53C224.234 274.53 263.169 269.486 308.093 259.485C323.035 256.389 336.578 252.636 348.35 248.347C378.846 237.22 399.756 210.655 402.926 179.013C406.085 147.426 391.558 118.509 364.068 101.649ZM160.039 125.851L312.924 94.3291C262.404 98.1147 211.97 108.52 160.039 125.851Z" fill="#666464"/>
<path d="M397.482 178.466C394.52 207.996 374.977 232.8 346.481 243.205C336.512 246.837 325.243 250.076 312.87 252.855C356.974 216.476 348.525 196.902 329.353 152.536C324.139 140.468 327.833 126.211 338.141 118.629C349.443 110.325 363.511 110.872 376.747 120.128L377.338 119.275C392.367 134.975 399.734 156.004 397.482 178.466Z" fill="#8E8E8E"/>
<path d="M318.849 310.799C311.897 301.521 321.472 289.125 334.031 294.158C335.441 294.726 336.753 295.503 337.988 296.39L364.396 315.263C368.528 318.217 374.058 318.305 378.278 315.471L398.313 302.046L418.589 318.567L380.857 338.349C376.004 340.57 370.451 340.646 365.511 338.622C349.388 332.025 334.567 323.666 321.275 313.173C320.379 312.473 319.537 311.685 318.859 310.777L318.849 310.799Z" fill="#666464" stroke="#666464" stroke-width="5.31743" stroke-miterlimit="10"/>
<path d="M123.532 207.307C125.827 225.568 136.637 240.59 153.907 246.465C165.1 250.273 177.419 249.419 188.142 244.43C203.007 237.505 203.062 227.986 219.447 225.622C247.265 223.566 241.483 236.859 267.158 238.402C278.154 239.058 289.194 236.378 298.288 230.141C316.597 217.603 320.86 196.793 311.208 168.86C308.771 161.792 302.901 156.278 295.435 153.531C265.377 142.076 193.782 150.905 145.469 169.199C129.62 175.195 121.564 191.661 123.532 207.318V207.307Z" fill="#666464" stroke="#666464" stroke-width="5.31743" stroke-miterlimit="10"/>
<path d="M198.023 434.149C197.618 443.449 197.116 452.749 196.58 462.038C196.449 464.358 196.307 466.677 196.165 468.997C193.924 459.292 191.038 448.975 187.442 438.023C188.71 437.454 189.978 436.917 191.257 436.414C193.454 435.594 195.728 434.675 198.023 434.149Z" fill="#702F18" stroke="#702F18" stroke-width="1.06349" stroke-miterlimit="10"/>
<path d="M196.165 468.997C194.438 497.63 192.437 526.887 189.617 555.367L181.977 559.666C178.468 561.745 174.446 562.894 170.369 562.752C150.639 561.537 156.345 543.878 163.974 532.182C166.281 528.67 164.925 523.561 161.242 521.569L160.772 521.515C160.039 521.394 159.252 521.285 158.433 521.208C152.312 520.519 144.245 520.432 140.288 516.329C144.704 492.838 150.279 463.166 153.689 445.025C155.11 447.695 156.618 450.529 157.711 452.575L157.766 452.684C158.312 453.844 158.706 454.664 158.826 454.938L160.826 453.395C163.275 451.699 165.767 449.982 168.237 448.417C174.38 444.533 180.807 440.944 187.442 438.023C191.038 448.975 193.924 459.293 196.165 468.997Z" fill="#823919" stroke="#823919" stroke-width="1.06349" stroke-miterlimit="10"/>
<path d="M202.559 430.78C202.461 431.819 202.362 432.87 202.275 433.909C199.007 469.402 196.427 505.475 194.547 541.066C194.361 545.005 194.175 548.955 194.011 552.894C193.968 554.207 193.913 555.531 193.869 556.843L189.508 556.548C189.552 556.154 189.585 555.76 189.628 555.366C192.678 524.578 194.766 492.882 196.591 462.039C197.127 452.75 197.629 443.45 198.034 434.15C198.099 432.924 198.143 431.71 198.198 430.484L202.559 430.78Z" fill="#521908"/>
<path d="M359.74 105.423C358.045 104.417 356.275 103.41 354.471 102.447C349.257 99.6571 343.322 98.2786 337.343 98.4864C269.716 100.74 202.647 114.822 132.309 141.551C126.494 143.761 121.542 147.459 117.924 152.24C116.132 152.01 114.427 151.715 112.82 151.354L113.148 149.472C114.558 147.546 116.143 145.774 117.881 144.155C121.444 140.851 125.674 138.225 130.374 136.43C140.321 132.656 150.213 129.122 160.039 125.85L312.924 94.3288C321.002 93.7271 329.08 93.2894 337.168 93.0159C342.054 92.8736 346.929 93.6067 351.498 95.1932H351.509L359.74 105.423Z" fill="#666464"/>
<path d="M130.374 136.43C125.674 138.225 121.444 140.85 117.881 144.155C116.143 145.774 114.558 147.546 113.148 149.472L115.662 134.997L160.039 125.85C150.213 129.121 140.321 132.655 130.374 136.43Z" fill="#8E8E8E"/>
<path d="M337.168 93.0159C329.079 93.2894 321.002 93.727 312.924 94.3288L345.421 87.6328L351.498 95.1931C346.929 93.6067 342.054 92.8736 337.168 93.0159Z" fill="#8E8E8E"/>
<path d="M342.71 130.949C339.857 99.6898 178.785 160.249 117.913 152.24C121.531 147.459 126.483 143.761 132.298 141.551C202.636 114.821 269.705 100.74 337.332 98.4863C343.311 98.2784 349.246 99.657 354.46 102.447C356.264 103.41 365.959 109.088 367.653 110.084L342.699 130.938L342.71 130.949Z" fill="#8E8E8E"/>
<path d="M303.131 486.218C302.693 488.275 303.087 490.376 304.234 492.137C309.94 500.847 312.618 509.928 311.252 515.88C310.618 518.604 309.219 520.584 306.956 521.919C302.201 524.72 296.386 525.333 290.932 523.757C271.913 502.477 268.164 471.874 269.585 439.718C278.657 443.723 287.817 447.563 296.791 451.732C299.13 444.171 301.83 435.079 303.896 427.574C310.771 441.381 318.575 456.754 326.117 471.349C322.335 475.89 315.526 478.308 307.142 480.945L306.858 481.032L306.585 481.207C304.803 482.345 303.579 484.128 303.131 486.218Z" fill="#823919" stroke="#823919" stroke-width="1.06349" stroke-miterlimit="10"/>
<path d="M272.787 515.202L268.273 515.957C268.076 514.414 267.869 512.882 267.661 511.339C267.388 509.381 267.115 507.433 266.841 505.475C264.294 488.122 261.376 470.518 258.283 453.286C257.212 447.378 256.129 441.447 254.971 435.55C254.971 435.528 254.971 435.517 254.96 435.495C254.763 434.489 254.566 433.493 254.37 432.487L258.873 431.743C258.96 432.41 259.059 433.067 259.157 433.734C259.212 434.215 259.277 434.686 259.365 435.167C263.07 461.535 267.421 487.98 272.58 514.118C272.645 514.48 272.733 514.852 272.798 515.213L272.787 515.202Z" fill="#521908"/>
<path d="M179.966 128.443L168.893 138.312C164.237 142.458 162.105 148.761 163.297 154.888L165.057 163.958" stroke="#666464" stroke-width="3.19046" stroke-miterlimit="10"/>
<path d="M420.273 137.131C419.584 145.566 415.234 152.437 409.113 158.105C407.134 159.987 404.981 161.715 402.729 163.302C396.138 137.787 378.77 114.997 355.028 103.246C354.701 103.082 354.373 102.929 354.045 102.775C361.554 103.596 368.976 105.095 376.234 107.491C377.185 107.83 378.245 107.371 378.649 106.43C379.076 105.445 378.616 104.296 377.633 103.88C360.406 96.6046 341.376 95.5542 322.958 96.145C258.687 99.2195 197.87 122.338 136.921 140.446C128.232 142.875 119.455 144.899 110.59 146.299C94.6642 148.75 70.2783 150.643 56.9977 140.38C55.8063 139.177 56.0577 137.218 56.0358 135.73L56.0577 132.524C56.1124 131.671 56.6589 130.905 57.4021 130.5L58.8559 129.603L64.6491 126.014C68.2343 123.804 77.0115 118.356 80.6076 116.134C82.4876 114.843 84.7393 113.99 87.0019 114.11C102.228 114.986 117.083 120.511 130.341 128.268C116.033 131.244 96.3366 133.815 86.1056 124.526C85.4826 123.914 84.477 123.903 83.843 124.504C83.1981 125.128 83.1762 126.146 83.7884 126.802C87.2096 130.391 91.8004 132.426 96.3366 133.597C100.906 134.767 105.573 135.106 110.175 135.139C119.039 135.194 127.762 133.947 136.331 131.988C137.894 131.627 139.468 131.244 141.02 130.839C148.606 128.881 156.072 126.441 163.417 123.936C197.586 112.415 230.683 98.005 263.518 83.2126C275.509 77.4904 287.817 73.7485 301.021 72.3918C331.32 68.6281 363.008 72.742 390.083 87.2937C397.45 91.2325 405.025 95.5761 410.282 102.195C418.283 111.681 421.355 124.833 420.273 137.131Z" fill="#823919" stroke="#823919" stroke-width="1.06349" stroke-miterlimit="10"/>
<path d="M238.925 86.4733C221.513 94.3072 204.1 102.064 186.404 109.242C170.697 115.577 154.793 121.605 138.627 126.715C139.643 120.938 141.272 111.583 143.13 100.948C167.385 92.7754 198.209 88.0926 238.925 86.4624V86.4733Z" fill="#521908"/>
<path d="M423.213 152.175C417.376 162.011 408.02 168.444 398.259 173.762C394.182 146.42 377.491 120.719 352.646 108.049C346.874 105.095 340.666 102.929 334.326 101.977C332.173 101.66 330.02 101.474 327.855 101.441C326.478 101.419 325.385 100.292 325.407 98.9243C325.429 97.5566 326.544 96.4735 327.888 96.4735C337.048 96.4844 345.956 98.9243 354.045 102.776C354.373 102.929 354.701 103.082 355.028 103.246C378.77 114.997 396.138 137.787 402.729 163.302C404.981 161.715 407.134 159.987 409.113 158.105C415.234 152.437 419.584 145.566 420.273 137.131C421.355 124.833 418.283 111.682 410.282 102.196C405.025 95.5763 397.45 91.2327 390.083 87.2939C363.008 72.7422 331.32 68.6283 301.021 72.392C287.817 73.7487 275.509 77.4906 263.518 83.2128C230.683 98.0052 197.586 112.415 163.417 123.936C156.072 126.441 148.606 128.881 141.02 130.84C139.468 131.244 137.894 131.627 136.331 131.988C127.762 133.947 119.039 135.194 110.175 135.139C105.573 135.107 100.906 134.767 96.3366 133.597C91.8004 132.426 87.2096 130.391 83.7884 126.802C83.1762 126.146 83.1981 125.128 83.843 124.505C84.477 123.903 85.4826 123.914 86.1056 124.527C96.3366 133.816 116.033 131.244 130.341 128.268C131.97 127.929 133.533 127.59 134.998 127.251C135.413 127.163 135.817 127.065 136.211 126.977C137.217 126.671 138.222 126.376 139.228 126.058C140.146 125.774 141.075 125.489 141.993 125.183C157.077 120.413 171.91 114.789 186.568 108.881C203.073 102.185 219.326 94.9417 235.569 87.633H235.58C235.678 87.5783 235.788 87.5346 235.886 87.4908C240.925 85.3354 245.877 82.9721 250.839 80.6088H250.85C262.349 75.1383 273.859 69.6568 286.341 66.7245C297.425 64.2628 308.793 62.8842 320.193 62.6763C322.39 62.6435 324.587 62.6544 326.784 62.6982C353.64 63.2781 380.3 70.4226 403.057 85.0181C416.589 93.2568 425.978 107.819 427.749 123.597C428.951 133.312 428.35 143.509 423.213 152.175Z" fill="#521908"/>
<path d="M378.649 106.43C378.245 107.371 377.185 107.83 376.234 107.491C368.976 105.095 361.554 103.596 354.045 102.775C347.519 102.053 340.928 101.835 334.326 101.977C321.647 102.228 308.902 103.793 296.485 105.565C247.363 113.509 199.225 127.218 151.492 141.66C138.375 145.752 125.062 149.428 111.432 151.573C93.4181 154.21 72.7595 155.818 56.2217 146.54C51.8822 144.1 50.2427 140.708 50.5597 135.73V134.023L50.5487 133.17C50.4285 130.632 51.5106 128.071 53.5 126.485C54.0137 126.047 55.3144 125.281 55.9156 124.887L61.6869 121.255C64.1353 119.701 74.0056 113.52 76.1261 112.174L77.5689 111.266C80.378 109.34 83.7228 108.191 87.1877 108.312C104.491 109.176 120.843 115.117 135.599 123.837C138.812 105.434 149.47 44.0763 150.169 40.2031L151.022 35.2906C151.503 32.0739 153.918 29.1198 156.4 27.3911C158.575 25.6295 162.007 22.8505 164.193 21.089C166.368 19.3056 169.188 18.2005 171.833 17.358C175.266 16.1873 192.35 10.3995 195.411 9.36007C196.252 9.08654 197.356 8.64889 198.263 8.5176C200.974 7.97054 203.849 8.63795 206.254 9.89618C206.691 10.0822 208.451 10.8699 209.904 11.5045L215.282 6.53725L217.031 4.91797C219.064 2.81727 221.84 1.28551 224.814 1.21986C247.549 0.191398 270.842 1.72316 292.451 9.54607C295.72 10.9137 298.496 13.1238 301.163 15.3449C310.618 23.4304 317.613 33.54 323.789 44.1529C324.838 45.8925 325.319 47.9713 325.462 49.9845C325.625 51.4944 326.03 55.5316 326.205 57.0853L326.784 62.6981L327.189 66.5494C327.484 70.893 321.253 71.5166 320.663 67.2277C320.532 65.8929 320.368 64.3393 320.193 62.6762C319.734 58.2341 319.187 53.0699 318.816 49.5468C318.805 48.212 317.537 46.549 316.925 45.4111C314.553 41.4285 312.017 37.5116 309.252 33.8026C305.568 28.8681 301.524 24.24 296.933 20.3668C294.211 18.0801 291.358 15.8263 287.904 14.8963C267.814 8.16748 246.248 6.79984 225.131 7.7736C223.677 7.76266 222.485 8.72548 221.513 9.72112L219.753 11.3295C218.736 12.2923 214.801 15.9029 212.571 17.9707C212.571 17.9707 212.564 17.978 212.55 17.9926C212.211 18.3099 211.894 18.5834 211.653 18.8241C211.577 18.8898 211.5 18.9554 211.446 19.0101C211.336 19.1086 211.238 19.1961 211.172 19.2618C211.172 19.2618 211.172 19.2618 211.172 19.2509H211.161C209.948 18.6929 206.45 17.1611 204.909 16.4718C204.8 16.4171 204.691 16.3733 204.603 16.3296C203.39 15.9029 202.209 15.0495 200.941 14.9291C199.816 14.7212 198.58 15.2136 197.531 15.5746C192.754 17.2049 176.61 22.6645 171.691 24.3494C169.735 24.9731 167.909 26.5158 166.335 27.7959L162.466 30.936L160.531 32.5006C158.925 33.715 157.853 34.6231 157.482 36.4831C156.618 41.5926 151.71 69.6238 147.48 93.8365C147.043 96.3311 146.617 98.771 146.201 101.145C144.474 111.069 142.955 119.789 142.004 125.183C141.665 127.185 141.392 128.728 141.228 129.713C141.228 129.713 141.141 130.183 141.031 130.839C139.479 131.244 137.905 131.627 136.342 131.988C134.386 130.697 132.396 129.461 130.352 128.268C117.094 120.511 102.239 114.986 87.0129 114.11C84.7502 113.99 82.4986 114.844 80.6185 116.135C77.0224 118.356 68.2452 123.804 64.66 126.014L58.8668 129.603L57.4131 130.5C56.6698 130.905 56.1233 131.671 56.0686 132.524L56.0468 135.73C56.0686 137.218 55.8172 139.177 57.0087 140.38C70.2892 150.643 94.6751 148.75 110.601 146.299C119.465 144.899 128.243 142.875 136.932 140.446C197.881 122.338 258.698 99.2196 322.969 96.1451C341.387 95.5543 360.417 96.6047 377.644 103.881C378.627 104.296 379.087 105.445 378.66 106.43H378.649Z" fill="#521908"/>
<path d="M216.714 587.544C215.424 598.201 205.827 606.954 195.039 607.096C183.879 607.468 172.664 607.424 161.449 607.26C160.947 604.831 160.236 601.461 159.865 599.667C159.198 599.929 143.217 605.509 140.102 606.636C136.397 606.275 132.68 605.98 128.953 605.728C159.526 598.069 182.36 583.288 193.804 558.014C201.411 553.736 210.243 548.758 216.266 545.377C216.342 556.635 216.495 567.905 216.791 579.13C216.856 581.461 217.053 585.312 216.714 587.544Z" fill="#702F18" stroke="#702F18" stroke-width="1.06349" stroke-miterlimit="10"/>
<path d="M196.405 551.537C202.942 533.057 204.013 509.545 198.438 479.905C199.586 464.511 200.865 449.161 202.264 433.909C205.805 434.314 209.249 436.184 211.008 439.237C211.631 440.2 211.948 441.447 212.243 442.552C213.981 449.511 214.55 456.655 215.085 463.92C216.189 481.557 216.124 499.249 216.178 516.952C216.178 524.742 216.189 532.554 216.233 540.366L196.405 551.537Z" fill="#702F18" stroke="#702F18" stroke-width="1.06349" stroke-miterlimit="10"/>
<path d="M196.405 551.537L194.001 552.894C194.164 548.955 194.35 545.005 194.536 541.066C195.607 520.77 196.908 500.31 198.438 479.905C204.013 509.545 202.942 533.057 196.405 551.537Z" fill="#823919" stroke="#823919" stroke-width="1.06349" stroke-miterlimit="10"/>
<path d="M193.804 558.014C182.36 583.288 159.526 598.07 128.953 605.729C120.351 605.116 111.738 604.722 103.179 604.175C73.306 601.659 71.109 581.779 89.0022 561.395C102.873 546.165 123.717 536.789 144.573 539.174C146.223 539.349 146.639 536.92 144.999 536.57C142.277 535.99 139.512 535.618 136.703 535.476C137.49 531.274 138.386 526.46 139.37 521.241C144.278 524.567 151.033 524.808 156.957 525.443C157.886 525.541 158.793 525.651 159.679 525.782C160.848 526.745 161.176 528.583 160.324 529.874C154.738 538.725 148.125 552.719 156.553 561.844C163.428 568.233 174.479 568.496 182.556 564.295C185.376 562.741 189.388 560.498 193.804 558.014Z" fill="#823919" stroke="#823919" stroke-width="1.06349" stroke-miterlimit="10"/>
<path d="M222.42 579.01C222.267 570.41 222.234 561.001 222.212 552.434C222.114 524.479 223.021 491.229 221.392 463.515C220.933 456.808 220.376 449.959 218.966 443.241C218.43 440.78 217.851 438.197 216.539 436.009C211.937 427.989 201.379 425.517 193.203 428.974C191.585 429.565 189.989 430.199 188.404 430.867C186.622 431.633 184.863 432.442 183.136 433.307C174.96 437.355 167.341 442.443 160.324 448.132H160.313L158.236 444.237C157.372 442.651 156.072 440.145 155.143 438.449C155.121 438.405 155.099 438.362 155.077 438.318C155.011 438.208 154.957 438.11 154.902 438.011C153.973 436.458 151.732 436.611 150.792 437.913C150.759 437.957 150.727 438 150.694 438.055C150.519 438.679 150.322 439.313 150.279 439.456C145.611 464.259 137.053 509.851 132.265 535.42C107.158 536.066 80.7715 552.959 72.4644 576.45C68.0485 589.437 73.1421 601.625 85.9198 607.03C96.3803 611.603 107.726 611.078 118.842 611.231C126.002 611.297 133.161 611.286 140.332 611.1H140.867L141.141 610.98L156.564 605.531C157.045 607.862 157.689 610.991 157.832 611.625L159.591 611.669C171.429 612.052 183.278 612.337 195.17 612.14C198.384 612.085 201.663 611.483 204.701 610.301C215.555 606.275 222.966 595.006 222.507 583.43L222.42 579.01ZM216.714 587.544C215.424 598.201 205.827 606.953 195.039 607.096C183.879 607.468 172.664 607.424 161.45 607.26C160.947 604.831 160.236 601.461 159.865 599.667C159.198 599.929 143.217 605.509 140.102 606.636C127.838 605.444 115.443 604.951 103.179 604.174C73.306 601.658 71.109 581.778 89.0022 561.395C102.873 546.165 123.717 536.788 144.573 539.173C146.223 539.348 146.639 536.919 144.999 536.569C142.277 535.989 139.512 535.617 136.703 535.475C137.49 531.274 138.386 526.46 139.37 521.241C139.676 519.643 139.982 518.002 140.288 516.328C144.704 492.837 150.279 463.165 153.689 445.025C155.11 447.694 156.618 450.528 157.711 452.574L157.766 452.684L158.859 454.751C159.515 454.303 160.171 453.854 160.826 453.395C163.275 451.699 165.767 449.981 168.237 448.416C175.55 443.799 183.267 439.587 191.257 436.414C193.454 435.593 195.728 434.674 198.023 434.149C198.34 434.073 198.646 434.007 198.963 433.952C200.045 433.788 201.16 433.777 202.264 433.909C205.805 434.313 209.249 436.184 211.008 439.237C211.631 440.2 211.948 441.447 212.243 442.552C213.981 449.511 214.55 456.655 215.085 463.92C216.189 481.557 216.124 499.249 216.178 516.952C216.178 524.742 216.189 532.554 216.233 540.366C216.244 542.04 216.255 543.703 216.266 545.377C216.342 556.635 216.495 567.905 216.791 579.13C216.856 581.461 217.053 585.312 216.714 587.544Z" fill="#521908"/>
<path d="M411.397 521.284C406.467 505.759 387.7 495.704 371.632 508.1L340.163 539.567C335.878 543.867 335.878 550.815 340.174 555.104L370.211 583.069C366.888 585.41 363.456 587.631 359.925 589.688L332.184 558.802C329.036 555.279 323.363 555.968 321.111 560.115C314.586 572.183 308.148 583.561 305.754 596.789C304.442 600.586 305.776 604.328 308.421 606.582C307.852 606.614 307.284 606.636 306.727 606.658C301.469 606.746 296.233 606.22 291.369 604.722C289.139 604.087 287.041 603.015 285.325 601.439C283.39 599.743 281.882 597.5 280.953 595.072L280.614 594.109L279.936 592.205C278.46 588.036 277.138 583.813 275.925 579.568C278.81 562.117 285.379 545.869 300.026 532.269C298.747 531.274 297.523 530.234 296.343 529.173C296.528 529.184 296.714 529.184 296.9 529.184C301.25 529.184 305.535 528.068 309.284 525.847C312.574 523.899 314.804 520.814 315.711 516.908C317.373 509.687 314.52 499.49 308.049 489.632C307.579 488.899 307.415 488.023 307.59 487.159C307.765 486.371 308.202 485.693 308.836 485.212C317.001 482.64 323.811 480.179 328.358 475.671C330.435 479.697 332.49 483.625 334.49 487.455C329.768 490.989 325.319 494.862 321.1 498.855C319.362 500.551 321.767 503.254 323.658 501.7C331.965 494.61 340.797 488.133 350.383 483.297C361.926 477.564 375.578 473.745 388.071 478.111C405.484 484.227 412.293 503.932 411.397 521.284Z" fill="#823919" stroke="#823919" stroke-width="1.06349" stroke-miterlimit="10"/>
<path d="M410.217 489.435C400.652 472.684 381.841 467.258 363.893 472.301C354.657 474.851 346.142 479.271 338.316 484.676L331.244 469.927C324.358 455.813 315.034 436.819 307.962 422.88L306.88 420.758C306.781 420.55 306.65 420.309 306.519 420.134C305.317 418.307 302.792 418.132 301.174 419.27C300.595 419.675 300.114 420.244 299.862 420.966C299.458 422.432 299.075 423.898 298.682 425.353C297.895 428.417 297.152 431.48 296.386 434.544C295.512 438.078 294.659 441.622 293.851 445.167C284.45 440.572 274.974 436.086 265.486 431.677C264.568 431.25 263.671 430.835 262.753 430.408C259.747 428.931 256.556 428.876 253.714 429.828C253.692 429.839 253.681 429.839 253.659 429.85C251.954 430.408 250.38 431.349 249.057 432.563C246.161 435.189 244.434 439.15 245.101 443.472C252.38 492.696 258.403 542.5 272.733 590.312C273.432 592.621 274.383 594.984 275.148 597.293C277.509 603.683 282.942 608.901 289.544 610.74C328.26 621.998 386.082 587.938 406.784 555.706C418.928 536.263 421.847 509.873 410.238 489.457L410.217 489.435ZM411.408 521.296C411.397 521.766 411.364 522.237 411.331 522.707C410.315 538.616 402.904 553.605 391.7 564.907C385.361 571.384 378.103 577.555 370.222 583.069C366.899 585.411 363.456 587.632 359.925 589.689C343.912 599.098 326.041 605.553 308.421 606.582C307.863 606.615 307.295 606.637 306.727 606.659C301.469 606.746 296.233 606.221 291.369 604.722C289.139 604.076 287.041 603.004 285.325 601.44C283.379 599.733 281.871 597.49 280.953 595.072L280.614 594.109L279.936 592.194C274.941 578.004 271.607 563.343 268.437 548.605C265.989 536.865 263.759 525.071 261.704 513.243C261.376 511.307 261.026 509.37 260.709 507.422C257.058 485.89 253.9 464.26 250.817 442.651C250.38 440.233 251.462 438.012 253.189 436.568C253.714 436.119 254.304 435.758 254.938 435.485C255.058 435.43 255.189 435.375 255.331 435.331C255.342 435.309 255.364 435.309 255.386 435.309C256.632 434.85 258.009 434.762 259.343 435.145C259.693 435.233 260.043 435.375 260.37 435.55C272.405 441.141 284.756 446.152 296.78 451.732C299.119 444.172 301.819 435.08 303.885 427.563C310.76 441.382 318.564 456.743 326.106 471.339C326.85 472.794 327.593 474.227 328.347 475.66C330.424 479.687 332.479 483.615 334.479 487.444C329.757 490.978 325.308 494.851 321.089 498.845C319.351 500.551 321.756 503.243 323.647 501.689C331.954 494.599 340.786 488.122 350.372 483.286C361.915 477.553 375.567 473.735 388.06 478.089C405.473 484.205 412.282 503.91 411.386 521.274L411.408 521.296Z" fill="#521908"/>
<path d="M261.015 209.648C267.396 209.648 272.569 203.035 272.569 194.878C272.569 186.72 267.396 180.107 261.015 180.107C254.634 180.107 249.462 186.72 249.462 194.878C249.462 203.035 254.634 209.648 261.015 209.648Z" fill="#6EBE44"/>
<path d="M185.354 234.878L198.023 272.21" stroke="#666464" stroke-width="3.19046" stroke-miterlimit="10"/>
<path d="M209.063 253.293C219.818 253.402 229.098 252.111 236.739 248.063C238.662 247.045 241.034 246.98 242.925 248.085C243.527 248.435 244.073 248.894 244.532 249.442C246.368 251.608 246.489 253.906 244.204 256.564C241.712 259.464 238.575 260.131 232.367 258.906L209.063 253.315V253.293Z" fill="#666464" stroke="#666464" stroke-width="2.12697" stroke-miterlimit="10"/>
<path d="M197.848 272.735L191.541 281.05C188.83 284.628 187.683 289.147 188.349 293.578L204.078 398.197" stroke="#666464" stroke-width="3.19046" stroke-miterlimit="10"/>
<path d="M191.683 335.154C199.102 335.154 205.117 329.134 205.117 321.707C205.117 314.281 199.102 308.261 191.683 308.261C184.264 308.261 178.25 314.281 178.25 321.707C178.25 329.134 184.264 335.154 191.683 335.154Z" fill="#666464" stroke="#666464" stroke-width="5.31743" stroke-miterlimit="10"/>
<path d="M463.831 273.676C462.366 264.562 457.841 258.84 449.413 257.439C451.905 250.218 449.446 245.196 441.97 242.417C439.816 241.618 437.412 241.651 435.291 242.548C426.798 246.115 420.273 253.063 415.529 263.019C415.529 263.019 412.195 255.317 409.386 248.818C407.036 243.38 401.909 239.66 395.952 239.102L395.657 239.08C395.296 239.047 394.936 239.025 394.575 239.025C392.476 239.025 390.465 239.594 388.738 240.612C388.454 240.776 388.181 240.962 387.918 241.137C385.579 242.789 383.863 245.306 383.251 248.303C382.431 252.33 383.273 256.52 385.579 259.934L396.379 278.359L396.652 278.829L395.165 284.168C394.444 286.762 394.739 289.541 396.018 291.915C403.746 306.313 414.119 317.605 426.995 324.705C431.99 327.463 438.133 327.189 442.975 324.158C454.332 317.079 464.301 309.443 470.739 300.766C470.739 300.766 470.75 300.766 470.75 300.755C471.132 300.23 471.504 299.705 471.865 299.169C471.93 299.081 471.985 299.005 472.039 298.917C472.422 298.348 472.684 297.714 472.815 297.057C474.87 286.422 470.225 278.807 463.831 273.676ZM442.811 321.04C435.193 313.633 426.623 297.867 417.092 279.267C418.578 280.81 420.469 281.827 422.71 282.309C424.546 289.366 428.94 294.289 435.794 296.97C438.953 303.863 443.718 307.801 449.982 308.677L450.681 303.655C451.337 304.016 452.124 304.136 452.867 303.983L467.088 301.007C461.776 307.517 453.928 313.983 442.811 321.04ZM422.076 274.037L425.913 275.799C426.82 276.225 427.891 276.061 428.623 275.383L442.888 262.428L430.536 278.917C429.902 279.77 429.957 280.963 430.657 281.751L438.155 290.131C438.986 291.061 440.363 291.215 441.379 290.503L456.507 279.803L443.871 292.604C442.921 293.578 442.877 295.132 443.784 296.149L449.84 302.976C449.84 302.976 449.938 303.086 449.993 303.129C445.73 302.265 442.647 299.267 440.363 293.753L439.882 292.615L438.712 292.21C432.394 290.055 428.875 285.974 427.651 279.354L427.257 277.254L425.126 277.122C422.328 276.958 420.622 275.733 419.617 273.184L415.277 274.901L415.354 269.551L415.398 269.628L416.01 268.348L418.218 271.039C419.256 272.319 420.59 273.348 422.076 274.037ZM387.929 258.544L387.842 258.402C385.962 255.612 385.262 252.133 385.929 248.851C386.366 246.728 387.514 244.934 389.099 243.675L399.33 265.634C400.106 267.297 400.139 269.234 399.439 270.93L397.679 275.186L387.929 258.544Z" fill="#BBBBBB" stroke="#BBBBBB" stroke-width="1.06349" stroke-miterlimit="10"/>
<path d="M466.345 272.21C464.65 263.249 460.092 257.614 452.78 255.415C454.146 248.227 450.725 242.756 442.921 239.857C440.09 238.796 436.996 238.861 434.231 240.021C426.798 243.15 420.611 248.774 415.791 256.75L411.889 247.735C409.145 241.378 403.134 237.034 396.215 236.389L395.908 236.356C388.629 235.688 382.038 240.579 380.573 247.756C379.622 252.45 380.606 257.406 383.262 261.389L393.701 279.212L392.531 283.435C391.613 286.74 391.995 290.208 393.602 293.217C401.811 308.491 412.599 319.891 425.672 327.101C428.394 328.6 431.422 329.344 434.46 329.344C437.903 329.344 441.368 328.393 444.418 326.478C458.988 317.386 468.487 309.114 474.313 300.438C474.903 299.563 475.297 298.6 475.493 297.571C477.406 287.681 474.247 278.939 466.345 272.21ZM467.088 301.007C461.776 307.517 453.928 313.983 442.811 321.04C442.571 321.182 442.341 321.336 442.101 321.478C441.915 321.598 441.718 321.718 441.532 321.839C437.455 324.377 432.394 324.552 428.306 322.309C416.174 315.613 406.118 304.957 398.423 290.624C397.482 288.873 397.264 286.838 397.799 284.902L399.592 278.446L399.067 277.56L397.679 275.186L387.929 258.544L387.842 258.402C385.962 255.612 385.262 252.133 385.929 248.851C386.366 246.728 387.514 244.934 389.099 243.675C389.667 243.216 390.301 242.833 390.979 242.538C392.083 242.034 393.307 241.761 394.575 241.761C394.848 241.761 395.121 241.783 395.406 241.804L395.701 241.826C400.641 242.286 404.926 245.382 406.872 249.912L414.578 267.713L415.354 269.54L415.398 269.628L416.01 268.348L416.403 267.516L417.988 264.201C422.513 254.726 428.689 248.293 436.351 245.065C437.816 244.452 439.51 244.419 441.019 244.977C447.107 247.242 448.845 250.711 446.834 256.553L445.894 259.277L445.784 259.606L446.003 259.638L448.976 260.142C455.917 261.291 459.786 265.733 461.131 274.114L461.306 275.153L462.125 275.809C469.023 281.346 471.722 288.315 470.127 296.532C470.072 296.827 469.952 297.123 469.777 297.385C469.187 298.261 468.563 299.136 467.886 300C467.623 300.339 467.361 300.668 467.088 301.007Z" fill="#666464"/>
<path d="M399.592 278.446L387.929 258.544L387.842 258.402C385.962 255.612 385.262 252.133 385.929 248.85C386.366 246.728 387.514 244.934 389.099 243.675L399.33 265.634C401.811 271.794 399.592 278.446 399.592 278.446Z" fill="#8E8E8E"/>
<path d="M450.736 303.261L450.681 303.655L449.982 308.677C443.718 307.801 438.953 303.863 435.794 296.97C428.94 294.289 424.546 289.366 422.71 282.309C420.469 281.827 418.578 280.81 417.092 279.267C416.021 278.173 415.157 276.816 414.523 275.197L415.277 274.901L419.617 273.184C420.622 275.733 422.328 276.958 425.126 277.122L427.257 277.254L427.651 279.354C428.875 285.974 432.394 290.055 438.712 292.21L439.882 292.615L440.363 293.753C442.647 299.267 445.73 302.265 449.993 303.129C450.233 303.184 450.484 303.228 450.736 303.261Z" fill="#666464"/>
<path d="M169.68 223.259C168.565 223.259 167.461 222.778 166.707 221.848C165.363 220.207 165.614 217.789 167.254 216.443L177.025 208.456L160.072 201.311C158.116 200.491 157.198 198.237 158.028 196.278C158.848 194.32 161.1 193.401 163.056 194.232L184.644 203.335C186.163 203.97 187.202 205.327 187.442 206.957C187.683 208.587 187.06 210.184 185.781 211.224L172.107 222.395C171.396 222.975 170.533 223.259 169.68 223.259Z" fill="#6EBE44"/>
<path d="M200.384 321.893C200.307 320.756 199.717 319.705 198.744 319.125C195.411 317.134 189.06 318.02 186.469 323.261C189.902 319.629 193.377 318.327 196.875 320.001C197.968 320.526 198.624 321.686 198.46 322.889C198.318 323.972 197.782 325.132 196.897 326.084C195.684 327.386 193.946 328.064 192.175 328.064C190.678 328.064 189.224 328.119 187.825 328.228C186.141 328.36 184.535 328.578 183.026 328.907C182.698 322.462 184.589 318.392 188.098 316.073C188.83 315.58 189.639 315.176 190.514 314.836C191.213 314.628 191.946 314.519 192.711 314.519C196.821 314.519 200.176 317.79 200.373 321.893H200.384Z" fill="#6EBE44"/>
<path d="M362.691 592.774C352.722 597.741 337.54 604.196 316.706 608.376C313.58 609.273 310.574 608.42 308.421 606.582C305.787 604.328 304.442 600.586 305.754 596.789C308.137 583.561 314.586 572.183 321.111 560.115C323.363 555.968 329.036 555.279 332.184 558.802L363.073 588.551L362.691 592.785V592.774Z" fill="#521908"/>
<path d="M407.965 544.337C402.051 558.692 389.787 572.609 373.654 586.264L370.211 583.058L340.174 555.092C335.878 550.804 335.878 543.856 340.163 539.556L371.632 508.1C387.7 495.704 406.467 505.759 411.397 521.284C413.66 528.374 413.026 536.602 407.954 544.337H407.965Z" fill="#521908"/>
<path d="M219.031 543.823C218.201 544.283 217.282 544.808 216.277 545.377C206.756 550.716 190.251 560.06 182.567 564.294C174.49 568.496 163.439 568.233 156.564 561.843C148.136 552.718 154.749 538.725 160.335 529.873C161.187 528.582 160.859 526.744 159.69 525.781C153.208 524.808 145.054 525.092 139.381 521.241C138.178 520.431 137.096 519.436 136.156 518.199L139.763 515.727C139.927 515.934 140.102 516.142 140.299 516.328C144.78 520.978 154.563 520.464 160.783 521.514L161.253 521.569C164.936 523.56 166.292 528.67 163.985 532.182C156.356 543.878 150.65 561.537 170.38 562.752C174.457 562.894 178.479 561.745 181.988 559.666L189.628 555.366L193.618 553.112L194.011 552.894L216.244 540.366L216.889 540.005L219.031 543.823Z" fill="#521908"/>
<path d="M307.601 487.159C307.415 488.013 307.59 488.899 308.06 489.632C314.531 499.49 317.384 509.676 315.712 516.908C314.804 520.803 312.585 523.9 309.295 525.847C305.546 528.068 301.261 529.173 296.911 529.173C292.561 529.173 288.003 528.024 283.926 525.727L261.726 513.243L256.752 510.442L258.993 506.449L260.731 507.422L267.661 511.328L272.569 514.096L286.166 521.744C292.823 525.497 300.791 525.552 306.956 521.908C309.219 520.574 310.629 518.593 311.252 515.869C312.618 509.917 309.94 500.836 304.234 492.127C303.076 490.365 302.693 488.264 303.131 486.207C303.579 484.129 304.814 482.345 306.595 481.196L306.858 481.021L307.142 480.934C315.526 478.308 322.335 475.879 326.117 471.338C326.478 470.923 326.806 470.496 327.101 470.047L330.916 472.553C330.173 473.702 329.32 474.73 328.358 475.66C323.811 480.168 317.001 482.63 308.847 485.201C308.202 485.682 307.776 486.372 307.601 487.159Z" fill="#521908"/>
<path d="M134.451 216.126C124.789 187.843 152.279 170.063 186.043 163.302C168.882 165.895 151.798 170.731 140.332 179.276C134.178 183.86 129.445 191.574 129.412 199.243C129.39 205.6 131.445 211.071 134.451 216.126Z" fill="#BBBBBB"/>
<path d="M449.84 302.976C449.84 302.976 449.938 303.085 449.993 303.129C445.73 302.265 442.647 299.267 440.363 293.753L439.882 292.615L438.712 292.21C432.394 290.055 428.875 285.974 427.651 279.354L427.257 277.253L425.126 277.122C422.328 276.958 420.622 275.733 419.617 273.183L414.523 275.197L415.354 269.551L415.398 269.627L416.01 268.347L418.218 271.039C419.256 272.319 420.59 273.347 422.076 274.037L425.913 275.798C426.82 276.225 427.891 276.061 428.623 275.383L442.888 262.428L430.536 278.917C429.902 279.77 429.957 280.963 430.657 281.75L438.155 290.131C438.986 291.061 440.363 291.214 441.379 290.503L456.507 279.803L443.872 292.604C442.921 293.578 442.877 295.131 443.784 296.149L449.84 302.976Z" fill="#8E8E8E"/>
<path d="M467.088 301.007C461.776 307.517 453.928 313.983 442.811 321.04C435.193 313.633 426.623 297.867 417.092 279.267C418.578 280.809 420.469 281.827 422.71 282.308C424.546 289.365 428.94 294.289 435.794 296.969C438.953 303.862 443.718 307.801 449.982 308.676L450.681 303.654C451.337 304.015 452.124 304.136 452.867 303.983L467.088 301.007Z" fill="#8E8E8E"/>
<path d="M293.249 372.573C293.818 372.584 294.397 372.595 294.998 372.595C294.965 372.704 294.933 372.803 294.9 372.912C294.725 373.47 294.561 374.028 294.375 374.575C294.2 375.133 294.025 375.691 293.84 376.238C290.877 385.21 287.576 392.639 283.751 397.901C283.51 397.901 283.27 397.912 283.029 397.912C282.002 397.945 280.985 397.956 279.958 397.978C260.032 398.284 239.799 398.295 219.436 398C216.146 397.956 212.856 397.901 209.566 397.836H209.533C209.423 397.825 209.336 397.814 209.227 397.803C208.68 397.748 208.134 397.683 207.587 397.617C207.041 397.562 206.494 397.497 205.948 397.431C197.881 396.479 190.208 395.407 183.256 394.269C179.725 393.689 176.763 391.184 175.539 387.726C174.227 384.05 172.97 380.21 171.768 376.238C171.593 375.68 171.429 375.122 171.265 374.575C171.167 374.247 171.068 373.908 170.97 373.579C171.134 373.568 171.287 373.568 171.451 373.557C174.063 373.437 176.676 373.328 179.299 373.207C181.551 373.12 183.813 373.032 186.076 372.956C187.092 372.912 188.109 372.879 189.125 372.846C191.323 372.77 193.52 372.693 195.728 372.638C196.821 372.606 197.914 372.573 199.007 372.54C201.04 372.485 203.073 372.43 205.117 372.387C206.396 372.354 207.675 372.321 208.964 372.299C211.653 372.234 214.353 372.19 217.053 372.146C219.37 372.102 221.698 372.069 224.037 372.048C227.404 372.004 230.782 371.971 234.181 371.96C235.755 371.949 237.329 371.938 238.903 371.938C256.534 371.872 274.602 372.091 293.249 372.584V372.573Z" fill="#823919" stroke="#823919" stroke-width="1.06349" stroke-miterlimit="10"/>
<path d="M209.544 397.431C207.161 397.387 204.778 397.344 202.395 397.278C201.488 397.267 200.57 397.245 199.652 397.223C198.001 397.18 196.351 397.147 194.689 397.103C192.754 397.048 190.82 396.994 188.874 396.939C184.513 396.808 180.141 396.665 175.768 396.512H175.757C173.353 394.751 171.473 392.278 170.412 389.346C168.893 385.144 167.439 380.757 166.062 376.183C165.898 375.647 165.734 375.089 165.581 374.542C165.505 374.302 165.439 374.072 165.363 373.831C167.232 373.733 169.101 373.645 170.981 373.558C171.079 373.886 171.178 374.214 171.276 374.542C171.44 375.089 171.604 375.636 171.779 376.183C172.981 380.089 174.238 383.864 175.55 387.486C176.774 390.888 179.736 393.35 183.267 393.919C190.219 395.035 197.892 396.085 205.958 397.026C206.505 397.092 207.051 397.158 207.598 397.212C208.145 397.278 208.691 397.344 209.238 397.398C209.347 397.409 209.434 397.42 209.544 397.431Z" fill="#521908"/>
<path d="M326.38 370.319C325.844 371.194 325.298 372.048 324.74 372.901C324.379 373.459 324.019 374.006 323.658 374.542C323.286 375.1 322.915 375.647 322.543 376.183C319.264 380.986 315.766 385.549 312.061 389.871C309.765 392.551 307.065 394.761 304.049 396.457C301.578 396.654 299.097 396.818 296.583 396.961C294.506 397.081 292.408 397.19 290.309 397.278C288.538 397.354 286.757 397.409 284.964 397.464L283.751 397.497C287.576 392.321 290.877 385.013 293.84 376.183C294.025 375.636 294.2 375.089 294.375 374.542C294.561 373.995 294.725 373.448 294.9 372.901C294.933 372.792 294.965 372.693 294.998 372.584C295.621 372.595 296.255 372.595 296.911 372.584C297.261 372.584 297.611 372.584 297.971 372.573H298.048C298.485 372.573 298.922 372.551 299.37 372.54C300.616 372.507 301.884 372.452 303.163 372.387C303.688 372.365 304.213 372.343 304.748 372.31C305.524 372.255 306.3 372.212 307.087 372.157C307.699 372.124 308.322 372.08 308.945 372.026C308.989 372.026 309.022 372.026 309.066 372.026C309.722 371.982 310.388 371.927 311.055 371.873C311.722 371.818 312.389 371.763 313.055 371.708C313.711 371.654 314.378 371.588 315.034 371.522C316.356 371.402 317.668 371.271 318.958 371.139C319.603 371.074 320.237 371.008 320.871 370.943C321.505 370.877 322.139 370.811 322.762 370.735C323.352 370.68 323.942 370.614 324.511 370.549C325.145 370.472 325.768 370.395 326.38 370.33V370.319Z" fill="#702F18" stroke="#702F18" stroke-width="1.06349" stroke-miterlimit="10"/>
<path d="M333.277 369.509C332.61 370.658 331.921 371.774 331.222 372.901C330.894 373.448 330.544 374.006 330.194 374.542C329.845 375.1 329.495 375.647 329.123 376.183C325.145 382.289 320.838 388.033 316.214 393.427C315.602 394.149 314.957 394.838 314.28 395.505C313.438 395.604 312.596 395.691 311.744 395.768C310.902 395.856 310.05 395.943 309.197 396.02C308.235 396.107 307.273 396.195 306.311 396.271C305.557 396.337 304.803 396.403 304.049 396.457C307.065 394.761 309.765 392.551 312.061 389.871C315.766 385.549 319.264 380.987 322.543 376.183C322.915 375.647 323.286 375.1 323.658 374.542C324.019 374.006 324.379 373.459 324.74 372.901C325.298 372.048 325.844 371.194 326.38 370.319C328.806 370.045 331.058 369.772 333.047 369.531L333.277 369.509Z" fill="#823919"/>
<path d="M304.114 396.457C296.266 397.07 288.221 397.442 280.023 397.573C273.913 397.672 267.759 397.737 261.584 397.781C260.972 399.849 257.354 403.886 255.911 405.44C262.382 405.867 272.82 406.698 279.991 406.589C288.713 406.447 298.474 405.998 305.743 401.808C306.202 401.578 306.65 401.326 307.098 401.074C307.984 400.56 308.847 400.013 309.678 399.433C310.41 398.919 311.132 398.372 311.82 397.792C312.706 397.081 313.547 396.315 314.356 395.505C310.99 395.877 307.579 396.184 304.125 396.457H304.114ZM219.184 400.801C226.377 399.007 235.668 398.667 247.91 400.309C249.331 400.506 250.828 400.177 252.03 399.302C252.588 398.897 253.014 398.35 253.408 397.803C242.117 397.836 230.793 397.759 219.381 397.595L219.184 400.801ZM209.609 397.431H209.598C207.631 397.398 205.663 397.354 203.696 397.311C198.34 397.201 192.984 397.059 187.606 396.895C183.682 396.786 179.791 396.435 175.768 396.512C176.413 396.993 177.168 397.387 177.867 397.792C179.222 398.58 180.786 399.083 182.458 399.313C182.72 399.346 182.972 399.4 183.234 399.433C186.786 400.002 190.525 400.549 194.405 401.074C199.214 401.72 204.231 402.333 209.38 402.902C210.21 402.913 211.041 402.934 211.872 402.945V397.464C211.129 397.464 210.374 397.442 209.631 397.431H209.609ZM332.468 364.104C331.681 364.203 330.861 364.301 329.998 364.4C319.592 365.636 303.437 368.995 292.79 368.722C281.543 368.426 270.558 368.131 259.78 367.879C260.83 369.356 261.595 371.041 262.021 372.846C272.088 373.043 282.33 373.284 292.79 373.558C302.431 373.809 316.214 371.501 326.445 370.319C328.872 370.045 331.124 369.772 333.113 369.531L333.288 369.498C334.446 367.562 335.572 365.603 336.654 363.601L332.468 364.104ZM252.052 370.396C250.806 369.531 249.156 368.973 247.724 369.269C235.995 371.599 226.705 371.752 219.239 369.323V372.452C230.639 372.42 242.291 372.529 254.074 372.715C253.594 371.785 252.894 370.986 252.052 370.396ZM169.483 368.164C167.614 368.24 165.701 368.339 163.843 368.426C164.248 369.936 164.674 371.424 165.1 372.901C165.188 373.207 165.275 373.525 165.363 373.831C167.232 373.733 169.155 373.645 171.036 373.558C184.535 372.934 198.154 372.606 211.926 372.507L211.872 367.223C197.575 367.244 183.496 367.507 169.483 368.164Z" fill="#521908"/>
<path d="M333.288 369.499C332.621 370.658 331.932 371.774 331.233 372.901C330.905 373.448 330.555 374.006 330.205 374.543C329.856 375.101 329.506 375.648 329.134 376.184C325.155 382.289 320.849 388.033 316.225 393.427C315.613 394.149 315.023 394.838 314.345 395.506C313.504 395.604 312.607 396.075 311.755 396.151C310.913 396.239 310.082 396.206 309.23 396.283C308.268 396.37 307.361 396.37 306.399 396.447C305.644 396.512 304.53 396.545 303.775 396.6C303.786 396.589 304.071 396.436 304.081 396.425C304.333 396.294 304.573 396.14 304.814 395.998C305.032 395.867 305.251 395.736 305.47 395.582C305.677 395.462 305.885 395.32 306.093 395.178C306.858 394.663 307.601 394.116 308.322 393.525C308.497 393.372 308.672 393.23 308.847 393.077C309.12 392.858 309.372 392.617 309.634 392.377C309.689 392.333 309.743 392.278 309.798 392.223C310.181 391.862 310.563 391.49 310.924 391.107C311.317 390.703 311.689 390.287 312.061 389.86C315.766 385.538 319.264 380.976 322.543 376.173C322.915 375.637 323.286 375.09 323.658 374.532C324.019 373.996 324.379 373.448 324.74 372.89C325.21 372.168 325.68 371.446 326.128 370.702C326.216 370.571 326.303 370.44 326.38 370.308C328.806 370.035 331.058 369.761 333.047 369.521L333.277 369.488L333.288 369.499Z" fill="#521908"/>
<path d="M206.221 362.408C206.56 362.408 206.833 362.682 206.833 363.021V404.794C206.833 405.133 206.56 405.407 206.221 405.407C203.51 405.407 201.313 403.208 201.313 400.494V367.321C201.313 364.607 203.51 362.408 206.221 362.408Z" fill="#FF8214"/>
<path d="M231.754 388.219C233.596 388.219 235.088 386.724 235.088 384.881C235.088 383.038 233.596 381.544 231.754 381.544C229.913 381.544 228.421 383.038 228.421 384.881C228.421 386.724 229.913 388.219 231.754 388.219Z" fill="#521908"/>
<path d="M194.011 388.219C195.853 388.219 197.345 386.724 197.345 384.881C197.345 383.038 195.853 381.544 194.011 381.544C192.17 381.544 190.678 383.038 190.678 384.881C190.678 386.724 192.17 388.219 194.011 388.219Z" fill="#521908"/>
<path d="M285.401 388.219C287.243 388.219 288.735 386.724 288.735 384.881C288.735 383.038 287.243 381.544 285.401 381.544C283.56 381.544 282.067 383.038 282.067 384.881C282.067 386.724 283.56 388.219 285.401 388.219Z" fill="#521908"/>
<path d="M307.065 386.84C308.907 386.84 310.399 385.346 310.399 383.503C310.399 381.66 308.907 380.166 307.065 380.166C305.224 380.166 303.732 381.66 303.732 383.503C303.732 385.346 305.224 386.84 307.065 386.84Z" fill="#521908"/>
<path d="M174.916 388.219C176.757 388.219 178.25 386.724 178.25 384.881C178.25 383.038 176.757 381.544 174.916 381.544C173.075 381.544 171.582 383.038 171.582 384.881C171.582 386.724 173.075 388.219 174.916 388.219Z" fill="#521908"/>
<path d="M256.359 364.487C253.397 362.441 249.855 361.686 246.368 362.387C233.438 364.947 223.983 364.378 217.468 360.625C216.331 359.969 214.9 359.958 213.741 360.581C212.703 361.15 212.014 362.168 211.872 363.317C212.025 362.19 212.713 361.194 213.741 360.625C214.9 360.002 216.331 360.013 217.468 360.669C223.983 364.422 233.438 364.991 246.368 362.43C249.855 361.73 253.397 362.485 256.359 364.531C257.671 365.45 258.807 366.577 259.715 367.879H259.747C258.829 366.555 257.682 365.417 256.359 364.487ZM241.778 367.496C242.914 367.518 244.062 367.54 245.21 367.562C244.62 367.496 243.986 367.463 243.308 367.463C242.783 367.463 242.27 367.474 241.778 367.496ZM238.969 403.263C240.368 403.35 241.887 403.361 243.548 403.274C242.029 403.274 240.499 403.263 238.969 403.263ZM262.163 373.744C262.207 373.995 262.24 374.247 262.272 374.499V374.455C262.24 374.214 262.207 373.973 262.163 373.744ZM261.966 372.846C262.043 373.142 262.108 373.437 262.163 373.744C262.119 373.437 262.054 373.142 261.988 372.846H261.966ZM254.632 394.63V394.586C254.61 394.718 254.588 394.86 254.566 394.991C254.599 394.871 254.61 394.751 254.632 394.63Z" fill="#FF8214"/>
<path d="M252.424 398.842C252.424 398.842 252.337 399.028 252.304 399.072C251.44 400.221 249.265 402.923 243.953 403.263C243.887 403.263 243.811 403.274 243.745 403.274C242.215 403.274 240.674 403.263 239.132 403.263H239.067C230.016 403.208 220.791 403.109 211.664 402.934L211.817 397.092C214.331 397.147 216.834 397.201 219.337 397.234V400.352C226.573 398.438 235.744 398.087 248.074 399.838C249.506 400.046 250.97 399.849 252.183 398.919C252.216 398.897 252.402 398.875 252.435 398.842H252.424Z" fill="#521908"/>
<path d="M219.447 372.475L219.326 397.585C216.703 397.552 213.905 397.486 211.271 397.431L211.544 372.518C214.167 372.486 216.812 372.475 219.447 372.475Z" fill="#823919"/>
<path d="M245.188 367.562C248.664 367.956 250.773 369.4 251.779 370.254C250.577 369.499 249.189 369.225 247.844 369.499C236.881 371.676 227.983 371.785 220.78 369.805C220.769 369.805 220.758 369.805 220.736 369.794C220.245 369.652 219.764 369.51 219.283 369.356V372.464C216.791 372.464 214.298 372.475 211.817 372.507V367.223C221.676 367.212 231.645 367.321 241.756 367.496C242.893 367.518 244.04 367.54 245.188 367.562Z" fill="#521908"/>
<path d="M261.966 372.846H261.944C261.518 371.041 260.753 369.356 259.693 367.879H259.726C260.775 369.356 261.54 371.041 261.966 372.846Z" fill="#521908"/>
<path d="M231.918 382.759H264.983C265.923 382.759 266.688 383.525 266.688 384.466V385.297C266.688 386.238 265.923 387.004 264.983 387.004H231.918C230.749 387.004 229.798 386.052 229.798 384.881C229.798 383.711 230.749 382.759 231.918 382.759Z" fill="#FF8214"/>
<path d="M262.01 395.538C261.988 395.735 261.955 395.921 261.923 396.107C261.901 396.304 261.857 396.49 261.813 396.676C261.737 397.048 261.638 397.42 261.529 397.781C260.917 399.849 259.857 401.709 258.414 403.262C257.813 403.919 257.146 404.51 256.425 405.046C253.637 407.081 250.227 407.956 246.828 407.497C233.099 405.648 223.644 406.107 217.053 408.919C216.572 409.127 216.069 409.225 215.545 409.225C214.834 409.225 214.134 409.028 213.533 408.656C212.582 408.066 211.981 407.114 211.85 406.052C211.828 405.921 211.817 405.779 211.817 405.637V402.945C220.879 403.109 229.896 403.208 238.881 403.262H238.947C240.346 403.35 241.865 403.361 243.527 403.273C243.592 403.273 243.669 403.262 243.734 403.262C249.014 402.945 252.981 398.317 253.353 397.803C253.878 397.081 254.249 396.249 254.468 395.341C254.49 395.221 254.523 395.111 254.544 394.991C254.577 394.871 254.588 394.75 254.61 394.63V394.586C255.506 387.945 255.583 381.479 254.84 375.352V375.308C254.73 374.378 254.446 373.492 254.02 372.715C253.539 371.785 252.839 370.986 251.998 370.395C251.932 370.352 248.664 367.955 245.188 367.562C244.598 367.496 243.964 367.463 243.286 367.463C242.761 367.463 242.248 367.474 241.756 367.496C231.645 367.321 221.677 367.211 211.817 367.222V363.798C211.817 363.634 211.828 363.47 211.85 363.316C212.003 362.189 212.692 361.194 213.719 360.625C214.878 360.001 216.31 360.012 217.446 360.669C223.961 364.421 233.416 364.99 246.347 362.43C249.833 361.73 253.375 362.485 256.337 364.531C257.649 365.45 258.786 366.577 259.693 367.879C260.753 369.356 261.518 371.041 261.944 372.846C262.021 373.142 262.087 373.437 262.141 373.743C262.185 373.995 262.218 374.247 262.25 374.498C263.07 381.227 262.994 388.306 262.01 395.538Z" fill="#FF8214"/>
<path d="M346.197 246.213C350.623 248.577 352.897 253.456 351.41 258.03C314.75 253.522 274.624 288.129 226.617 340.646C208.33 322.659 193.509 304.584 184.283 286.356C183.354 285.054 183.004 285.098 180.272 284.212L157.558 279.081C155.197 277.833 155.449 271.367 157.023 269.058C190.667 276.323 289.741 262.866 346.208 246.213H346.197Z" fill="#B57EDC"/>
<path d="M346.47 243.489C315.646 252.822 284.111 259.507 252.194 263.873C228.563 267.078 204.701 269.398 180.851 268.938C172.303 268.632 163.8 268.074 155.755 265.94L154.749 267.516V267.538C153.907 268.851 153.634 269.934 153.394 271.017C152.705 274.475 152.836 280.372 156.946 281.739C157.077 281.739 179.179 286.827 179.452 286.827L180.545 287.177C180.906 287.287 181.277 287.407 181.529 287.494C181.66 287.56 181.736 287.593 181.769 287.593L181.791 287.615C181.813 287.648 181.868 287.702 181.933 287.79C181.933 287.801 181.944 287.801 181.944 287.812C187.278 298.228 193.924 307.845 201.171 316.871C207.784 325.099 212.462 331.981 219.884 339.432C220.594 340.143 217.392 348.01 218.102 354.717C218.212 355.756 225.819 345.504 226.562 346.226L234.421 348.688C235.777 345.012 231.514 339.421 232.093 338.808C257.496 311.751 281.86 284.923 315.22 267.965C327.025 262.188 340.24 258.982 353.291 260.995L354.001 258.872C356.078 252.833 352.482 245.546 346.47 243.489ZM349.126 255.065C336.917 254.168 324.718 257.428 313.788 262.592C313.482 262.735 313.176 262.888 312.87 263.03C278.69 280.383 252.424 309.169 226.551 336.73C211.107 321.259 196.569 304.409 186.611 284.934C186.24 284.442 185.967 283.971 185.234 283.37C184.13 282.505 183.278 282.319 182.196 281.958L181.102 281.608L180.982 281.575C180.884 281.543 162.87 277.472 158.914 276.586C158.935 276.63 158.946 276.674 158.968 276.717C158.968 276.717 158.892 276.663 158.826 276.652L158.225 276.433C158.334 276.455 158.575 276.51 158.914 276.586C158.411 275.361 158.433 273.545 158.772 272.067C157.995 271.958 157.219 271.849 156.432 271.728C156.454 271.728 159.231 270.601 159.263 270.601C159.067 271.017 158.903 271.52 158.772 272.067C174.238 274.113 189.464 273.085 204.887 272.078C220.846 270.831 236.75 269.048 252.61 266.838C271.629 264.201 290.593 261.094 309.426 257.341C318.072 255.623 326.686 253.763 335.266 251.75C338.032 251.061 342.863 249.966 345.595 249.047L345.541 249.004C345.541 249.004 345.595 249.025 345.628 249.036C345.727 249.004 345.825 248.971 345.912 248.938C345.814 249.015 345.705 249.047 345.628 249.036C345.617 249.036 345.606 249.047 345.595 249.047L346.033 249.343C347.858 250.667 349.06 252.844 349.126 255.065C349.957 254.376 349.552 255.087 349.126 255.065Z" fill="#7F4CA5"/>
<path d="M39.8259 272.111C40.919 271.849 34.8744 265.404 34.1639 264.179C30.6552 260.087 27.4307 258.107 23.9002 256.75C22.1185 256.083 20.4462 255.47 18.7519 254.781C17.0686 254.091 15.3853 253.314 13.7676 252.198C12.3904 251.301 10.9366 249.955 9.47195 248.467C7.99633 246.99 6.52071 245.382 5.20905 243.916C2.66225 240.962 0.968024 238.577 1.21943 239.135C4.47671 243.227 7.91982 247.406 10.9585 251.52C14.336 255.525 17.3419 259.485 20.7413 262.713C23.9002 266.061 27.4307 268.632 30.5569 270.383C33.836 272.046 37.0059 272.68 39.815 272.089L39.8259 272.111Z" fill="#DEA401" stroke="#9E7100" stroke-width="1.06349" stroke-miterlimit="10"/>
<path d="M42.2962 269.453C42.8318 266.532 42.2962 263.687 41.225 260.667C40.2631 257.505 38.5143 254.442 36.831 250.798C34.9728 247.341 33.202 243.314 31.3766 239.277C29.8027 234.999 28.1303 230.732 27.3214 226.082C27.1028 225.579 27.6821 228.15 28.4801 231.465C28.9173 233.106 29.3764 234.966 29.7589 236.783C30.1306 238.61 30.4257 240.393 30.6224 241.794C30.8192 243.522 30.7317 245.218 30.6006 246.947C30.4694 248.676 30.2508 250.459 30.3273 252.199C30.4585 255.7 31.158 259.661 34.8307 263.588C35.5958 264.781 42.1432 270.569 42.3071 269.442L42.2962 269.453Z" fill="#DEA401" stroke="#9E7100" stroke-width="1.06349" stroke-miterlimit="10"/>
<path d="M16.7735 234.167C15.7023 232.854 13.5927 233.905 13.9972 235.546C14.0409 235.732 14.0846 235.907 14.1283 236.093C14.7842 238.883 15.6258 241.388 16.5877 243.894C17.1014 245.13 17.637 246.378 18.3584 247.57C19.1126 248.752 19.9652 249.912 20.9818 251.071C21.9983 252.22 23.146 253.38 24.5123 254.496C25.8677 255.513 27.398 256.498 29.125 257.461C29.3217 257.57 29.4966 257.724 29.6278 257.91L30.7973 259.529C31.7046 260.754 33.202 262.428 35.0274 264.627C38.8203 268.84 44.4277 274.956 52.8004 280.153C61.0967 285.339 72.1802 289.519 84.5316 289.967C90.6636 290.23 97.058 289.934 103.42 288.829C105.026 288.632 106.611 288.315 108.196 287.976C109.781 287.648 111.388 287.352 112.973 286.98C116.121 286.16 119.323 285.448 122.45 284.464C135.02 280.809 147.218 276.083 158.651 271.805C170.085 267.505 180.796 263.665 190.164 261.061C199.509 258.402 207.478 257.1 213.052 256.433C214.451 256.312 215.698 256.203 216.791 256.115C217.873 256.028 218.802 256.028 219.556 255.995C219.829 255.995 220.081 255.973 220.31 255.973C221.174 255.94 221.851 255.218 221.83 254.354C221.819 253.457 221.053 252.745 220.157 252.789L219.414 252.822C218.638 252.877 217.676 252.888 216.561 252.997C215.446 253.106 214.156 253.238 212.714 253.391C206.986 254.157 198.843 255.623 189.421 258.468C179.977 261.258 169.254 265.284 157.875 269.759C146.497 274.223 134.418 279.114 122.001 282.932C118.919 283.949 115.76 284.704 112.645 285.569C111.082 285.963 109.497 286.269 107.934 286.63C106.371 286.98 104.797 287.33 103.223 287.549C96.9487 288.731 90.6527 289.125 84.5972 288.961C72.4097 288.709 61.4027 284.759 53.0846 279.737C44.69 274.704 39.0061 268.698 35.1586 264.551C33.3113 262.385 31.792 260.732 30.8629 259.518L29.6606 257.921C29.5294 257.735 29.431 257.527 29.3873 257.308C28.9719 255.371 28.5129 253.664 27.9991 252.133C27.5291 250.459 27.0154 248.96 26.4142 247.614C25.824 246.268 25.1572 245.054 24.4358 243.938C23.7362 242.8 23.0476 241.706 22.2606 240.677C20.7413 238.598 18.8722 236.76 17.1233 234.583C17.014 234.452 16.9047 234.321 16.8063 234.189L16.7735 234.167Z" fill="#DEA401" stroke="#9E7100" stroke-width="1.06349" stroke-miterlimit="10"/>
<path d="M198.843 281.893L223.24 289.322L216.856 288.786L264.502 275.886C266.011 275.317 267.738 276.105 268.153 277.702C268.404 278.643 268.131 279.606 267.508 280.262L230.519 319.541C229.678 320.416 228.289 319.213 229.066 318.261L263.409 276.641L266.426 281.006L222.114 302.768C220.07 304.027 217.403 303.873 215.73 302.232L197.214 284.683C195.946 283.523 197.214 281.357 198.843 281.882V281.893Z" fill="#7F4CA5"/>
<path d="M300.026 532.27C285.379 545.869 278.81 562.117 275.925 579.568H275.914C272.995 569.371 270.678 559.01 268.437 548.605C266 536.865 263.77 525.07 261.715 513.254L283.915 525.738C287.817 527.937 292.113 529.086 296.343 529.173C297.523 530.235 298.747 531.274 300.026 532.27Z" fill="#702F18"/>
<path d="M349.126 255.065C336.917 254.168 324.718 257.428 313.788 262.592C313.066 260.678 311.613 258.927 309.426 257.341C318.073 255.623 326.686 253.763 335.266 251.75C338.032 251.061 342.863 249.966 345.595 249.047L346.033 249.343C347.858 250.667 349.06 252.844 349.126 255.065Z" fill="#9863C6"/>
<defs>
<filter id="filter0_f_429_320" x="32.8641" y="559.062" width="460.828" height="105.412" filterUnits="userSpaceOnUse" color-interpolation-filters="sRGB">
<feFlood flood-opacity="0" result="BackgroundImageFix"/>
<feBlend mode="normal" in="SourceGraphic" in2="BackgroundImageFix" result="shape"/>
<feGaussianBlur stdDeviation="13.8253" result="effect1_foregroundBlur_429_320"/>
</filter>
</defs>
</svg>
