<svg version="1.2" xmlns="http://www.w3.org/2000/svg" viewBox="0 0 354 142" width="354" height="142">
	<title>fundoirriga-svg</title>
	<defs>
		<clipPath clipPathUnits="userSpaceOnUse" id="cp1">
			<path d="m28 13.88h290c8.28 0 15 6.72 15 15v76.67c0 8.28-6.72 15-15 15h-290c-8.28 0-15-6.72-15-15v-76.67c0-8.28 6.72-15 15-15z"/>
		</clipPath>
	</defs>
	<style>
		.s0 { opacity: .3;fill: #f0f0f0 } 
	</style>
	<g>
	</g>
	<g id="Clip-Path" clip-path="url(#cp1)">
		<g>
			<path fill-rule="evenodd" class="s0" d="m204.4 4.4c2 0 3.9 0.1 4.9 0.4 1 0.1 2.4 0.6 3.3 0.8 0.8 0.3 2.8 1.1 7.1 3.1l1.5-0.7c0.9-0.4 2.4-0.9 3.5-1.2 1-0.3 3-0.6 4.4-0.7 1.4-0.2 3.5-0.2 4.6-0.1 1.1 0 3.1 0.3 4.3 0.5 1.3 0.2 3.3 0.6 4.6 0.9 1.2 0.3 3 0.8 3.9 1.1 1 0.4 2.3 0.9 3.1 1.2 1 0.5 1.6 0.9 1.8 1.3 0.1 0.3 0.3 0.7 0.3 0.9 0 0.2-1 2.4-2.2 5-1.2 2.5-2.1 4.7-2 4.8 0.1 0.1 3.7 1.9 8 3.9 4.3 2 8.1 3.9 8.4 4.1 0.3 0.3 0.5 0.8 0.5 1.2 0 0.4-1.8 5.3-4.1 10.9-2.2 5.7-4 10.3-3.9 10.4 0.1 0 5.2 0.5 11.3 0.9 6.2 0.4 11.6 0.8 12.2 0.8 0.9 0 1-0.1 5.8-5.2 3-3.1 5.3-5.3 5.8-5.6 0.5-0.2 1.4-0.4 2-0.4 0.7 0 1.6 0.2 2 0.4 0.3 0.2 1 0.8 1.4 1.2 0.5 0.5 1 1.3 1.1 1.8 0.1 0.5 0.9 6.5 1.7 13.4 0.8 6.9 1.4 13 1.5 13.7 0 0.6-0.2 1.5-0.4 1.9-0.2 0.4-0.8 1.1-1.2 1.5-0.5 0.4-1.3 0.9-1.8 1-0.5 0.1-1.1 0.3-1.5 0.3-0.2 0-0.9-0.2-1.4-0.4-0.5-0.2-3.4-2.1-12.3-7.8l-18.5 6c-10.2 3.3-18.9 6.2-19.3 6.4-0.6 0.2-0.8 0.6-1.9 3.2-1.1 2.8-1.3 3.1-2.7 4.6-1.2 1.2-2 1.7-3 2.1-0.7 0.3-1.9 0.6-2.6 0.6-0.7 0.1-1.9 0.1-2.6-0.1-0.8-0.1-8-3.4-18-8.1-9.1-4.3-17.7-8.3-19.1-9-1.8-0.9-2.6-1.4-3.7-2.5-0.8-0.9-1.5-1.9-1.8-2.7-0.3-0.7-0.6-1.9-0.7-2.5-0.1-0.7 0-1.9 0.1-2.7 0.2-0.8 0.7-2.3 1.3-3.5 0.6-1.1 1.3-2.3 2-3.5l-5.3-7.9c-4.2-6.2-5.5-8.4-6.2-10.1-0.4-1.1-1-2.8-1.2-3.7-0.2-0.8-0.5-2.6-0.6-3.8-0.2-1.4-0.2-3.2 0-4.6 0.1-1.2 0.4-3.2 0.7-4.3 0.2-1.1 1.1-3.2 1.8-4.7 0.7-1.4 1.8-3.3 2.4-4.2 0.7-0.8 1.8-2.1 2.5-2.8 0.7-0.7 2-1.8 2.7-2.4 0.8-0.6 2.4-1.6 3.4-2.2 1.1-0.5 2.6-1.2 3.4-1.5 0.8-0.3 2.3-0.7 3.4-0.9 1.4-0.3 3.1-0.5 5.3-0.5zm-5.1 4.3c-0.6 0.1-2 0.6-3.1 1-1.1 0.4-2.9 1.4-4 2.2-1.1 0.7-2.7 2-3.5 2.8-0.8 0.9-2 2.4-2.7 3.5-0.7 1.1-1.6 2.8-2 3.8-0.4 1.1-0.9 2.7-1.1 3.6-0.2 1-0.4 2.9-0.4 4.5 0 1.5 0.2 3.5 0.4 4.4 0.2 0.9 0.7 2.6 1.1 3.6 0.4 1.1 1.3 2.8 1.9 3.7 0.6 1.1 2.7 4.2 4.6 7 1.8 2.8 3.4 5 3.6 5 0.1-0.1 0.6-1.1 1.2-2.2l1.1-2c-5.7-8.5-7.8-11.8-8.2-12.7-0.4-0.9-1-2.4-1.1-3.2-0.3-0.9-0.4-2.7-0.4-4.1 0-1.8 0.1-3.1 0.4-4.4 0.3-1.1 0.9-2.6 1.2-3.4 0.4-0.8 1.4-2.3 2.1-3.2 0.8-1 2.1-2.4 3-3 0.8-0.7 2.3-1.6 3.2-2 0.9-0.4 2.4-0.9 3.1-1.2 0.8-0.2 2.4-0.4 3.5-0.5q2.1-0.1 4 0.2c1 0.2 2.7 0.7 3.7 1.1 1 0.4 2.3 1 3 1.3l1.2 0.6c1.4-2.6 1.8-3.4 1.7-3.4 0 0-0.7-0.4-1.6-0.8-0.8-0.5-2.2-1.1-3.1-1.4-0.9-0.3-2.3-0.7-3.1-0.9-0.9-0.2-2.4-0.4-3.4-0.4-1-0.1-2.5-0.1-3.5 0-0.9 0.2-2.1 0.3-2.8 0.5zm26.5 1.8l-1.3 0.3c1.2 0.6 5.6 2.6 10.4 4.9 4.8 2.2 8.8 4.1 8.9 4.1 0 0 0.6-1 1.1-2.2 0.6-1.3 1.3-2.9 1.6-3.6l0.6-1.2c-4-1.3-6.2-1.9-7.4-2.1-1.3-0.3-3.5-0.6-4.9-0.8-1.5-0.1-3.1-0.2-3.5-0.2-0.5 0-1.6 0.1-2.5 0.2-0.9 0.1-2.3 0.4-3 0.6zm-17 24.6c-6.3 11.7-11.6 21.4-11.6 21.6q-0.1 0.3 4.1 2.3c2.2 1 4.3 2.1 4.5 2.4 0.2 0.3 0.3 0.8 0.3 1.2 0 0.4-0.2 0.9-0.5 1.2-0.3 0.3-0.8 0.6-1.1 0.7-0.4 0.1-1.8-0.4-5-2-2.4-1.1-4.5-2-4.5-1.9-0.1 0-0.6 1.1-1.3 2.3-1 1.9-1.2 2.3-1.2 3.7 0 1.2 0.2 1.8 0.7 2.7 0.4 0.6 1 1.3 1.3 1.6 0.4 0.2 8 3.9 16.9 8 8.9 4.2 17.2 8.1 18.3 8.7 1.2 0.5 2.6 1.1 3.1 1.2q1 0.2 2.4-0.2c0.9-0.3 1.7-0.7 2.3-1.3 0.6-0.7 1.2-1.6 1.8-3.2 0.5-1.2 0.8-2.4 0.7-2.4-0.1-0.1-6.6-3.2-14.3-6.8-7.8-3.7-14.4-6.8-14.8-7-0.2-0.2-0.6-0.7-0.7-1-0.2-0.5-0.2-0.9 0-1.4 0.2-0.4 0.7-0.8 1.1-1 0.7-0.4 0.8-0.3 4.4 1.3 2 0.9 8.7 4.1 14.9 7l11.1 5.2c14.3-35.6 18.3-45.9 18.2-46-0.1-0.1-8.9-4.3-19.6-9.4-10.7-5-19.5-9.1-19.6-9.1-0.1 0-0.2 0.1-0.3 0.2-0.1 0.1-5.3 9.7-11.6 21.4zm-11-17.6c-0.8 0.4-2.1 1.4-3.1 2.4-1.2 1.2-2 2.2-2.6 3.5-0.5 0.9-1.1 2.6-1.3 3.7-0.3 1.6-0.3 2.3-0.1 3.9 0.1 1.2 0.5 2.8 0.9 3.6 0.3 0.9 2 3.7 3.8 6.3 1.7 2.6 3.1 4.7 3.2 4.7 0 0 3.3-6.1 7.3-13.4 4.5-8.4 7.2-13.5 7-13.6-0.1-0.1-1.1-0.6-2.1-1.1-1.1-0.5-2.6-1-3.4-1.2-0.8-0.2-2.3-0.4-3.3-0.4-1.1 0-2.6 0.2-3.4 0.5-0.8 0.2-2.1 0.7-2.9 1.1zm85.8 39.2c0 0.1 0.3 2.3 0.6 5 0.3 2.6 0.7 4.8 0.8 4.9 0.1 0.1 2.7 1.8 5.8 3.8 3.1 2 5.7 3.6 5.8 3.6 0.1 0 0.3-0.2 0.5-0.3q0.4-0.4 0.3-1.1c-0.1-0.3-0.8-6.2-1.6-13.1-1.2-10.3-1.5-12.5-1.9-12.8-0.2-0.2-0.4-0.3-0.5-0.3-0.1 0-2.4 2.3-5 5.1-2.7 2.7-4.8 5.1-4.8 5.2zm-30 2.6c0 0.1 3.2 0.1 7.2 0l7.2-0.2c1 1 1.2 1.5 1.2 2 0 0.6-0.2 1-0.6 1.4-0.6 0.5-0.9 0.6-2.7 0.7-1.2 0-4.8 0.1-8.1 0.2l-6 0.2c-4.2 10.6-5.4 13.7-5.3 13.7 0 0.1 0.7-0.1 1.5-0.4 0.8-0.2 6.4-2.1 12.6-4.1 6.1-2 13.1-4.3 15.5-5.1 2.5-0.8 4.5-1.4 4.5-1.5 0.1 0-0.2-1.9-0.4-4.3-0.5-3.3-0.6-4.2-0.9-4.2-0.2 0-5.6-0.4-12-0.8-6.4-0.5-11.8-0.9-12.1-0.9q-0.4 0-1 1.6c-0.3 0.8-0.6 1.6-0.6 1.7zm21.7 45c0.3 0 0.8 0.1 1.1 0.2 0.3 0.1 1.9 2.6 3.6 5.5 1.6 2.8 3.2 5.4 3.3 5.7 0.2 0.3 0.4 1.2 0.6 1.9 0.1 1.1 0.1 1.8-0.1 2.8-0.1 0.7-0.5 1.7-0.7 2.1-0.2 0.5-0.9 1.3-1.5 1.9-0.5 0.6-1.5 1.3-2.2 1.6-0.7 0.3-1.9 0.7-2.7 0.8-1 0.2-1.8 0.2-2.7 0-0.7-0.1-1.9-0.5-2.5-0.8-0.7-0.3-1.7-1-2.3-1.6-0.5-0.6-1.2-1.4-1.4-1.9-0.3-0.4-0.6-1.4-0.7-2.1-0.3-1-0.3-1.7-0.1-2.8 0.2-0.7 0.4-1.6 0.5-1.9 0.2-0.3 1.7-2.8 3.3-5.5 1.7-2.8 3.2-5.3 3.5-5.5 0.2-0.2 0.7-0.4 1-0.4zm-4.4 13.7c-0.1 0.4-0.1 1.2 0 1.8 0.1 0.5 0.4 1.2 0.6 1.5 0.3 0.4 1 0.9 1.6 1.2 0.7 0.4 1.4 0.6 2.3 0.6 1 0 1.6-0.2 2.4-0.6 0.6-0.3 1.3-0.8 1.5-1.2 0.3-0.3 0.6-1 0.7-1.5 0.1-0.6 0.1-1.4 0-1.8-0.2-0.5-1.1-2.5-2.2-4.4-1.1-2-2.2-3.6-2.3-3.6-0.1 0-1.1 1.6-2.3 3.6-1.2 1.9-2.2 3.9-2.3 4.4z"/>
			<path fill-rule="evenodd" class="s0" d="m287.9 79.3c0.3 0 0.8 0.2 1.1 0.4 0.3 0.2 2.1 3.2 4.1 6.7 1.9 3.4 3.6 6.7 3.8 7.3 0.3 0.6 0.4 1.9 0.4 2.9 0 1-0.2 2.2-0.4 2.9-0.2 0.6-0.7 1.6-1.2 2.2-0.4 0.7-1.4 1.7-2.2 2.3-0.7 0.5-1.9 1.2-2.6 1.4-0.7 0.2-2 0.4-3 0.4-1 0-2.3-0.2-3-0.4-0.7-0.2-1.8-0.9-2.6-1.4-0.8-0.6-1.8-1.5-2.1-2-0.4-0.5-0.9-1.6-1.2-2.3-0.4-0.9-0.5-1.9-0.5-3.1 0-1 0.1-2.2 0.3-2.8 0.2-0.5 2-3.9 4-7.5 2.1-3.6 3.9-6.6 4.1-6.7 0.2-0.2 0.7-0.3 1-0.3zm-5.5 16c-0.1 0.6-0.2 1.5-0.1 2 0.1 0.4 0.4 1.3 0.6 1.8 0.3 0.5 1 1.3 1.5 1.7 0.6 0.4 1.5 0.9 2.2 1 0.9 0.2 1.6 0.2 2.4 0.1 0.6-0.2 1.4-0.4 1.7-0.6 0.4-0.2 1-0.7 1.3-1 0.4-0.4 0.8-1 1-1.4 0.2-0.4 0.4-1.2 0.5-1.6 0.1-0.5 0-1.4-0.1-2-0.1-0.5-1.4-3-2.8-5.5-1.4-2.5-2.6-4.5-2.7-4.5-0.1 0-1.3 2-2.7 4.5-1.4 2.5-2.6 5-2.8 5.5zm-22.4-6.4c0.3 0 0.8 0.1 1 0.2 0.3 0.2 1.9 2.6 3.6 5.5 1.7 2.9 3.2 5.5 3.4 5.8 0.1 0.3 0.4 1.1 0.5 1.9 0.2 1 0.2 1.7-0.1 2.7-0.1 0.7-0.4 1.7-0.6 2.1-0.3 0.5-0.9 1.3-1.5 1.9-0.6 0.6-1.6 1.3-2.3 1.7-0.6 0.3-1.8 0.7-2.6 0.8-1 0.2-1.8 0.2-2.8 0-0.7-0.1-1.8-0.5-2.5-0.9-0.7-0.3-1.7-1-2.2-1.6-0.6-0.6-1.3-1.4-1.5-1.9-0.2-0.4-0.6-1.4-0.7-2.1-0.2-1-0.2-1.7 0-2.7 0.1-0.8 0.3-1.6 0.5-1.9 0.2-0.3 1.6-2.8 3.2-5.6 1.7-2.8 3.3-5.2 3.5-5.5 0.3-0.2 0.8-0.4 1.1-0.4zm-4.5 13.7c-0.1 0.5-0.1 1.2 0 1.8 0.1 0.5 0.5 1.2 0.7 1.5 0.2 0.4 0.9 0.9 1.5 1.2 0.8 0.5 1.4 0.6 2.4 0.6 0.9 0 1.6-0.1 2.4-0.6 0.5-0.3 1.2-0.8 1.5-1.2 0.2-0.3 0.5-1 0.6-1.5 0.1-0.6 0.1-1.3 0-1.8-0.1-0.5-1.1-2.4-2.2-4.4-1.1-2-2.1-3.5-2.2-3.5-0.1 0-1.2 1.6-2.4 3.5-1.1 2-2.1 3.9-2.3 4.4z"/>
		</g>
	</g>
</svg>