<svg version="1.2" xmlns="http://www.w3.org/2000/svg" viewBox="0 0 354 142" width="354" height="142">
	<title>fundoaduba-svg</title>
	<defs>
		<clipPath clipPathUnits="userSpaceOnUse" id="cp1">
			<path d="m28 13.55h290c8.28 0 15 6.71 15 15v76.66c0 8.29-6.72 15-15 15h-290c-8.28 0-15-6.71-15-15v-76.66c0-8.29 6.72-15 15-15z"/>
		</clipPath>
	</defs>
	<style>
		.s0 { opacity: .3;fill: #f0f0f0 } 
	</style>
	<g>
	</g>
	<g id="Clip-Path" clip-path="url(#cp1)">
		<g>
			<path fill-rule="evenodd" class="s0" d="m246.8 9.3c6.1 0 7 0.1 8.6 0.5 1 0.3 2.7 1 3.8 1.5 1.1 0.6 2.7 1.6 3.5 2.3 0.8 0.7 1.9 1.8 2.5 2.5 0.6 0.7 1.6 2.3 2.2 3.5 0.6 1.2 1.3 2.9 1.5 3.7 0.3 1.2 0.4 2.9 0.5 19.5h9.3c7.9 0.1 9.4 0.2 10.5 0.5 0.8 0.2 2.3 0.8 3.4 1.4 1.1 0.5 2.7 1.5 3.5 2.1 0.8 0.7 2 1.8 2.6 2.6 0.6 0.7 1.6 2.2 2.2 3.3 0.5 1.1 1.2 2.8 1.5 3.8 0.4 1.7 0.5 2.3 0.5 9.9 0 7.5-0.1 8.1-0.5 9.8-0.3 1-1 2.7-1.5 3.8-0.6 1.1-1.6 2.7-2.3 3.5-0.7 0.8-1.9 1.9-2.5 2.5-0.7 0.6-2.3 1.6-3.5 2.2-1.2 0.6-2.9 1.3-3.7 1.5-1.2 0.3-3 0.4-19.5 0.5l-0.1 9.4c0 9 0 9.3-0.5 10.9-0.3 0.8-0.9 2.1-1.2 2.9-0.4 0.7-1.1 1.9-1.7 2.7-0.5 0.7-1.5 1.8-2.1 2.4-0.7 0.6-1.9 1.6-2.7 2.1-0.8 0.6-2 1.3-2.8 1.6-0.7 0.3-1.8 0.7-2.3 0.8-0.6 0.2-2 0.4-3.3 0.6-1.2 0.1-4.4 0.2-7 0.2-2.7 0-5.8-0.1-7.1-0.2-1.2-0.2-2.7-0.4-3.2-0.6-0.6-0.1-1.6-0.5-2.4-0.8-0.7-0.3-2-1-2.8-1.6-0.8-0.5-2-1.5-2.6-2.1-0.7-0.6-1.7-1.7-2.2-2.4-0.5-0.8-1.2-2-1.6-2.7-0.4-0.8-0.9-2.1-1.2-2.9-0.5-1.6-0.5-1.9-0.6-20.3l-9.4-0.1c-9.1 0-9.4 0-10.9-0.5-0.9-0.3-2.2-0.9-2.9-1.2-0.8-0.4-2-1.1-2.7-1.7-0.7-0.5-1.9-1.5-2.5-2.1-0.6-0.7-1.6-1.9-2.1-2.7-0.5-0.8-1.2-2-1.5-2.8-0.3-0.7-0.7-1.8-0.9-2.3-0.1-0.6-0.4-2-0.5-3.3-0.1-1.2-0.2-4.4-0.2-7 0-2.7 0.1-5.8 0.2-7.1 0.1-1.2 0.4-2.7 0.5-3.2 0.2-0.6 0.6-1.6 0.9-2.4 0.3-0.7 1-2 1.5-2.8 0.5-0.8 1.5-1.9 2.1-2.6 0.6-0.7 1.8-1.7 2.5-2.2 0.7-0.5 1.9-1.2 2.7-1.6 0.7-0.4 2-0.9 2.9-1.2 1.5-0.5 1.8-0.5 20-0.6l0.1-9.1c0.1-7.5 0.2-9.2 0.5-10.4 0.2-0.8 0.8-2.5 1.4-3.7 0.7-1.3 1.7-2.8 2.3-3.6 0.7-0.8 1.8-1.9 2.4-2.4 0.7-0.6 2-1.5 2.8-2 0.9-0.4 2.4-1.1 3.4-1.4 1-0.3 2.6-0.7 3.6-0.8 1-0.1 4.8-0.1 8.6-0.1zm-9.6 8.7c-0.6 0.1-1.4 0.5-1.9 0.7-0.5 0.3-1.4 0.9-1.9 1.4-0.6 0.5-1.3 1.4-1.8 2.1-0.4 0.6-0.9 1.6-1.1 2.1-0.3 0.8-0.4 2.7-0.5 12.2-0.1 10-0.1 11.4-0.5 12-0.2 0.3-0.6 0.9-0.9 1.1-0.2 0.3-0.7 0.6-1 0.8-0.5 0.2-2.9 0.3-11.9 0.4-9.6 0.1-11.5 0.2-12.2 0.5-0.5 0.2-1.5 0.7-2.1 1.1-0.7 0.5-1.7 1.2-2.1 1.8-0.5 0.5-1.1 1.4-1.4 1.9-0.3 0.5-0.6 1.4-0.8 2-0.3 0.9-0.3 2.7-0.3 8.3 0 5.6 0 7.4 0.3 8.3 0.2 0.6 0.6 1.5 0.9 2.1 0.3 0.5 1.1 1.5 1.7 2.1 0.6 0.6 1.5 1.4 2.1 1.7 0.6 0.4 1.6 0.8 2.4 1 1.1 0.3 2.9 0.3 11.6 0.3 6.8 0 10.6 0.1 11.2 0.3 0.5 0.1 1.2 0.6 1.7 1 0.5 0.5 0.9 1.3 1 1.9 0.2 0.8 0.3 4 0.3 11.4 0 8.9 0.1 10.6 0.4 11.6 0.2 0.7 0.7 1.8 1.1 2.5 0.4 0.6 1.2 1.6 1.8 2.2 0.6 0.5 1.5 1.2 2 1.4 0.5 0.3 1.4 0.7 2 0.8 0.9 0.3 2.7 0.4 8.3 0.4 5.6 0 7.4-0.1 8.3-0.4 0.6-0.1 1.5-0.5 2.1-0.8 0.5-0.3 1.5-1.1 2.1-1.7 0.6-0.6 1.4-1.6 1.7-2.2 0.4-0.5 0.8-1.6 1-2.3 0.3-1.1 0.3-3 0.3-11.6 0-6.1 0.1-10.7 0.3-11.2 0.1-0.4 0.5-1.2 0.9-1.6 0.4-0.5 0.9-1 1.2-1.1 0.3-0.1 3.9-0.3 11.6-0.3 10.6-0.2 11.3-0.2 12.4-0.6 0.7-0.3 1.7-0.8 2.2-1.1 0.6-0.3 1.4-1 1.9-1.6 0.6-0.5 1.3-1.6 1.7-2.4 0.4-0.8 0.9-2 1-2.6 0.1-0.7 0.2-4.2 0.1-8.4v-7.2c-1.3-2.7-2.1-3.8-2.8-4.5-0.7-0.7-1.7-1.4-2.1-1.7-0.5-0.3-1.3-0.6-1.8-0.8-0.8-0.3-2.6-0.4-12.2-0.5-9.9-0.1-11.4-0.1-12-0.5-0.4-0.2-1-0.6-1.3-1-0.4-0.4-0.7-1.1-0.8-1.6-0.2-0.5-0.3-5-0.3-11.1 0-8.7 0-10.5-0.3-11.6-0.2-0.8-0.6-1.8-1-2.4-0.3-0.5-1.1-1.5-1.7-2.1-0.6-0.7-1.6-1.4-2.1-1.7-0.6-0.3-1.4-0.7-1.9-0.9-0.7-0.2-2.5-0.3-8-0.3-3.8-0.1-7.2 0-7.5 0-0.2 0.1-0.9 0.2-1.4 0.4z"/>
		</g>
	</g>
</svg>