<svg version="1.2" xmlns="http://www.w3.org/2000/svg" viewBox="0 0 408 261" width="408" height="261">
	<title>fundofluxo-svg</title>
	<defs>
		<clipPath clipPathUnits="userSpaceOnUse" id="cp1">
			<path d="m28 13.2h343.95c8.29 0 15 6.72 15 15v196.56c0 8.28-6.71 15-15 15h-343.95c-8.28 0-15-6.72-15-15v-196.56c0-8.28 6.72-15 15-15z"/>
		</clipPath>
	</defs>
	<style>
		.s0 { opacity: .3;fill: none;stroke: #f0f0f0;stroke-linecap: round;stroke-linejoin: round;stroke-width: 13.2 } 
	</style>
	<g>
	</g>
	<g id="Clip-Path" clip-path="url(#cp1)">
		<g>
			<path fill-rule="evenodd" class="s0" d="m303.9 122v0.1"/>
			<path fill-rule="evenodd" class="s0" d="m170.1 73.4c-5.9-5.2-10.3-11.9-12.8-19.3-2.5-7.4-2.9-15.2-1.3-22.6 1.6-7.4 5.3-14.1 10.6-19.3 5.3-5.2 11.9-8.8 19.3-10.3 7.4-1.5 15.1-0.9 22.4 1.8 7.3 2.6 13.8 7.2 18.8 13.2 5.1 6.1 8.5 13.3 9.8 20.9 1.3 7.6 0.6 15.4-2.2 22.4"/>
			<path fill-rule="evenodd" class="s0" d="m320.9 26.3l-1.8 52.7c16.7 11.4 29.2 28.3 35.1 47.5l18.4 1.7c3.7 0.3 7.1 2.1 9.6 4.9 2.5 2.9 3.9 6.5 3.7 10.2l-0.9 27.6c-0.1 3.7-1.7 7.1-4.3 9.5-2.7 2.3-6.2 3.5-9.9 3.1l-18.4-1.6c-5.1 12.7-13.3 23.7-23.9 32.1l-1 28.1c-0.2 5.5-2.5 10.5-6.5 14.1-4 3.5-9.3 5.2-14.8 4.7-5.4-0.5-10.6-3.1-14.3-7.4-3.8-4.2-5.8-9.7-5.6-15.2l0.3-8.1q-6.9 0.6-13.8-0.1l-55-4.9q-6.9-0.7-13.7-2.4l-0.3 8c-0.2 5.5-2.5 10.6-6.5 14.2-4 3.5-9.3 5.2-14.8 4.7-5.4-0.5-10.6-3.2-14.4-7.4-3.7-4.2-5.7-9.7-5.5-15.2l0.9-27.7v-0.4c-12.1-12.3-20.4-27.9-23.8-44.6-3.4-16.6-1.7-33.7 4.8-48.9 6.4-15.1 17.5-27.7 31.5-36 14.1-8.3 30.6-11.9 47.3-10.4l34.3 3.1 63.3-35.9z"/>
		</g>
	</g>
</svg>