<svg version="1.2" xmlns="http://www.w3.org/2000/svg" viewBox="0 0 373 141" width="373" height="141">
	<title>fundoequipe-svg-svg</title>
	<defs>
		<clipPath clipPathUnits="userSpaceOnUse" id="cp1">
			<path d="m28 13.2h309c8.28 0 15 6.72 15 15v76.67c0 8.28-6.72 15-15 15h-309c-8.28 0-15-6.72-15-15v-76.67c0-8.28 6.72-15 15-15z"/>
		</clipPath>
	</defs>
	<style>
		.s0 { opacity: .3;fill: #f0f0f0 } 
	</style>
	<g>
	</g>
	<g id="Clip-Path: Clip-Path" clip-path="url(#cp1)">
		<g id="Clip-Path">
			<g>
				<path fill-rule="evenodd" class="s0" d="m249.9 13.8c8.1 0 9.8 0.1 11.2 0.5 0.9 0.3 2.5 0.9 3.6 1.5 1.2 0.6 2.6 1.7 3.8 2.9 1.3 1.2 2.3 2.6 3 3.9 0.5 1 1.2 2.6 1.4 3.4 0.3 0.9 0.5 3 0.8 9.8h4.9c4.3 0 5 0.1 5.9 0.6 0.6 0.3 1.4 0.9 1.7 1.3 0.2 0.4 0.6 1.2 0.8 1.8 0.1 0.6 0.3 1.7 0.3 2.4 0 0.6-0.2 1.7-0.3 2.3-0.2 0.6-0.8 1.5-1.3 2.1-0.6 0.5-1.5 1.1-2.1 1.3-0.6 0.1-2.6 0.3-7.8 0.3v10.2c0 9.8 0 10.3-0.7 12.8-0.3 1.4-1.1 3.5-1.6 4.6-0.6 1.2-1.7 3-2.6 4.1-0.9 1.1-2.2 2.5-4.2 4.3l10.4 2.3c5.7 1.2 10.9 2.5 11.7 2.8 0.8 0.3 2.1 1 3 1.5 0.9 0.6 2.4 1.9 3.4 2.8 1.2 1.2 2.2 2.6 2.9 4 0.8 1.5 2.5 6.4 5.4 15.7 2.4 7.4 4.3 13.7 4.2 14-0.1 0.3-0.5 0.8-0.9 1.1-0.8 0.6-0.9 0.6-57.9 0.6-56.9 0-57.1 0-57.8-0.6-0.4-0.3-0.8-0.8-0.9-1.1-0.1-0.3 1.8-6.6 4.1-14 2.4-7.4 4.7-14.2 5.1-15.1 0.5-0.9 1.4-2.3 2-3.2 0.6-0.8 1.9-2 2.8-2.8 0.9-0.7 2.5-1.7 3.5-2.3 1.5-0.7 3.8-1.3 10.4-2.8 4.7-1 9.5-2.1 13-2.9l-1.4-1.3c-0.8-0.7-2-2-2.8-3-0.7-0.9-1.8-2.7-2.3-3.8-0.6-1.1-1.3-2.9-1.7-4-0.6-1.8-0.6-2.3-0.9-23.8l-3.9-0.1c-2.8-0.1-4-0.3-4.6-0.6-0.5-0.2-1.1-0.8-1.5-1.2-0.4-0.5-0.9-1.3-1.1-1.9-0.2-0.7-0.3-1.9-0.3-3.1 0.1-1.6 0.3-2.1 1-3.1 0.4-0.6 1.2-1.4 1.7-1.7 0.9-0.4 1.7-0.5 11-0.5v-3.4c0-2.7 0.1-4.1 0.5-5.7 0.4-1.2 1.1-3.1 1.6-4.1 0.7-1.3 1.8-2.7 3-3.9 1.2-1.2 2.6-2.3 3.8-2.9 1.1-0.5 2.4-1.1 2.9-1.3 0.5-0.2 1.7-0.4 2.6-0.5 0.9-0.2 5.9-0.3 11.2-0.2zm-14.2 5.7c-1.3 0.6-2.4 1.5-3.5 2.6-0.8 0.8-1.8 2.2-2.2 3.1l-0.7 1.5c11.3 0.1 13.4 0.2 13.8 0.4 0.4 0.2 0.8 0.7 0.9 1.1 0.3 0.5 0.3 0.9 0 1.6q-0.4 0.9-1.3 1.3c-0.6 0.2-2.6 0.4-7.4 0.4h-6.6v4.1h40.5c0-4.4-0.1-6.4-0.3-7.3-0.2-0.9-0.6-2.3-1-3.1-0.4-0.9-1.4-2.3-2.3-3.1-1-1.1-2.1-2-3.4-2.6-1.1-0.5-2.7-1.1-3.7-1.2-1-0.1-5.4-0.2-9.8-0.2-4.5 0-8.8 0.1-9.6 0.2-0.8 0.1-2.4 0.7-3.4 1.2zm-20.8 22.2c0.1 0.6 0.2 1.3 0.4 1.5 0.3 0.2 7.2 0.3 33.6 0.3 26.9 0 33.4-0.1 33.7-0.3 0.2-0.2 0.3-0.9 0.2-1.6v-1.2c-52.3-0.2-67.5-0.1-67.7 0-0.1 0.1-0.2 0.7-0.2 1.3zm11.4 16.4c0.1 8.1 0.2 10.2 0.6 11.7 0.2 1 0.9 2.8 1.6 4.1 0.9 1.9 1.6 2.8 3.6 4.8 1.7 1.7 3 2.8 4.4 3.5 1.1 0.5 2.8 1.2 4 1.6 1.5 0.4 3 0.6 6.7 0.7 2.5 0.1 5.7 0 6.9-0.1 1.3-0.2 3.3-0.6 4.4-1 1.1-0.4 2.8-1.2 3.6-1.6 0.8-0.5 2.5-1.9 3.7-3.1 1.6-1.6 2.5-2.8 3.3-4.4 0.7-1.2 1.4-3.2 1.7-4.4 0.6-2 0.6-3 0.6-11.9v-9.8h-45.2zm2.3 30.9l-1.1 0.2 0.1 35.1h5.2c0-35.2-0.1-36.2-0.5-36.2-0.3 0-1 0.2-1.6 0.3-0.6 0.2-1.5 0.4-2.1 0.6zm36.5 35.3h5.2c0-34 0-35.1-0.5-35.2-0.3-0.1-1.3-0.3-2.3-0.6-1-0.2-2-0.4-2.1-0.4-0.2 0-0.3 6.2-0.3 18.1zm-23.7-33.8c0.3 0.7 1.1 1.8 1.7 2.3 0.5 0.6 1.6 1.3 2.3 1.7 1 0.5 1.6 0.6 3.5 0.6 1.9 0 2.6-0.1 3.5-0.6 0.6-0.3 1.7-1.1 2.3-1.6 0.6-0.6 1.4-1.7 1.8-2.5 0.5-0.8 0.7-1.5 0.6-1.6 0 0-1.3 0-2.8 0.2-1.6 0.2-4.8 0.2-7.4 0.1-2.6-0.1-5-0.2-5.4-0.3-0.4-0.1-0.7 0-0.8 0.1 0 0.2 0.3 0.9 0.7 1.6zm-31.9 3.2c-1 0.4-2.5 1.5-3.3 2.3-0.8 0.7-1.9 2.1-2.4 2.9-0.6 0.9-2 4.9-4.3 12.3-1.9 5.9-3.6 11.3-3.9 11.9l-0.3 1.2h17.4c1.4-14.2 1.5-14.7 2.1-15.3 0.5-0.5 1-0.7 1.6-0.7 0.5 0 1.2 0.1 1.4 0.4 0.3 0.2 0.6 0.6 0.7 0.9 0.2 0.3 0 3.3-0.4 6.9-0.4 3.4-0.7 6.6-0.7 7v0.8h5.5c0-33 0-34-0.5-34-0.2 0.1-2.8 0.6-5.8 1.3-3.6 0.8-5.9 1.5-7.1 2.1zm65.4 30.6c4.8 0 5.5-0.1 5.5-0.4 0-0.2-0.3-3.4-0.7-7.1-0.7-6.7-0.7-6.9-0.2-7.5 0.3-0.4 0.8-0.8 1.2-0.9 0.4-0.2 1-0.2 1.4 0 0.4 0.1 1 0.6 1.2 0.9 0.2 0.4 0.6 3.1 1.1 7.3 0.3 3.7 0.7 6.9 0.7 7.2 0 0.4 0.6 0.5 8.7 0.5h8.7c-5.7-18-7.6-23.8-8.1-24.7-0.4-0.9-1.4-2.2-2.5-3.3-1.1-1.1-2.4-2.1-3.5-2.6-1.3-0.6-3.6-1.3-7.4-2.2-3.1-0.6-5.8-1.2-5.9-1.2-0.1 0-0.2 7.7-0.2 17zm-37.5-17.8h23c0-13 0-13.2-0.5-12.6-0.2 0.4-1 1.3-1.7 2.1-0.7 0.7-2.1 1.8-3 2.3-1 0.5-2.4 1.1-3.1 1.3-0.8 0.2-2.1 0.3-3 0.3-0.9 0-2.4-0.1-3.3-0.4-0.9-0.2-2.2-0.7-2.9-1-0.6-0.4-1.8-1.2-2.6-1.8-0.7-0.7-1.7-1.8-2.1-2.4l-0.8-1.1zm0 17.8h23v-13.1h-23zm-46.2 9h43.9c43.6 0 43.9 0 44.5 0.6 0.3 0.3 0.5 0.9 0.5 1.3 0.1 0.4-0.2 1-1 2.1h-87.8l-0.6-0.8c-0.4-0.4-0.7-1-0.7-1.2 0-0.3 0.3-0.9 0.6-1.3zm104 0c9.8 0 10.1 0.1 10.7 0.6 0.3 0.3 0.5 0.9 0.5 1.3 0 0.4-0.2 1-1 2.1h-10.2c-9.7 0-10.1 0-10.7-0.5-0.4-0.4-0.5-0.9-0.5-1.5 0-0.5 0.2-1.1 0.5-1.4 0.6-0.5 0.9-0.6 10.7-0.6z"/>
			</g>
		</g>
	</g>
</svg>