<svg version="1.2" xmlns="http://www.w3.org/2000/svg" viewBox="0 0 374 141" width="374" height="141">
	<title>fundoarmaze-svg</title>
	<defs>
		<clipPath clipPathUnits="userSpaceOnUse" id="cp1">
			<path d="m28.98 13.2h309c8.28 0 15 6.72 15 15v76.67c0 8.28-6.72 15-15 15h-309c-8.28 0-15-6.72-15-15v-76.67c0-8.28 6.72-15 15-15z"/>
		</clipPath>
	</defs>
	<style>
		.s0 { opacity: .3;fill: #f0f0f0 } 
	</style>
	<g>
	</g>
	<g id="Clip-Path" clip-path="url(#cp1)">
		<g>
			<path fill-rule="evenodd" class="s0" d="m246 5.6c1.5 0 4 0.2 5.6 0.3 1.6 0.2 4.3 0.5 6 0.7 1.6 0.3 4.1 0.8 5.5 1.1 1.4 0.3 3.9 0.9 5.5 1.4 1.7 0.5 4.4 1.4 6.1 2 1.7 0.7 4.1 1.6 5.3 2.1 1.2 0.6 3.3 1.6 4.8 2.4 1.5 0.7 4.1 2.3 5.9 3.4 1.8 1.1 4.7 3.1 6.4 4.4 1.6 1.2 4.4 3.5 6.1 5.1 2.4 2.3 3.1 3 3.2 3.7 0.1 0.4 0.2 20.8 0.2 45.2 0 35.2-0.1 44.5-0.3 45.1-0.3 0.6-0.6 1-1.2 1.2-0.7 0.2-12 0.3-61.4 0.3-49.4 0-60.7-0.1-61.4-0.3-0.5-0.2-0.9-0.6-1.1-1.2-0.2-0.6-0.3-10-0.3-45.4 0-42 0-44.7 0.4-45.6 0.3-0.4 1.8-2 3.5-3.5 1.7-1.5 4.4-3.7 6-4.9 1.6-1.2 4.3-3.1 6.1-4.2 1.7-1.1 4.3-2.6 5.8-3.3 1.5-0.8 4.1-2 5.8-2.8 1.8-0.7 4.4-1.8 6-2.3 1.5-0.6 4-1.3 5.6-1.7 1.5-0.5 3.9-1 5.4-1.4 1.5-0.3 4.3-0.8 6.3-1 2.1-0.3 5.5-0.6 7.6-0.7 2.2-0.1 5.2-0.1 6.6-0.1zm-9.8 4.2c-1.8 0.1-4.8 0.4-6.6 0.8-1.9 0.3-4.8 0.9-6.4 1.3-1.6 0.4-4.1 1.1-5.6 1.6-1.4 0.4-3.8 1.3-5.3 1.9-1.4 0.6-3.7 1.6-4.9 2.1-1.3 0.6-3.1 1.6-4.1 2.1-0.9 0.5-2.9 1.7-4.4 2.6-1.5 0.9-3.8 2.5-5.2 3.6-1.4 1-3.2 2.4-4.1 3.1l-1.5 1.3c107.8 0.1 111.2 0.1 110.9-0.3-0.2-0.2-1.4-1.2-2.7-2.2-1.2-1-3.4-2.6-4.7-3.5-1.3-0.9-3.6-2.4-5.2-3.3-1.5-0.9-4.2-2.4-6-3.2-1.8-0.9-4.8-2.2-6.6-2.8-1.8-0.7-4.5-1.6-5.9-2-1.4-0.4-3.7-1.1-5.2-1.4-1.4-0.3-3.9-0.8-5.5-1.1-1.6-0.2-4.3-0.5-5.9-0.7-1.6-0.1-4.1-0.3-5.5-0.3-1.5 0-3.5 0-4.5 0-1 0.1-3.3 0.2-5.1 0.4zm-51.2 110.4h16.2v-67c-2.7 0-3-0.1-3.5-0.5-0.6-0.6-0.6-0.6-0.5-5.9v-5.2c1.2-1.7 2.1-2.5 2.7-2.8l1.1-0.8h85.5c1.7 1.2 2.5 2 3 2.5l0.7 1.1c0.2 10.5 0.2 10.5-0.4 11.1-0.5 0.4-0.9 0.5-2 0.5h-1.5v67h16.2v-28.7c-10.9 0-11 0-11.6-0.6l-0.5-0.5-0.1-20.8c1.2-1.1 1.4-1.1 6.7-1.1h5.5v-34.2h-117.5zm16.8-77.6c-0.4 0.4-0.5 1-0.6 3.7v3.2h85.1c-0.1-6.2-0.2-6.5-0.7-7l-0.6-0.6c-63.3 0-81.9 0-82.2 0.1-0.3 0-0.8 0.3-1 0.6zm3.4 14.5h77.1v-3.8h-77.1zm0 7.6h77.1v-3.8h-77.1zm0 9.6h23.2l1.2 1.1v21.8h23.1l1.2 1.1v21.9h28.4v-51.7h-77.1zm89.2 13.4h8.1v-5.7h-4v-3.8h4v-5.8h-8.1zm-89.2 9.6h20.3v-19.1h-4.1c0.1 6.4 0 6.6-0.5 7.1-0.6 0.5-0.8 0.5-5.5 0.5-4.9 0-5 0-5.5-0.5-0.6-0.5-0.6-0.8-0.6-3.9v-3.2h-4.1zm8.1-15.3h4.1v-3.9h-4.1zm-8.1 38.3h20.3v-19.1h-4.1c0.1 6.4 0 6.6-0.5 7.1-0.6 0.5-0.8 0.5-5.5 0.5-4.9 0-5 0-5.5-0.5-0.6-0.5-0.6-0.8-0.6-3.9v-3.2h-4.1zm8.1-15.3h4.1v-3.9h-4.1zm16.3 15.3h20.2v-19.1h-4c0 6.4-0.1 6.6-0.6 7.1-0.5 0.5-0.8 0.6-5.5 0.6-4.8 0-5 0-5.5-0.6-0.5-0.5-0.6-0.7-0.6-3.8v-3.3h-4zm8.1-15.3h4v-3.8h-4z"/>
		</g>
	</g>
</svg>