<svg version="1.2" xmlns="http://www.w3.org/2000/svg" viewBox="0 0 354 141" width="354" height="141">
	<title>fundocontrole-svg-svg</title>
	<defs>
		<clipPath clipPathUnits="userSpaceOnUse" id="cp1">
			<path d="m28 13.21h290c8.28 0 15 6.72 15 15v76.67c0 8.29-6.72 15-15 15h-290c-8.28 0-15-6.71-15-15v-76.67c0-8.28 6.72-15 15-15z"/>
		</clipPath>
	</defs>
	<style>
		.s0 { opacity: .3;fill: #f0f0f0 } 
	</style>
	<g>
	</g>
	<g id="Clip-Path: Clip-Path" clip-path="url(#cp1)">
		<g id="Clip-Path">
			<g>
				<path fill-rule="evenodd" class="s0" d="m226.1 23c3.6 0 4.1 0.1 4.8 0.5 0.5 0.2 1.2 0.8 1.6 1.1 0.4 0.5 0.9 1.2 1 1.8 0.3 0.5 0.5 1 0.5 1 0 0.1 0.9-0.6 1.8-1.6 1.1-1.1 2.2-2 4-2.8h42.4l1.2 0.6c0.7 0.3 1.5 0.9 2 1.3 0.4 0.4 1 1.1 1.3 1.6 0.3 0.4 1.8 4.7 5.8 18.3l0.1 36c0 22.6 0 36.7-0.2 37.8q-0.1 1.7-0.8 2.9c-0.4 0.8-1.1 1.8-1.7 2.4-0.7 0.5-1.7 1.3-2.4 1.6-0.7 0.3-1.8 0.6-2.6 0.7-0.8 0.2-15.9 0.2-33.6 0.2-18.5 0-32.9-0.1-33.7-0.2-0.9-0.1-2.1-0.4-2.8-0.9-0.8-0.3-1.7-1.1-2.3-1.7-0.6-0.5-1.3-1.6-1.6-2.3-0.3-0.8-0.7-2-0.8-2.9-0.1-0.8-0.1-17.8 0-73.6l6.6-13.3 0.2-2.5c0.2-2 0.3-2.4 0.8-3.3q0.5-1.1 1.6-1.8c0.6-0.4 1.5-0.7 1.9-0.8 0.5-0.1 2.7-0.1 4.9-0.1zm10.4 7l-3.2 3.3h-13.5c-4 7.9-5.1 10.3-5.1 10.3 0.1 0 16.6 0 36.9 0l36.9-0.1c-3.2-10.3-4.2-13.7-4.3-14.1-0.1-0.5-0.6-1.3-1-1.7-0.6-0.7-1.1-0.9-1.8-1.1-0.6-0.1-8.7-0.2-20.7-0.2-11.4 0-19.9 0.1-20.3 0.2-0.4 0.2-1.9 1.5-3.9 3.4zm-15.7-3c-0.2 0.2-0.4 0.9-0.4 1.6l-0.2 1.2h10.6c-0.3-2-0.6-2.6-0.8-2.9-0.4-0.4-0.8-0.4-4.1-0.5-2.1 0-4 0.1-4.3 0.1-0.2 0.1-0.6 0.3-0.8 0.5zm12.7 5.9c4.6-4.5 6-5.8 6-5.8q0-0.1-0.1-0.1c0 0-1.4 1.4-3 3zm-20.1 14.1v65.5h75.8v-65.5zm0.1 70.6c0.1 1.1 0.3 1.9 0.7 2.6 0.5 0.8 1 1.3 1.6 1.8 0.6 0.3 1.6 0.7 2.2 0.7 0.6 0.1 15.6 0.2 33.2 0.2 17.8 0 32.7-0.1 33.3-0.2 0.6 0 1.6-0.4 2.2-0.7 0.7-0.5 1.2-1 1.6-1.8 0.4-0.7 0.7-1.5 0.8-2.6l0.1-1.6h-75.9z"/>
				<path fill-rule="evenodd" class="s0" d="m278.3 30l1.2 0.6c0.8 0.5 1.3 1 1.9 1.8 0.6 1 0.7 1.4 0.7 2.6 0 1.2-0.1 1.6-0.7 2.6-0.6 0.8-1.1 1.3-3.1 2.5h-23l-1.2-0.7c-0.9-0.5-1.4-1-1.9-1.8-0.6-1-0.7-1.4-0.7-2.6 0-1.2 0.1-1.6 0.6-2.5 0.5-0.8 1-1.4 1.7-1.8 0.6-0.2 1.5-0.7 1.9-0.7 0.5 0 5.7-0.1 22.6 0zm-23 3.9c-0.2 0.2-0.4 0.6-0.4 1.1 0 0.5 0.2 0.9 0.5 1.2 0.4 0.4 0.8 0.4 11.4 0.4 10.7 0 10.9 0 11.3-0.4 0.4-0.3 0.6-0.7 0.6-1.2 0-0.5-0.2-0.9-0.6-1.2-0.4-0.4-0.7-0.5-10.9-0.5-5.9 0-10.9 0-11.1 0.1-0.2 0.1-0.6 0.3-0.8 0.5zm-2.8 16.8c0.8 0 2.4 0.2 3.6 0.4 1.2 0.2 3 0.6 4.1 1 1 0.3 2.7 0.9 3.7 1.4 0.9 0.5 2.7 1.5 3.8 2.2 1.1 0.8 2.8 2.2 3.9 3.3 1.1 1.1 2.5 2.6 3.1 3.4 0.5 0.8 1.3 2 1.8 2.9 0.5 0.8 1.3 2.4 1.7 3.4 0.5 1.1 1 2.7 1.3 3.7 0.2 1 0.5 2.4 0.7 3.3 0.1 0.8 0.1 2.7 0.1 4.1 0 1.6 0 3.6-0.3 4.9-0.2 1.2-0.7 3-1 4.1-0.3 1.1-0.9 2.7-1.4 3.5-0.4 0.9-1.3 2.6-2.2 3.8-0.8 1.3-2.2 3-3.5 4.3-1.4 1.4-3 2.8-4.3 3.6-1.2 0.8-3 1.8-3.8 2.2-0.9 0.5-2.6 1.1-3.6 1.4-1.1 0.3-2.9 0.8-4.1 1-1.2 0.2-3.3 0.3-4.8 0.3-1.5 0-3.7-0.1-4.8-0.3-1.2-0.2-3.1-0.7-4.2-1-1-0.3-2.6-0.9-3.5-1.4-0.9-0.4-2.6-1.4-3.7-2.2-1.4-0.8-3.1-2.2-4.4-3.6-1.3-1.3-2.7-2.9-3.6-4.3-0.7-1.2-1.8-2.9-2.2-3.8-0.4-0.8-1-2.4-1.2-3.3-0.4-0.9-0.9-2.7-1.1-3.9-0.3-1.5-0.4-3-0.4-5.3 0-2.2 0.1-3.7 0.4-5.2 0.2-1.2 0.7-3 1.1-3.9 0.2-0.9 0.8-2.5 1.2-3.4 0.4-0.8 1.5-2.5 2.2-3.7 0.9-1.4 2.3-3.1 3.6-4.4 1.3-1.3 3-2.7 4.4-3.6 1.1-0.7 2.8-1.7 3.7-2.2 0.9-0.4 2.3-1 3.2-1.2 0.9-0.4 2.4-0.7 3.3-0.9 0.8-0.2 2.5-0.5 3.6-0.6 1.1 0 2.7 0 3.6 0zm-7.8 4.2c-1.4 0.4-3.1 1.1-4.7 1.8-1.5 0.8-3.2 1.9-4.1 2.5-0.8 0.6-2.2 1.8-3 2.7-0.9 0.8-2.1 2.3-2.7 3.2-0.6 0.9-1.6 2.7-2.2 3.9-0.5 1.2-1.3 3.1-1.6 4.3-0.3 1.2-0.6 3.1-0.7 4.3-0.1 1.2-0.1 3.1 0 4.4 0.1 1.3 0.3 3 0.6 3.9 0.2 0.8 0.7 2.4 1.1 3.3 0.3 1 1.2 2.6 1.7 3.6l1.2 2h-0.1c12.4-12.2 15.9-15.8 15.9-15.8q0 0-0.1 0c0 0-3.4 3.5-7.7 7.7 6-6.1 8-8.2 8-8.3 0-0.2-0.5-0.3-2.1-0.3h-2.2l-4.9 4.8h-0.1c3.7-3.6 4.8-4.7 4.8-4.7q0-0.1-0.1-0.1c0 0-1.1 1.1-2.3 2.5l-2.4 2.3-2.6-2.7 1.3-1.2c-0.7 0.7-1.2 1.3-1.2 1.3 0.1 0 1.2-1.2 2.7-2.6 1-1 1.9-2 2.3-2.4q0-0.1 0-0.1c-0.2 0.2-1.3 1.2-2.5 2.5q-0.8 0.7-1.3 1.3l3.8-3.7q0 0 0 0 0 0 0 0l0.1-0.1q0.1-0.1 0-0.1l0.5-0.4h5.2c-0.6-1.1-0.8-1.9-0.9-2.5l-0.1-1h-4l-5 4.9v-0.1c3.7-3.6 4.8-4.7 4.8-4.7q0-0.1-0.1-0.1c0 0-1.1 1.1-2.4 2.4l-2.3 2.4-2.6-2.6 1.3-1.4c-0.8 0.9-1.3 1.4-1.2 1.4 0.1 0 1.2-1.2 2.7-2.6 1-1.1 2-2 2.3-2.4q0 0 0 0 0 0 0 0c-0.3 0.2-0.9 0.8-1.7 1.5l1.7-1.7q0 0.1 0 0.2 0.1-0.1 0.1-0.2l0.5-0.4h6v-9.4c1.1-0.9 1.4-1 3.2-1h2v3.5h-1.8v4.3c1.6-0.8 2.3-0.9 3.5-0.9 1.2 0 1.8 0.1 2.5 0.5l0.9 0.4v-4.3h-1.7v-3.5c4 0 4.3 0.1 4.7 0.5 0.4 0.4 0.5 0.6 0.5 4.7v4.2l7.9-7.9c-1.7-1.2-2.7-1.8-3.4-2.2-0.6-0.2-2-0.8-3.1-1.1-0.9-0.4-2.6-0.9-3.6-1.1-1-0.1-2.5-0.3-3.5-0.4-0.8 0-2.5 0-3.6 0.1-1.1 0.1-3 0.4-4.2 0.7zm-14.4 39.9l7.8-7.9q0.1-0.1 0.2-0.2c-2.1 2.2-4.8 4.8-8 8.1zm27.7-27.8c6.4-6.2 8.1-8 8.1-8.1q0 0 0 0c0 0-1.8 1.8-4 4.1zm4.5 0.8c1 0 1.5 0 2.5 0.9q0 0 0 0.1 0.1 0 0.2 0.1c0.4 0.4 1.1 1.1 1.8 1.8 1.4 1.4 2.7 2.6 2.7 2.6 0 0-0.3-0.3-0.8-0.9l0.9 0.9-2.7 2.7-1.2-1.2c0.7 0.7 1.2 1.1 1.2 1.1 0.1 0-0.9-1.1-2.2-2.3-1.2-1.4-2.3-2.4-2.4-2.4-0.1 0 0.5 0.7 1.4 1.6l-1.6-1.6c-3-0.1-3.3 0-3.7 0.4-0.3 0.3-0.6 0.8-0.7 1.2-0.1 0.4-0.2 0.9-0.4 1.2l-0.3 0.6h5.2l0.5 0.6c0.2 0.3 1.2 1.3 2.4 2.4 1.4 1.5 2.6 2.7 2.7 2.7 0 0-0.3-0.4-0.9-1l0.9 1-2.7 2.6-1.3-1.4c0.8 0.8 1.3 1.3 1.3 1.3 0.1 0-0.8-1-2.2-2.4-1.2-1.2-2.3-2.3-2.4-2.3-0.1 0 0.6 0.7 1.5 1.7l-1.7-1.7h-4.3c0 3.6 0 3.7 0.6 3.8 0.3 0.1 0.9 0.6 1.4 0.9 0.4 0.4 1 1.2 1.1 1.6 0.3 0.5 0.5 1.2 0.5 1.6v0.7h4.3l0.5 0.5c0.2 0.2 0.7 0.8 1.5 1.7 1 0.9 1.8 1.7 1.9 1.7 0 0-0.2-0.3-0.6-0.7l0.6 0.7-2.7 2.7-0.6-0.7c0.4 0.3 0.6 0.6 0.6 0.6 0.1 0-0.5-0.7-1.2-1.5-0.9-0.9-1.5-1.6-1.6-1.6-0.1 0 0.1 0.4 0.5 0.8l-0.7-0.8h-2.5c0 2.6-0.2 3.8-0.4 4.3-0.1 0.6-0.6 1.6-1.1 2.2-0.4 0.6-1.2 1.7-1.9 2.4-0.7 0.6-2 1.6-2.9 2.2-1.1 0.8-1.8 1-2.3 1-0.6 0-1.2-0.2-2.4-1-0.9-0.6-2.1-1.6-2.8-2.2-0.7-0.7-1.5-1.7-1.9-2.3-0.5-0.6-1-1.6-1.1-2.2-0.4-0.8-0.5-1.7-0.5-3.9v-2.9q0.1-0.1 0.1-0.1c-0.1 0-2.3 2.2-5 5l-2.5 2.5-2.4 2.5q0 0 0 0v0.1q0-0.1 0-0.1c2 1.9 3.3 2.9 4.1 3.5 0.8 0.6 2.1 1.4 2.9 1.7 0.6 0.4 2.1 0.9 3.2 1.4 1.1 0.3 2.8 0.8 3.8 1 1 0.1 3 0.2 4.6 0.2 1.7 0 3.5-0.1 4.6-0.3 1-0.2 2.6-0.6 3.4-0.9 1-0.3 2.5-1 3.5-1.5 1-0.5 2.5-1.3 3.3-1.9 0.8-0.6 2.3-1.9 3.3-2.8 0.9-0.9 2.2-2.5 2.9-3.5 0.6-0.9 1.6-2.7 2.2-3.9 0.6-1.1 1.2-3.1 1.6-4.3 0.2-1.1 0.6-3.1 0.7-4.4 0.1-1.3 0.1-3 0-4.3-0.1-1.1-0.3-2.7-0.6-3.4-0.1-0.8-0.5-2.1-0.8-3.1-0.3-0.8-0.8-2.1-1.3-2.8-0.3-0.7-1.1-2.1-1.7-2.9-0.6-0.9-1.6-2.1-2.2-2.9l-1.2-1.3-1.1 1.1c0.6-0.6 1-1.1 0.9-1.1 0 0-1.5 1.5-3.3 3.3-1.8 1.7-3.2 3.3-3.1 3.3 0 0 1-1 2.3-2.2zm-20 19.9c-0.4 0.5-2.9 3-9.8 9.9q0 0 0 0l2.4-2.5 7.4-7.4zm20.5 3.2l0.7 0.7q0 0 0 0-0.4-0.4-0.7-0.7zm0.8 0.8l-0.1-0.1q0.1 0 0.1 0.1zm4.1-29.4q-0.4 0.3-0.8 0.7zm-4.9 12.9q-0.2-0.1-0.1-0.1c0.1 0 1.3 1.1 2.7 2.5 0.6 0.6 1.1 1.2 1.6 1.6zm2-6.5q-0.5-0.5-0.4-0.5c0 0 1.3 1.1 2.7 2.6 0.6 0.6 1.1 1.2 1.6 1.7l-2-2c-0.7-0.7-1.3-1.3-1.7-1.7q-0.1 0-0.2-0.1 0 0 0 0zm-0.4-3.2l0.9-0.7q-0.4 0.4-0.9 0.7zm2.5-2.4q-0.4 0.5-1 1.1zm-1.4 1.4q-0.1 0.2-0.2 0.3c-0.1 0.1 0.3-0.4 0.2-0.3zm-16.8 4.4c-0.4 0.4-0.8 1.1-0.9 1.6-0.1 0.5-0.1 1.1 0 1.6 0.2 0.4 0.5 1 0.8 1.4 0.3 0.3 0.8 0.6 1.1 0.8 0.5 0.2 0.7 0 2.6-1.8 1.5-1.6 1.9-2.2 1.8-2.4-0.1-0.3-0.4-0.8-0.8-1.2-0.4-0.4-1-0.8-1.2-0.8-0.3 0-0.7-0.1-0.8-0.2-0.2 0-0.7 0-1.1 0.1-0.5 0.1-1.1 0.5-1.5 0.9zm-13.9 2q-0.6 0.7-1.1 1.1zm0.1-0.1q0.5-0.5 0.9-0.9l-1 1q0 0 0.1-0.1zm15.3 3.8c3.1-3.1 4-3.9 4-4-0.1 0-1 0.8-2 1.9zm13.5-1.6l2 2c-0.4-0.4-0.8-0.9-1.4-1.3q-0.3-0.4-0.6-0.7zm-1 7.6q0.1 0.2 0.3 0.3l-1-0.9q0.3 0.2 0.7 0.6zm1.1 1.1q-0.4-0.3-0.8-0.8zm-14-0.5c0.2 0.2 0.7 0.4 1.2 0.4 0.4 0 0.9-0.2 1.1-0.4 0.2-0.2 0.4-0.7 0.4-1.1 0-0.6-0.2-1-0.4-1.1-0.4-0.5-0.5-0.4-1.6 0.6-1.1 1.1-1.1 1.2-0.7 1.6zm-3.4 4.6c-0.3 0.3-0.4 0.9-0.5 1.6l-0.2 1.3h10.6c-0.3-2.1-0.5-2.6-0.8-2.9-0.4-0.4-0.7-0.4-4.1-0.5-2 0-4 0-4.2 0.1-0.3 0.1-0.6 0.2-0.8 0.4zm20.9 4.4l-2.9-2.7q0-0.1 0-0.1c0.1 0 0.9 0.8 1.9 1.7 0.3 0.4 0.6 0.8 1 1.1zm-21.2 2.9c0.1 0.5 0.6 1.4 1.1 2.1 0.4 0.7 1.4 1.7 2.2 2.3 0.8 0.6 1.6 1.1 1.6 1.1 0.1 0 0.9-0.5 1.7-1.1 0.8-0.6 1.8-1.6 2.2-2.3 0.5-0.7 1-1.6 1.1-2.1l0.2-1h-10.2zm-24.5-42c1 0 1.6 0.1 2.3 0.5 0.5 0.2 1.1 0.6 1.4 1 0.3 0.3 0.7 0.9 0.9 1.4 0.3 0.5 0.4 1.4 0.4 2.1 0 0.6-0.1 1.5-0.4 2-0.2 0.5-0.6 1.1-0.9 1.4-0.3 0.4-0.9 0.8-1.4 1-0.7 0.4-1.3 0.5-2.3 0.5-1.1 0-1.5-0.1-2.5-0.6-0.8-0.5-1.2-1-1.7-1.8-0.6-0.9-0.7-1.4-0.7-2.5 0-1.2 0.1-1.7 0.7-2.6 0.5-0.8 0.9-1.3 1.7-1.8 1-0.5 1.4-0.6 2.5-0.6zm-1.1 3.9c-0.2 0.1-0.4 0.6-0.4 1q0 0.6 0.4 1.1c0.2 0.3 0.7 0.5 1.1 0.5 0.4 0.1 0.8-0.1 1.1-0.4 0.3-0.2 0.5-0.6 0.5-1.1 0-0.5-0.2-1-0.4-1.1-0.2-0.2-0.5-0.5-0.7-0.5-0.3-0.1-0.6-0.1-0.9 0-0.2 0-0.5 0.2-0.7 0.5zm6.3 51.1v3.4h-10.3v-3.4zm58.6 0v3.4h-3.4v-3.4zm-21.7-14.1v0.1q0 0 0-0.1zm0.6 0.8q-0.3-0.3-0.7-0.8zm-29.5-16.4q0 0 0.1 0zm1.8 6.9q0 0 0-0.1z"/>
			</g>
		</g>
	</g>
</svg>