<svg version="1.2" xmlns="http://www.w3.org/2000/svg" viewBox="0 0 343 130" width="343" height="130">
	<title>fundotransporte-svg</title>
	<defs>
		<clipPath clipPathUnits="userSpaceOnUse" id="cp1">
			<path d="m18.98 13.87h309c8.28 0 15 6.71 15 15v76.67c0 8.28-6.72 15-15 15h-309c-8.28 0-15-6.72-15-15v-76.67c0-8.29 6.72-15 15-15z"/>
		</clipPath>
	</defs>
	<style>
		.s0 { opacity: .3;fill: #f0f0f0 } 
	</style>
	<g>
	</g>
	<g id="Clip-Path" clip-path="url(#cp1)">
		<g>
			<path fill-rule="evenodd" class="s0" d="m111.1 8.3h66.1c65.5 0 66.1 0 66.9 0.8 0.8 0.7 0.8 1.2 0.8 18.8h17.2c13 0 17.6 0.1 18.7 0.5 1.2 0.5 2.6 2.5 28.6 44.6v17.2c0 14.7-0.1 17.4-0.6 18.1-0.6 0.8-0.8 0.9-13.3 0.9l-0.2 1.1c-0.1 0.5-0.5 1.9-0.9 2.9-0.4 1.1-1.4 3-2.3 4.2-0.9 1.3-2.5 3-3.5 3.8-1 0.8-2.9 2-4.2 2.6-1.3 0.7-3.4 1.4-4.7 1.7-1.3 0.3-3.4 0.6-4.6 0.6-1.2 0-3.4-0.3-4.9-0.6-1.5-0.3-3.7-1.2-5.1-1.8-1.3-0.7-3.5-2.2-4.7-3.4-1.3-1.2-2.9-3.1-3.6-4.5-0.7-1.3-1.5-3.3-2.4-6.4h-84.8l-0.6 2.1c-0.4 1.1-1.4 3.2-2.1 4.6-0.8 1.4-2.4 3.3-4 4.7-1.4 1.3-3.6 2.7-5.1 3.4-1.4 0.6-3.5 1.3-4.7 1.5-1.1 0.2-3.1 0.4-4.2 0.4-1.1 0-3-0.2-4.2-0.4-1.1-0.2-3.2-0.9-4.7-1.5-1.3-0.7-3.6-2.1-4.9-3.2-1.2-1.2-2.9-3-3.7-4.2-0.8-1.1-1.8-3.2-3.2-7.4l-8.7-0.1c-8.5-0.1-8.7-0.2-9.5-1-0.7-0.8-0.7-3.4-0.8-98.2zm4.3 84.3c17.6 0 18.7-0.1 19.2-0.6 0.4-0.4 1.7-1.4 3.1-2.2 1.3-0.8 3.6-1.8 5.1-2.2 1.8-0.5 3.8-0.8 6.1-0.8 2.3 0 4.4 0.3 6.1 0.8 1.5 0.4 3.8 1.4 5.2 2.2 1.3 0.8 2.7 1.8 3 2.2 0.6 0.6 3.2 0.6 38.1 0.6h37.5v-78.6h-123.4zm129.9 10.8h9c0.4-2.5 1.2-4.4 2-5.9 0.8-1.6 2.3-3.6 3.7-4.9 1.2-1.1 3.3-2.6 4.7-3.3 1.3-0.7 3.5-1.5 4.7-1.8 1.2-0.4 3.7-0.6 5.5-0.6 1.8 0 4.3 0.2 5.5 0.5 1.2 0.3 3.1 1 4.3 1.6 1.1 0.5 2.9 1.7 4.1 2.6 1.1 0.9 2.7 2.6 3.5 3.8 0.8 1.1 1.9 3.4 2.5 4.9l1.1 2.9 7.4 0.2v-26.2l-47.9-0.2-1.9-2.1c0-27.9 0.1-31.4 0.5-32.2 0.3-0.6 0.8-1.2 1.2-1.4 0.4-0.1 6.6-0.3 13.8-0.3 7.2 0 13-0.1 13-0.2 0-0.2-0.9-1.8-1.9-3.5l-1.9-3.2h-32.9zm15.1-32.7c31 0 40-0.1 40-0.3 0-0.1-3.2-5.4-7.1-11.7l-7-11.3-25.9-0.2zm-119.2 24.4c-0.8 0.5-2.2 1.7-3.2 2.8-1 1-2.1 2.8-2.6 4-0.7 1.7-0.8 2.8-0.7 5.4 0.1 2.4 0.4 3.7 1.2 5 0.4 0.9 1.4 2.3 2 3.1 0.6 0.7 2 1.8 3.1 2.5 1.1 0.7 3.2 1.6 4.7 1.9 2.1 0.5 3.1 0.6 5.1 0.3 1.3-0.2 3.3-0.8 4.5-1.3 1.1-0.5 2.7-1.7 3.7-2.6 1-0.9 2.3-2.6 2.9-3.8 1-2 1.1-2.7 1.1-5.9 0-3.3-0.1-3.9-1.2-5.9-0.7-1.3-2-3-3-3.8-0.9-0.8-2.7-1.9-3.8-2.5-1.7-0.8-2.9-1-5.5-1.2-2.2 0-3.8 0.1-5.1 0.5-1 0.4-2.5 1.1-3.2 1.5zm125.5 0.5c-1 0.6-2.4 1.9-3.2 2.9-0.8 0.9-1.8 2.5-2.2 3.6-0.4 1.1-0.7 3.1-0.7 4.8 0 2.5 0.2 3.3 1.3 5.4 0.8 1.6 2 3.1 3.5 4.3 1.2 1.1 3.1 2.2 4.2 2.6 1.1 0.4 2.8 0.8 3.7 1 0.9 0.1 2.7 0 4-0.2 1.4-0.3 3.2-0.9 4.1-1.3 0.9-0.4 2.5-1.5 3.5-2.4 1.1-0.9 2.3-2.6 3.1-4.1 1-2.1 1.2-2.9 1.2-5.7 0-2.8-0.2-3.6-1.1-5.5-0.7-1.2-2-3-3-3.9-1-1-2.9-2.2-4.2-2.8-1.7-0.8-3.2-1.1-5.4-1.2-2.2-0.1-3.6 0.1-5.1 0.6-1.1 0.4-2.8 1.2-3.7 1.9zm-151.3 7.8h12.7c0.6-2.5 0.9-3.6 1-3.9 0.2-0.7-0.3-0.7-6.7-0.7h-7zm53.9-2l0.7 2h68.8v-4.6c-54.5 0-70.3 0.1-70.3 0.3 0 0.1 0.4 1.2 0.8 2.3z"/>
		</g>
	</g>
</svg>