<svg width="34" height="31" viewBox="0 0 34 31" fill="none" xmlns="http://www.w3.org/2000/svg">
<path d="M14.4545 30.571C15.8268 30.571 16.9392 29.4586 16.9392 28.0863C16.9392 26.714 15.8268 25.6016 14.4545 25.6016C13.0822 25.6016 11.9697 26.714 11.9697 28.0863C11.9697 29.4586 13.0822 30.571 14.4545 30.571Z" fill="#008B47"/>
<path d="M26.0497 30.571C27.422 30.571 28.5344 29.4586 28.5344 28.0863C28.5344 26.714 27.422 25.6016 26.0497 25.6016C24.6774 25.6016 23.5649 26.714 23.5649 28.0863C23.5649 29.4586 24.6774 30.571 26.0497 30.571Z" fill="#008B47"/>
<path d="M18.5955 17.3191H21.9085V12.3662H26.8614V9.05323H21.9085V4.11688H18.5955V9.05323H13.6426V12.3662H18.5955V17.3191Z" fill="#008B47"/>
<path d="M13.6265 23.9451H26.8784C27.2121 23.9441 27.5377 23.8423 27.8126 23.6532C28.0875 23.464 28.2988 23.1962 28.4189 22.8849L33.1068 10.6931H29.5619L25.7354 20.6321H14.7363L7.29865 2.79164C7.04648 2.18713 6.62076 1.67093 6.07531 1.30827C5.52986 0.945621 4.88915 0.752794 4.23414 0.754158H0.374512V4.06714H4.23414L12.1025 22.918C12.2268 23.2205 12.4378 23.4795 12.709 23.6623C12.9802 23.845 13.2994 23.9434 13.6265 23.9451Z" fill="#008B47"/>
</svg>
