<svg width="30" height="27" viewBox="0 0 30 27" fill="none" xmlns="http://www.w3.org/2000/svg">
<path d="M28.9992 6.51629C28.8657 6.32332 28.6874 6.1656 28.4796 6.05663C28.2718 5.94767 28.0406 5.89071 27.806 5.89063H7.96626L6.29106 1.86955C6.07141 1.34002 5.69947 0.887638 5.22239 0.56976C4.74531 0.251881 4.18459 0.082823 3.61131 0.0840212H0.224609V2.98732H3.61131L10.4979 19.5144C10.6082 19.7788 10.7943 20.0047 11.0328 20.1635C11.2712 20.3224 11.5513 20.4072 11.8378 20.4071H23.451C24.0564 20.4071 24.5978 20.0312 24.8112 19.4665L29.1662 7.85326C29.2485 7.63351 29.2763 7.39708 29.2472 7.16423C29.2181 6.93138 29.1331 6.70905 28.9992 6.51629ZM22.445 17.5038H12.8061L9.17694 8.79393H25.7112L22.445 17.5038Z" fill="#008B47"/>
<path d="M12.5632 26.2137C13.7658 26.2137 14.7407 25.2388 14.7407 24.0362C14.7407 22.8337 13.7658 21.8588 12.5632 21.8588C11.3606 21.8588 10.3857 22.8337 10.3857 24.0362C10.3857 25.2388 11.3606 26.2137 12.5632 26.2137Z" fill="#008B47"/>
<path d="M22.7253 26.2137C23.9279 26.2137 24.9028 25.2388 24.9028 24.0362C24.9028 22.8337 23.9279 21.8588 22.7253 21.8588C21.5227 21.8588 20.5479 22.8337 20.5479 24.0362C20.5479 25.2388 21.5227 26.2137 22.7253 26.2137Z" fill="#008B47"/>
</svg>
