<svg width="35" height="31" viewBox="0 0 35 31" fill="none" xmlns="http://www.w3.org/2000/svg">
<path d="M11.6955 24.1013C10.693 23.7477 9.57685 23.8983 8.7147 24.5205C8.16666 24.9135 7.22431 25.4898 6.08147 26.0072C6.45573 25.0444 6.74312 23.9573 6.83668 22.7718C6.90352 21.927 6.61613 21.0887 6.04805 20.4468C4.49083 18.7244 3.6621 16.7072 3.6621 14.6114C3.6621 9.40469 9.22931 4.1325 17.5634 4.1325C25.8975 4.1325 31.4648 9.40469 31.4648 14.6114C31.4648 19.8181 25.8975 25.0903 17.5634 25.0903C15.4515 25.0903 13.4665 24.7301 11.6955 24.1013ZM2.21182 26.649C2.10488 26.8259 1.99127 27.0027 1.87097 27.1795L1.85092 27.2123C1.74398 27.3629 1.63705 27.5135 1.53012 27.6642C1.2962 27.972 1.04223 28.2733 0.774901 28.5483C0.467468 28.8496 0.380585 29.2949 0.547668 29.6879C0.714751 30.0809 1.10238 30.3363 1.5368 30.3363C1.87765 30.3363 2.2185 30.3166 2.55935 30.2839L2.60613 30.2773C2.9002 30.2446 3.19427 30.2053 3.48833 30.1529C3.5418 30.1464 3.59527 30.1333 3.64873 30.1202C4.83837 29.8909 5.98122 29.498 6.99708 29.0657C8.52757 28.4108 9.83081 27.6314 10.6261 27.0616C12.7514 27.8148 15.104 28.234 17.5835 28.234C27.0337 28.234 34.6928 22.1366 34.6928 14.6114C34.6928 7.08624 27.0137 0.988831 17.5634 0.988831C8.1132 0.988831 0.454102 7.08624 0.454102 14.6114C0.454102 17.5651 1.63705 20.2962 3.64205 22.5295C3.51507 24.1341 2.88015 25.5618 2.21182 26.649ZM10.0781 16.7072C10.6453 16.7072 11.1893 16.4864 11.5904 16.0933C11.9914 15.7003 12.2168 15.1672 12.2168 14.6114C12.2168 14.0556 11.9914 13.5225 11.5904 13.1295C11.1893 12.7364 10.6453 12.5156 10.0781 12.5156C9.51089 12.5156 8.96691 12.7364 8.56583 13.1295C8.16475 13.5225 7.93943 14.0556 7.93943 14.6114C7.93943 15.1672 8.16475 15.7003 8.56583 16.0933C8.96691 16.4864 9.51089 16.7072 10.0781 16.7072ZM19.7021 14.6114C19.7021 14.0556 19.4768 13.5225 19.0757 13.1295C18.6746 12.7364 18.1306 12.5156 17.5634 12.5156C16.9962 12.5156 16.4522 12.7364 16.0512 13.1295C15.6501 13.5225 15.4248 14.0556 15.4248 14.6114C15.4248 15.1672 15.6501 15.7003 16.0512 16.0933C16.4522 16.4864 16.9962 16.7072 17.5634 16.7072C18.1306 16.7072 18.6746 16.4864 19.0757 16.0933C19.4768 15.7003 19.7021 15.1672 19.7021 14.6114ZM25.0488 16.7072C25.616 16.7072 26.1599 16.4864 26.561 16.0933C26.9621 15.7003 27.1874 15.1672 27.1874 14.6114C27.1874 14.0556 26.9621 13.5225 26.561 13.1295C26.1599 12.7364 25.616 12.5156 25.0488 12.5156C24.4815 12.5156 23.9376 12.7364 23.5365 13.1295C23.1354 13.5225 22.9101 14.0556 22.9101 14.6114C22.9101 15.1672 23.1354 15.7003 23.5365 16.0933C23.9376 16.4864 24.4815 16.7072 25.0488 16.7072Z" fill="#008B47"/>
</svg>
