<svg width="26" height="31" viewBox="0 0 26 31" fill="none" xmlns="http://www.w3.org/2000/svg">
<path fill-rule="evenodd" clip-rule="evenodd" d="M21.9586 0.993013L22.3859 1.13756C22.6225 1.21641 22.9512 1.37409 23.1287 1.48579C23.2996 1.59092 23.5757 1.82088 23.74 1.99828C23.9044 2.16911 24.1279 2.45821 24.2265 2.63561C24.3317 2.81958 24.4566 3.12838 24.5157 3.3255C24.6143 3.65401 24.6209 4.90895 24.6209 16.1706C24.6209 27.3205 24.6143 28.6871 24.5223 28.9499C24.4631 29.1142 24.3382 29.3573 24.2396 29.5019C24.141 29.6398 23.9438 29.8369 23.7992 29.9421C23.6546 30.0406 23.4048 30.172 23.2404 30.2312C23.0695 30.2903 22.754 30.3363 22.4845 30.3363C22.1426 30.3297 21.9389 30.2903 21.6956 30.172C21.5116 30.0866 19.5395 28.5557 17.2913 26.7554C14.2543 24.3244 13.1499 23.4768 12.9527 23.4243C12.8081 23.3848 12.5846 23.3717 12.4597 23.398C12.3348 23.4243 12.1573 23.49 12.0653 23.5491C11.9732 23.6082 10.126 25.0734 7.95674 26.808C5.78744 28.5492 3.84822 30.0538 3.65101 30.1523C3.36177 30.2969 3.19743 30.3363 2.8293 30.3363C2.56636 30.3363 2.24425 30.2903 2.07333 30.2312C1.90899 30.172 1.6592 30.0406 1.51458 29.9421C1.36996 29.8369 1.17275 29.6398 1.07414 29.5019C0.975537 29.3573 0.850638 29.1142 0.791476 28.9499C0.699445 28.6871 0.692871 27.3205 0.692871 16.1706C0.692871 4.94181 0.699445 3.64744 0.798049 3.3255C0.857212 3.12838 0.975537 2.83272 1.07414 2.66846C1.16617 2.5042 1.31737 2.27424 1.4094 2.15597C1.50143 2.0377 1.7578 1.80117 1.97473 1.64348C2.19166 1.47922 2.53349 1.28868 2.7307 1.21641C2.92791 1.13756 3.26974 1.05872 3.48667 1.02587C3.7036 0.999584 7.95016 0.979873 21.9586 0.993013ZM3.17113 3.35835C3.07253 3.45033 2.94763 3.60802 2.89504 3.71972C2.80958 3.89055 2.79643 5.37545 2.81615 16.0457L2.8293 28.1746C9.02166 23.2271 10.974 21.7094 11.1647 21.6108C11.3487 21.5189 11.6577 21.4006 11.8352 21.3546C12.0192 21.302 12.3874 21.2626 12.6569 21.2626C12.9264 21.2626 13.3011 21.302 13.4786 21.348C13.6627 21.4006 13.9848 21.532 14.2017 21.6503C14.4186 21.7685 16.371 23.2929 18.5403 25.0471L22.4845 28.2338C22.5173 5.37545 22.5042 3.89055 22.4187 3.71972C22.3661 3.61459 22.2412 3.45033 22.1426 3.35835C22.0375 3.26636 21.8205 3.16781 21.6496 3.12838C21.4458 3.08896 18.2905 3.06268 12.6109 3.06925C7.73981 3.07582 3.76276 3.1021 3.61814 3.13495C3.47352 3.16781 3.27631 3.26636 3.1777 3.35835H3.17113Z" fill="#008B47" stroke="#008B47"/>
</svg>
