<svg width="31" height="30" viewBox="0 0 31 30" fill="none" xmlns="http://www.w3.org/2000/svg">
<path d="M30.6276 27.8436L20.8889 18.1049C22.4002 16.1512 23.2177 13.7624 23.2177 11.25C23.2177 8.24247 22.0439 5.42248 19.9214 3.29624C17.7989 1.17 14.9715 0 11.9677 0C8.96399 0 6.1365 1.17375 4.01401 3.29624C1.88777 5.41873 0.717773 8.24247 0.717773 11.25C0.717773 14.2537 1.89152 17.0812 4.01401 19.2037C6.1365 21.3299 8.96024 22.4999 11.9677 22.4999C14.4802 22.4999 16.8652 21.6824 18.8189 20.1749L28.5577 29.9099C28.5862 29.9385 28.6201 29.9611 28.6574 29.9766C28.6948 29.9921 28.7348 30 28.7752 30C28.8155 30 28.8555 29.9921 28.8929 29.9766C28.9302 29.9611 28.9641 29.9385 28.9927 29.9099L30.6276 28.2786C30.6562 28.2501 30.6789 28.2162 30.6943 28.1789C30.7098 28.1415 30.7178 28.1015 30.7178 28.0611C30.7178 28.0207 30.7098 27.9807 30.6943 27.9434C30.6789 27.9061 30.6562 27.8722 30.6276 27.8436ZM17.9077 17.1899C16.3177 18.7762 14.2102 19.6499 11.9677 19.6499C9.72523 19.6499 7.61774 18.7762 6.02775 17.1899C4.44151 15.5999 3.56776 13.4924 3.56776 11.25C3.56776 9.00747 4.44151 6.89622 6.02775 5.30998C7.61774 3.72374 9.72523 2.84999 11.9677 2.84999C14.2102 2.84999 16.3215 3.71999 17.9077 5.30998C19.4939 6.89997 20.3677 9.00747 20.3677 11.25C20.3677 13.4924 19.4939 15.6037 17.9077 17.1899Z" fill="#8E8E8E"/>
</svg>
