<svg width="30" height="31" viewBox="0 0 30 31" fill="none" xmlns="http://www.w3.org/2000/svg">
<path fill-rule="evenodd" clip-rule="evenodd" d="M20.1166 11.6606C20.1166 14.6075 17.7276 16.9965 14.7807 16.9965C11.8338 16.9965 9.44482 14.6075 9.44482 11.6606C9.44482 8.71367 11.8338 6.32471 14.7807 6.32471C17.7276 6.32471 20.1166 8.71367 20.1166 11.6606ZM17.4487 11.6606C17.4487 13.1341 16.2542 14.3286 14.7807 14.3286C13.3072 14.3286 12.1128 13.1341 12.1128 11.6606C12.1128 10.1871 13.3072 8.99266 14.7807 8.99266C16.2542 8.99266 17.4487 10.1871 17.4487 11.6606Z" fill="#008B47"/>
<path fill-rule="evenodd" clip-rule="evenodd" d="M14.7807 0.988831C6.67659 0.988831 0.106934 7.55849 0.106934 15.6626C0.106934 23.7666 6.67659 30.3363 14.7807 30.3363C22.8847 30.3363 29.4544 23.7666 29.4544 15.6626C29.4544 7.55849 22.8847 0.988831 14.7807 0.988831ZM2.77488 15.6626C2.77488 18.4508 3.72541 21.0171 5.32008 23.0551C7.51377 20.1833 10.9739 18.3305 14.8667 18.3305C18.709 18.3305 22.1298 20.1355 24.3273 22.9438C25.87 20.9242 26.7864 18.4004 26.7864 15.6626C26.7864 9.03196 21.4113 3.65678 14.7807 3.65678C8.15006 3.65678 2.77488 9.03196 2.77488 15.6626ZM14.7807 27.6683C11.9123 27.6683 9.27888 26.6624 7.21391 24.9841C8.90253 22.5742 11.7006 20.9985 14.8667 20.9985C17.9934 20.9985 20.7613 22.5353 22.4561 24.8949C20.3752 26.6266 17.6995 27.6683 14.7807 27.6683Z" fill="#008B47"/>
</svg>
