<svg width="23" height="23" viewBox="0 0 23 23" fill="none" xmlns="http://www.w3.org/2000/svg">
<path d="M9.61665 5.75516C9.4002 6.65789 9.07809 7.56268 8.42155 8.21922C7.76501 8.87576 6.86125 9.19787 5.95749 9.41432C4.49111 9.7655 3.20466 10.6427 2.34221 11.8796C1.47977 13.1164 1.10133 14.6268 1.27872 16.1242C1.4561 17.6215 2.17695 19.0017 3.30451 20.0028C4.43207 21.0039 5.88787 21.5563 7.39571 21.5551C15.3275 21.5551 21.7574 15.1252 21.7574 7.19338C21.7586 5.68554 21.2062 4.22973 20.2051 3.10218C19.204 1.97462 17.8239 1.25377 16.3265 1.07638C14.8291 0.899002 13.3187 1.27744 12.0819 2.13988C10.8451 3.00233 9.96783 4.28878 9.61665 5.75516Z" stroke="#555555" stroke-width="1.69732" stroke-linecap="round" stroke-linejoin="round"/>
<path d="M4.66809 9.88109C4.93854 10.4897 5.35307 11.0233 5.87588 11.4359C6.39868 11.8485 7.01405 12.1276 7.66886 12.2492C8.32366 12.3707 8.99821 12.3311 9.63427 12.1337C10.2703 11.9362 10.8488 11.587 11.3197 11.116C11.7905 10.645 12.1397 10.0665 12.337 9.43041C12.5343 8.79432 12.5738 8.11976 12.4521 7.46498C12.3304 6.8102 12.0512 6.19488 11.6385 5.67215C11.2259 5.14942 10.6921 4.735 10.0835 4.46466" stroke="#555555" stroke-width="1.69732" stroke-linecap="round" stroke-linejoin="round"/>
</svg>
