<?xml version="1.0" encoding="utf-8"?>

<!DOCTYPE svg PUBLIC "-//W3C//DTD SVG 1.1//EN" "http://www.w3.org/Graphics/SVG/1.1/DTD/svg11.dtd">
<!-- Uploaded to: SVG Repo, www.svgrepo.com, Generator: SVG Repo Mixer Tools -->
<svg fill="#545454" version="1.1" id="Warstwa_1" xmlns="http://www.w3.org/2000/svg" xmlns:xlink="http://www.w3.org/1999/xlink" 
	 width="800px" height="800px" viewBox="0 0 160 160" enable-background="new 0 0 160 160" xml:space="preserve">
<path id="pepper" d="M98.939,8.938c1.563-1.562,1.563-4.094,0.002-5.657c-1.563-1.563-4.096-1.563-5.656-0.002
	c-5.521,5.517-9.829,11.955-12.806,19.135c-2.503,6.04-3.954,12.387-4.354,18.909c-1.227,0.2-2.44,0.494-3.626,0.886
	C70.074,41.406,67.559,41,65,41c-13.234,0-24,10.766-24,24c0,12.831,1.298,20.623,2.554,28.158C44.812,100.703,46,107.831,46,120
	c0,2.516,0.486,4.963,1.444,7.273c0.958,2.312,2.344,4.385,4.12,6.16c1.776,1.776,3.85,3.164,6.162,4.123
	c4.611,1.914,9.92,1.916,14.547,0c0.076-0.031,0.14-0.08,0.213-0.115c0.083,0.035,0.159,0.08,0.242,0.115
	C75.039,138.514,77.485,139,80,139c2.52,0,4.968-0.486,7.273-1.443c0.082-0.033,0.16-0.078,0.242-0.113
	c0.071,0.035,0.135,0.082,0.211,0.113C90.039,138.514,92.484,139,95,139c2.52,0,4.968-0.486,7.273-1.443
	c2.313-0.959,4.387-2.346,6.162-4.123c1.775-1.774,3.162-3.849,4.121-6.16c0.957-2.311,1.442-4.758,1.442-7.272
	c0-12.89,1.354-21.647,2.662-30.117C117.863,82.102,119,74.75,119,65c0-13.234-10.768-24-24-24c-2.559,0-5.074,0.406-7.5,1.208
	c-1.1-0.364-2.225-0.633-3.359-0.832c0.385-5.483,1.623-10.818,3.729-15.899C90.441,19.272,94.167,13.708,98.939,8.938z
	 M89.002,50.174C90.926,49.395,92.943,49,95,49c8.822,0,16,7.178,16,16c0,9.136-1.09,16.191-2.244,23.661
	C107.4,97.43,106,106.496,106,120c0,1.459-0.279,2.875-0.834,4.211s-1.357,2.537-2.389,3.566c-1.028,1.031-2.229,1.834-3.57,2.391
	c-1.178,0.488-2.439,0.748-3.714,0.805c0.815-1.152,1.519-2.381,2.063-3.699C98.516,124.963,99,122.516,99,120v-15
	c0-2.209-1.791-4-4-4s-4,1.791-4,4v15c0,1.459-0.279,2.875-0.834,4.211s-1.357,2.537-2.389,3.566
	c-1.028,1.031-2.229,1.834-3.57,2.391c-2.657,1.104-5.743,1.105-8.417-0.002c-1.337-0.555-2.539-1.357-3.569-2.389
	c-1.029-1.028-1.833-2.229-2.388-3.565C69.281,122.878,69,121.46,69,119.998c-0.001-2.209-1.792-3.998-4-3.998c0,0-0.001,0-0.002,0
	c-2.209,0.001-3.999,1.793-3.998,4.002c0.001,2.516,0.486,4.963,1.443,7.273c0.547,1.316,1.247,2.547,2.063,3.697
	c-1.273-0.057-2.536-0.316-3.716-0.808c-1.338-0.556-2.539-1.356-3.569-2.39c-1.03-1.028-1.833-2.229-2.388-3.565
	C54.281,122.875,54,121.459,54,120c0-12.831-1.298-20.623-2.554-28.158C50.188,84.297,49,77.169,49,65c0-8.822,7.178-16,16-16
	c2.057,0,4.074,0.395,5.998,1.174c0.963,0.391,2.041,0.391,3.004,0c3.848-1.559,8.148-1.559,11.996,0
	C86.961,50.565,88.039,50.565,89.002,50.174z"/>
</svg>