<svg width="34" height="36" viewBox="0 0 34 36" fill="none" xmlns="http://www.w3.org/2000/svg">
<path fill-rule="evenodd" clip-rule="evenodd" d="M25.5394 7.2053C25.5014 7.13932 25.3762 6.9908 25.2607 6.87561C25.1452 6.76043 24.9304 6.59224 24.7885 6.50407C24.6453 6.42359 24.3621 6.3146 24.1643 6.27597C23.9461 6.22583 23.6546 6.21822 23.4377 6.25533C23.2094 6.2944 22.9667 6.3784 22.5289 6.64573L22.3086 6.39352C22.1925 6.25845 21.9764 6.0505 21.8309 5.93795C21.6853 5.82541 21.4134 5.66699 21.2258 5.58663C21.0382 5.50627 20.7039 5.41601 20.4863 5.38576C20.2573 5.35747 19.9106 5.37181 19.651 5.42121C19.407 5.46545 19.0821 5.57853 18.9001 5.67713C18.6941 5.78735 18.5619 5.82746 18.5192 5.79228C18.4867 5.76285 18.2624 5.65628 18.0255 5.55936C17.7886 5.46244 17.3948 5.34988 17.1525 5.31135C16.9103 5.27282 16.5923 5.24475 16.4505 5.25152C16.3057 5.25381 16.0455 5.28333 15.8712 5.30814C15.7 5.33744 15.3828 5.4242 15.1713 5.49786C14.8349 5.61289 14.6998 5.69599 14.1744 6.09826C13.6059 6.54041 13.5488 6.59765 13.2831 6.99798C13.1283 7.23188 12.9155 7.62567 12.8124 7.86072C12.7124 8.10026 12.5891 8.51371 12.5413 8.77429C12.4936 9.03487 12.4544 9.43143 12.4529 9.65661C12.4556 9.87857 12.4922 10.2647 12.5358 10.5096C12.5793 10.7546 12.6609 11.0655 12.808 11.4552L12.4828 11.4258C12.3073 11.4109 12.0093 11.4219 11.8224 11.4564C11.6355 11.4908 11.3315 11.5878 11.1436 11.6775C10.9556 11.7671 10.6655 11.9417 10.4974 12.0704C10.2662 12.2474 10.19 12.3329 10.1733 12.4407C10.147 12.5627 10.2169 12.6857 10.8312 13.6477C11.278 14.351 11.5858 14.8756 11.7172 15.1755C11.8269 15.4242 11.9849 15.8395 12.0675 16.0953C12.146 16.3542 12.2451 16.7671 12.2803 17.0185C12.3154 17.2699 12.3412 17.6778 12.3373 17.9184C12.3292 18.1622 12.2816 18.5178 12.2343 18.7033C12.1829 18.892 12.0445 19.2356 11.9228 19.4713C11.7981 19.7026 11.5623 20.0528 11.3949 20.2489C11.1525 20.5228 10.9682 20.6843 10.5034 21.0062C10.1804 21.2264 9.73117 21.4957 9.50052 21.5976C9.27288 21.704 8.79352 21.881 8.43428 21.9999C7.82933 22.1984 7.75726 22.2332 7.43728 22.5054C7.17313 22.728 7.05852 22.8701 6.9392 23.0904C6.84868 23.2684 6.76311 23.5579 6.7328 23.8255C6.69051 24.1226 6.70468 24.3901 6.76332 24.6575C6.81167 24.8716 6.92086 25.1953 7.01426 25.3818C7.15889 25.6919 7.20342 25.7393 7.52407 25.9893C7.71959 26.1383 8.10396 26.4074 8.37945 26.5902C8.65494 26.773 9.12707 27.0496 9.43198 27.2098C9.73269 27.3733 10.2264 27.6062 10.5259 27.7299C10.8253 27.8536 11.3737 28.0447 11.7428 28.149C12.1107 28.261 12.6957 28.3833 13.0401 28.4319C13.3845 28.4804 13.9279 28.5124 14.2422 28.5161C14.5535 28.5153 15.0144 28.4815 15.2614 28.4417C15.697 28.3797 15.7114 28.3822 15.8228 28.5481C15.8831 28.6377 16.0449 28.8125 16.1821 28.9314C16.3151 29.0536 16.5671 29.2205 16.7379 29.3137C16.9099 29.3992 17.2388 29.5004 17.4738 29.5377C17.7059 29.5704 18.0346 29.5767 18.2016 29.5506C18.3615 29.5232 18.6456 29.4346 18.8324 29.3527C19.0703 29.252 19.2528 29.1258 19.8405 28.6079L20.1532 28.6944C20.3269 28.7447 20.6371 28.799 20.8415 28.8191C21.0458 28.8391 21.4196 28.8176 21.6678 28.7702C21.9189 28.7272 22.2758 28.6237 22.4668 28.5385C22.7215 28.425 22.928 28.2871 23.2774 27.9925C23.6731 27.6624 23.7853 27.5357 24.0096 27.1874C24.1529 26.9555 24.3322 26.5874 24.4112 26.364C24.4903 26.1405 24.5758 25.8035 24.6622 25.2689L24.9507 25.2721C25.11 25.2723 25.4032 25.2446 25.6057 25.205C25.8082 25.1653 26.1038 25.0748 26.2696 25.0089C26.4552 24.9347 26.7422 24.7556 27.0112 24.5497C27.276 24.3469 27.5353 24.1076 27.6565 23.947C27.7711 23.8049 27.9606 23.4901 28.0823 23.2543C28.2214 22.9781 28.3423 22.6275 28.5131 21.7636L29.0782 21.4395C29.4686 21.2153 29.7802 20.997 30.1044 20.7217C30.3601 20.5055 30.6705 20.2 30.7947 20.0438C30.9189 19.8876 31.0868 19.6164 31.1761 19.4462C31.2583 19.2747 31.3475 19.0095 31.3701 18.8632C31.3928 18.7169 31.39 18.4475 31.3688 18.2737C31.3281 17.9857 31.2895 17.8998 31.0258 17.4976C30.7849 17.139 30.6586 16.9982 30.054 16.5243L30.1351 16.0481C30.1756 15.7862 30.2034 15.3916 30.1934 15.1684C30.1805 14.9407 30.1393 14.6329 30.0928 14.4784C30.0337 14.2861 29.9319 14.1061 29.7476 13.8602C29.5333 13.5695 29.4347 13.4889 29.1502 13.3401C28.9313 13.2226 28.6301 13.1342 28.2814 13.0889C27.9803 13.048 27.544 13.0426 27.2724 13.0741C27.008 13.1068 26.7742 13.1093 26.7561 13.0825C26.735 13.0511 26.7584 12.9721 26.8166 12.9072C26.8706 12.8454 26.9906 12.6925 27.077 12.5652C27.1706 12.4392 27.2899 12.2189 27.3456 12.0744C27.4085 11.9312 27.4736 11.6302 27.4968 11.4088C27.5199 11.1874 27.5129 10.8737 27.4833 10.7064C27.4566 10.5435 27.3673 10.2589 27.2841 10.0782C27.1714 9.82504 27.0751 9.68158 26.8777 9.47294C26.7351 9.3174 26.5083 9.13129 26.3735 9.04438C26.2376 8.96517 26.0656 8.87964 25.9989 8.85607C25.8858 8.82043 25.875 8.79479 25.8879 8.56766C25.898 8.43099 25.876 8.18983 25.8421 8.02569C25.8155 7.86281 25.7467 7.63716 25.6973 7.52566C25.6478 7.41416 25.5773 7.27128 25.5394 7.2053ZM25.1334 8.79922C25.1024 9.04692 25.1045 9.29647 25.1377 9.34578C25.1708 9.3951 25.341 9.46845 25.5189 9.51547C25.6939 9.55802 25.935 9.65172 26.0565 9.7284C26.2189 9.82807 26.3404 9.95222 26.506 10.1988C26.6686 10.4409 26.7457 10.6126 26.779 10.8043C26.8081 10.9518 26.8066 11.2245 26.7738 11.4125C26.7482 11.6018 26.6674 11.8606 26.5924 11.9859C26.5205 12.1156 26.3381 12.3368 26.1904 12.477C25.9689 12.6873 25.9197 12.7657 25.9139 12.8992C25.911 12.9896 25.9587 13.1364 26.0201 13.2184C26.0773 13.3036 26.1791 13.531 26.2413 13.7278C26.3034 13.9246 26.3561 14.2305 26.3618 14.4095C26.3674 14.5884 26.3431 14.865 26.3048 15.0165C26.2666 15.168 26.1671 15.4274 26.0862 15.5912C25.9699 15.816 25.8523 15.9536 25.5881 16.1762C25.3996 16.3409 25.1552 16.5077 25.0477 16.5561C24.9006 16.6212 24.8279 16.6837 24.753 16.8089C24.6972 16.906 24.6793 17.0215 24.7089 17.0939C24.7324 17.1573 24.8005 17.3156 24.8566 17.456C24.9138 17.5886 24.9857 17.8662 25.0196 18.0778C25.0547 18.2818 25.0732 18.641 25.0603 18.8681C25.0504 19.0997 24.9799 19.4591 24.9105 19.6685C24.841 19.8778 24.7026 20.1739 24.6042 20.3306C24.5101 20.4842 24.3199 20.7317 24.1824 20.8776C24.0378 21.0223 23.8252 21.1986 23.6985 21.2753C23.573 21.3443 23.3568 21.4487 23.218 21.5074C23.0805 21.5585 22.8864 21.5917 22.7824 21.5695C22.6742 21.5505 22.5558 21.5733 22.4886 21.6247C22.4045 21.6891 22.3464 21.849 22.2843 22.1545C22.236 22.3952 22.1396 22.7066 22.0664 22.8441C21.9567 23.0503 21.8553 23.1551 21.5137 23.4235C21.1648 23.6906 21.0477 23.7531 20.8296 23.7979C20.677 23.8265 20.3988 23.8291 20.1986 23.8059C19.9449 23.7693 19.7315 23.6884 19.4801 23.5415C19.1962 23.3651 19.0904 23.3307 18.984 23.3714C18.9047 23.405 18.7588 23.5099 18.6532 23.6179C18.5518 23.7228 18.3159 23.9306 18.1309 24.0722C17.946 24.2138 17.6103 24.4436 17.3893 24.5789C17.1653 24.7097 16.7702 24.9173 16.5185 25.0353C16.2668 25.1533 15.8133 25.3309 15.5123 25.4323C15.2114 25.5338 14.6875 25.6634 14.3438 25.7297C14.0001 25.796 13.4629 25.8679 13.148 25.8918C12.8301 25.9112 12.2911 25.9235 11.9551 25.916C11.6161 25.904 11.0481 25.8637 10.6995 25.8184C10.3497 25.7808 9.76537 25.6783 9.41129 25.5964C9.05299 25.5178 8.51493 25.3799 8.21792 25.2883C7.91671 25.1999 7.67741 25.1184 7.6786 25.1107C7.67679 25.0985 7.86302 25.0441 8.08652 24.9884C8.30701 24.9282 8.90537 24.7483 9.40518 24.5829C9.90499 24.4174 10.6667 24.1396 11.0902 23.9647C11.5136 23.7898 12.1461 23.5091 12.4867 23.3434C12.8302 23.1822 13.1143 23.0461 13.1216 23.0474C13.1246 23.0518 13.2256 23.117 13.3387 23.2001C13.456 23.28 13.6695 23.4085 13.818 23.478C13.9654 23.5553 14.251 23.6489 14.4548 23.6965C14.6544 23.7473 14.9928 23.7868 15.2037 23.7882C15.4405 23.7902 15.6304 23.7602 15.6988 23.701C15.7661 23.6495 15.8272 23.5416 15.8404 23.4569C15.8535 23.3722 15.8251 23.2446 15.7739 23.1684C15.7107 23.0742 15.6216 23.027 15.4678 23.0158C15.3482 22.9988 15.0645 22.9649 14.8354 22.9366C14.6106 22.9051 14.3142 22.8333 14.1789 22.774C14.0509 22.7159 13.9426 22.6495 13.9462 22.6264C13.9497 22.6033 14.1647 22.459 14.4265 22.2993C14.6884 22.1395 15.2882 21.7345 15.7596 21.394C16.4189 20.9163 16.7491 20.6499 17.1975 20.2183C17.5162 19.9064 17.9471 19.4678 18.1548 19.2273C18.3654 18.9914 18.6624 18.6282 18.8178 18.4141L19.1028 18.033C19.3836 18.1099 19.6234 18.1639 19.8098 18.2044C20.0004 18.2418 20.2666 18.2687 20.4043 18.2652C20.5419 18.2616 20.7979 18.2353 20.9691 18.206C21.1404 18.1767 21.4515 18.081 21.657 17.9984C21.9147 17.8893 22.1723 17.7328 22.4947 17.4927C22.8898 17.1902 22.9648 17.1124 23.0019 16.9686C23.033 16.8633 23.0178 16.7459 22.96 16.6409C22.8931 16.5223 22.83 16.4757 22.7218 16.4567C22.5835 16.4404 22.5103 16.4829 22.0323 16.8421C21.5784 17.1896 21.4559 17.2631 21.1814 17.3375C21.0035 17.3854 20.7109 17.433 20.539 17.4424C20.3599 17.4506 20.0696 17.4352 19.8893 17.4036L19.5647 17.3467C20.1018 16.2702 20.3552 15.662 20.4816 15.3005C20.6079 14.939 20.7773 14.3477 20.8591 13.9864C20.9338 13.6237 21.0268 13.023 21.0654 12.654C21.0968 12.2838 21.1184 11.8328 21.1116 11.6615C21.1046 11.3478 21.1016 11.3433 21.3357 11.1708C21.4618 11.0743 21.6551 10.8788 21.7655 10.7399C21.8717 10.6043 22.0084 10.391 22.0678 10.2708C22.1271 10.1507 22.2002 9.91832 22.2324 9.75786C22.2766 9.52038 22.2692 9.42417 22.1898 9.31531C22.1175 9.20772 22.0387 9.16622 21.9167 9.1646C21.8133 9.16229 21.7064 9.18309 21.6728 9.20883C21.6422 9.23906 21.5786 9.36239 21.5439 9.49078C21.5062 9.61469 21.4265 9.81825 21.3672 9.93837C21.3079 10.0585 21.1717 10.2442 21.066 10.3523L20.8698 10.5433C20.556 10.0097 20.3856 9.79392 20.2171 9.63781C20.0649 9.49641 19.8459 9.33145 19.7304 9.26374C19.6077 9.19476 19.3883 9.10485 19.2434 9.05967C19.0173 8.98838 18.9458 8.99562 18.8239 9.08894C18.7315 9.15974 18.6673 9.26319 18.653 9.3556C18.6399 9.44032 18.6653 9.56343 18.7134 9.63516C18.7628 9.69919 18.9222 9.79437 19.0731 9.84853C19.2282 9.89946 19.4441 10.0125 19.5632 10.1045C19.6793 10.1921 19.8653 10.4027 19.9827 10.5776C20.1182 10.7793 20.2273 11.0081 20.284 11.2158C20.3311 11.3902 20.3599 11.7551 20.3512 12.0265C20.3467 12.2947 20.2933 12.7836 20.239 13.1103L20.146 13.711C19.2518 12.3795 19.0201 12.0818 18.7908 11.8636C18.6205 11.6953 18.3047 11.462 18.0972 11.3425C17.8578 11.2135 17.6546 11.1383 17.5531 11.1482C17.4359 11.1633 17.371 11.1993 17.3068 11.3028C17.2619 11.378 17.2302 11.5108 17.2375 11.607C17.2539 11.7642 17.2732 11.7834 17.6311 11.9846C17.8397 12.0963 18.1423 12.3194 18.3036 12.4743C18.5389 12.7014 18.7098 12.9371 19.1627 13.6493C19.4722 14.1387 19.7541 14.6153 19.7813 14.7031C19.8163 14.8121 19.7973 14.9827 19.714 15.2094C19.6554 15.3969 19.4528 15.8439 19.2748 16.2042C19.0967 16.5646 18.8017 17.0824 18.6181 17.3587C18.4346 17.635 18.1664 18.0033 18.0272 18.1845C17.885 18.3613 17.618 18.6744 17.4361 18.8679C17.2543 19.0615 17.0928 19.2191 17.0784 19.2165C17.0651 19.2063 17.0476 19.1044 17.0384 18.996C17.0263 18.8831 16.967 18.5958 16.9066 18.3638C16.842 18.1349 16.69 17.7285 16.5671 17.4697C16.44 17.214 16.2617 16.8822 16.1683 16.7432C16.0208 16.5235 15.9648 16.4781 15.8134 16.4515C15.7124 16.4338 15.591 16.4521 15.5364 16.4939C15.4829 16.5281 15.4187 16.6315 15.3942 16.7182C15.3541 16.8575 15.3807 16.9254 15.6601 17.4174C15.833 17.7127 16.0246 18.1023 16.0861 18.2792C16.1477 18.4561 16.2304 18.7593 16.2667 18.9556C16.2988 19.155 16.3119 19.4776 16.2893 19.6714L16.2446 20.0314C15.0691 20.9248 14.4344 21.3633 14.0741 21.5849C13.7137 21.8065 13.3432 22.0223 13.2543 22.07C13.1654 22.1177 12.7997 22.3027 12.4495 22.4826C12.0964 22.658 11.4939 22.936 11.1131 23.0986C10.7293 23.2567 10.0943 23.5053 9.69846 23.6455C9.30259 23.7857 8.65198 23.992 8.25667 24.1046C7.86137 24.2172 7.50689 24.3053 7.46662 24.3022C7.41914 24.2979 7.40158 24.1959 7.41338 24.0239C7.4216 23.8751 7.48321 23.6446 7.54494 23.5091C7.63126 23.3344 7.73507 23.2142 7.9158 23.0758C8.09652 22.9374 8.34398 22.8226 8.79273 22.6759C9.13635 22.5621 9.65655 22.3606 9.94905 22.2181C10.3701 22.0111 10.6121 21.8598 11.147 21.4434C11.6946 21.0173 11.8675 20.8578 12.0865 20.5679C12.2353 20.3725 12.4392 20.0602 12.5393 19.8682C12.6394 19.6761 12.7755 19.3479 12.8419 19.1341C12.9113 18.9248 12.989 18.5667 13.0152 18.3498C13.0425 18.1252 13.0656 17.8088 13.0617 17.642C13.0579 17.4753 13.0263 17.1533 12.9887 16.9173C12.9553 16.6781 12.8526 16.2408 12.7585 15.9396C12.6685 15.6351 12.4732 15.1262 12.3297 14.8083C12.1845 14.4783 11.8453 13.8691 11.558 13.4034L11.0516 12.5829C11.3698 12.3935 11.5951 12.3025 11.7543 12.2552C11.9135 12.208 12.1635 12.1727 12.3101 12.1826C12.4538 12.1881 12.6834 12.2362 12.8241 12.2846C12.9576 12.3318 13.1765 12.4493 13.2998 12.5381C13.4261 12.6315 13.5837 12.7145 13.6516 12.7303C13.7238 12.743 13.8361 12.7113 13.9088 12.6489C14.0096 12.5716 14.0486 12.4875 14.0502 12.3573C14.0524 12.1994 14.009 12.0969 13.7941 11.7863C13.6526 11.5756 13.4863 11.2617 13.4206 11.088C13.359 10.9111 13.272 10.5636 13.2285 10.3186C13.1891 10.0705 13.1639 9.68241 13.1727 9.4585C13.1826 9.22688 13.2482 8.85079 13.3152 8.60941C13.3852 8.37251 13.5152 8.03538 13.6057 7.85746C13.6963 7.67953 13.884 7.39999 14.0166 7.23736C14.1492 7.07472 14.4224 6.81807 14.6199 6.66681C14.8174 6.51556 15.1117 6.33777 15.2775 6.27192C15.4402 6.20158 15.7917 6.10896 16.0585 6.06082C16.4322 5.99189 16.6648 5.99708 17.0832 6.07045C17.5016 6.14382 17.7439 6.22981 18.1089 6.43226C18.3688 6.57275 18.6177 6.6876 18.6592 6.683C18.6964 6.68163 18.891 6.57336 19.088 6.4497C19.3666 6.27707 19.5366 6.20801 19.8449 6.15527C20.096 6.1123 20.3659 6.11611 20.5739 6.1605C20.756 6.20431 21.0525 6.32353 21.2323 6.43022C21.5234 6.60783 21.5914 6.67117 21.8979 7.10856C22.1742 7.50113 22.2633 7.59585 22.3673 7.61804C22.4725 7.63253 22.5644 7.58932 22.8724 7.3467C23.2044 7.09246 23.2891 7.04799 23.5589 7.00433C23.7331 6.97951 23.9585 6.98344 24.0655 7.01012C24.1683 7.04001 24.3529 7.11589 24.4654 7.17912C24.5779 7.24235 24.7493 7.40294 24.8523 7.52778C24.9691 7.68274 25.0594 7.8647 25.1126 8.04804C25.1645 8.23909 25.1696 8.49312 25.1334 8.79922ZM29.48 15.1105C29.5001 15.292 29.4825 15.6449 29.4329 15.8933C29.3876 16.1385 29.3224 16.4395 29.2992 16.566C29.2687 16.6911 29.2731 16.8303 29.3062 16.8797C29.3393 16.929 29.4807 17.0447 29.6142 17.1393C29.7489 17.2263 29.9577 17.3855 30.0684 17.484C30.1863 17.5838 30.3561 17.7796 30.4524 17.9231C30.5457 18.0621 30.644 18.2652 30.6687 18.3684C30.6863 18.4704 30.6799 18.6789 30.6417 18.8304C30.6064 18.9864 30.4781 19.2407 30.3492 19.4277C30.1458 19.7124 30.0371 19.816 29.4037 20.2942C28.9594 20.6277 28.5421 20.9065 28.3018 21.0226C28.0928 21.1283 27.9 21.2487 27.8754 21.2879C27.8509 21.3271 27.7923 21.6095 27.747 21.9022C27.7012 22.2224 27.6007 22.5845 27.5077 22.7778C27.4232 22.9647 27.2709 23.2307 27.175 23.3721C27.0502 23.5559 26.8803 23.7199 26.5777 23.9516C26.2511 24.1949 26.0763 24.2948 25.815 24.3795C25.6246 24.437 25.3668 24.4986 25.2352 24.5111C25.1036 24.5237 24.8193 24.5173 24.6005 24.4948C24.3313 24.4634 24.1738 24.4753 24.0898 24.5397C24.0057 24.604 23.9734 24.717 23.9527 24.9705C23.9355 25.1534 23.8926 25.4781 23.8604 25.686C23.821 25.8927 23.7055 26.2323 23.603 26.4398C23.5005 26.6473 23.3295 26.9139 23.2371 27.0322C23.1375 27.1492 22.9004 27.3647 22.7029 27.516C22.4645 27.6917 22.2291 27.8244 22.0092 27.9045C21.8248 27.9711 21.5142 28.0392 21.3153 28.0557C21.1164 28.0723 20.8321 28.0659 20.6836 28.0439C20.5309 28.025 20.2544 27.9449 20.0728 27.8735C19.8882 27.7976 19.6802 27.7532 19.6147 27.7694C19.5366 27.7953 19.4249 27.8943 19.308 28.0518C19.1922 28.2016 18.9995 28.3695 18.8127 28.4989C18.6085 28.6371 18.4033 28.7264 18.197 28.7667C18.0288 28.8004 17.7524 28.8152 17.5883 28.7983C17.4098 28.7789 17.1572 28.6872 16.9641 28.5702C16.6983 28.4208 16.5786 28.3088 16.354 28.0124C16.1758 27.7754 16.035 27.6321 15.9569 27.6105C15.8931 27.5914 15.6341 27.6132 15.383 27.6562C15.1318 27.6991 14.6727 27.7452 14.3674 27.7549C14.0291 27.7629 13.4418 27.7034 12.8966 27.6117C12.3989 27.5244 11.7628 27.3733 11.4742 27.2753C11.1856 27.1772 10.6872 26.9751 10.3624 26.8232C10.0347 26.6669 9.76528 26.5405 9.76227 26.536C9.75624 26.5271 9.99968 26.5579 10.3008 26.5988C10.5978 26.643 11.0859 26.697 11.3762 26.7123C11.6695 26.7321 12.2879 26.7337 12.7494 26.7197C13.208 26.7013 13.92 26.6244 14.3238 26.5528C14.7276 26.4813 15.3795 26.3148 15.7657 26.1887C16.152 26.0626 16.6848 25.8515 16.9491 25.7238C17.2134 25.5962 17.68 25.3339 17.9881 25.1387C18.2961 24.9436 18.6678 24.6726 18.8196 24.5291L19.0928 24.2725C19.5474 24.4946 19.8745 24.5836 20.1137 24.6176C20.3499 24.6472 20.6985 24.645 20.8938 24.6041C21.0848 24.5664 21.3816 24.4682 21.554 24.3837C21.7306 24.296 21.9833 24.1228 22.1394 23.9762C22.2901 23.8404 22.5073 23.5858 22.6195 23.4117C22.7317 23.2376 22.8689 22.9492 22.9222 22.7726L23.0239 22.4503C23.5802 22.2552 23.8607 22.0948 24.1891 21.8636C24.5626 21.6048 24.7511 21.4401 24.9305 21.2145C25.0631 21.0518 25.2658 20.7472 25.3714 20.5443C25.4769 20.3413 25.6195 19.9945 25.6829 19.7762C25.7463 19.5579 25.8108 19.1896 25.8237 18.9624C25.8378 18.7276 25.8362 18.403 25.8191 18.226C25.8009 18.0566 25.744 17.754 25.6933 17.5552L25.6045 17.1956C26.095 16.8268 26.3303 16.5991 26.4419 16.4525C26.5535 16.306 26.7322 16.013 26.8317 15.801C26.942 15.5672 27.0431 15.2251 27.086 14.9478C27.1224 14.6892 27.1376 14.3517 27.1181 14.1901C27.0987 14.0285 27.1069 13.8796 27.1363 13.8571C27.1615 13.8378 27.3917 13.8109 27.6411 13.8032C27.8833 13.7943 28.2241 13.8185 28.3918 13.8597C28.5565 13.8965 28.7742 13.9742 28.8692 14.0305C28.9642 14.0867 29.1056 14.2024 29.1845 14.2914C29.2633 14.3804 29.3512 14.5303 29.3826 14.6149C29.417 14.704 29.4611 14.9213 29.48 15.1105Z" fill="#555555" stroke="#555555" stroke-width="0.7"/>
</svg>
