<?xml version="1.0" ?>
<!DOCTYPE svg  PUBLIC '-//W3C//DTD SVG 1.1//EN'  'http://www.w3.org/Graphics/SVG/1.1/DTD/svg11.dtd'>
<!-- Uploaded to: SVG Repo, www.svgrepo.com, Generator: SVG Repo Mixer Tools -->
<svg width="800px" height="800px" viewBox="-40.41 0 269.756 269.756" enable-background="new 0 0 188.938 269.756" id="Layer_1" version="1.1" xml:space="preserve" xmlns="http://www.w3.org/2000/svg" xmlns:xlink="http://www.w3.org/1999/xlink">
<g>
<path d="M175.995,131.004c-8.006-13.306-18.545-20.791-26.81-25.69c-4.125-2.447-7.721-4.307-10.013-5.792   c-1.143-0.731-1.938-1.37-2.28-1.739l-0.127,0.043l-0.121-0.553c-4.341-15.551-10.436-34.586-10.445-34.615   c-0.659-2.067-2.568-3.455-4.726-3.47c-0.817-8.975-1.937-17.705-1.93-25.274c0-3.169,0.193-6.126,0.662-8.792   c0.204-1.168-0.443-2.323-1.546-2.758s-2.363-0.032-3.011,0.959c-2.514,3.953-8.398,13.919-13.051,24.889   c0.117-2.894,0.188-5.893,0.189-8.929c-0.063-14.356-1.396-29.381-7.548-38.23c-0.492-0.694-1.295-1.088-2.147-1.051   c-0.853,0.037-1.618,0.501-2.047,1.235c-5.173,8.91-6.598,21.268-6.624,33.368c0.001,4.987,0.261,9.931,0.649,14.556   c-4.574-12.016-11.231-23.834-17.758-26.817c-0.809-0.299-1.701-0.164-2.383,0.357c-0.686,0.524-1.051,1.347-0.976,2.205   c0.979,11.138,1.409,23.063,2.267,34.406c-1.712,0.376-3.141,1.619-3.692,3.346c-0.009,0.032-6.1,19.066-10.424,34.618   l-0.121,0.553l-0.129-0.041c-2.862,3.88-25.195,10.214-38.956,33.224C4.284,145.353,0,161.54,0,177.724   c-0.002,23.552,9.083,47.164,27.107,65.113c17.73,17.667,40.959,26.922,64.298,26.919c0.423,0,5.386,0,5.809,0   c23.416,0.003,46.723-9.247,64.52-26.914c18.085-17.947,27.21-41.561,27.205-65.119   C188.938,161.537,184.637,145.347,175.995,131.004z M116.738,62.523c-0.033,0.092-0.076,0.179-0.104,0.274l-7.765,26.926   l-7.347-21.485c1.608-10.233,8.02-23.917,13.046-33.202C114.683,43.649,115.971,53.129,116.738,62.523z M93.353,7.943   c3.261,7.621,4.487,19.714,4.435,31.341c0.001,7.05-0.39,13.929-0.861,19.666c-0.784-0.417-1.671-0.64-2.584-0.6   c-1.135-0.06-2.237,0.273-3.143,0.906c-0.932-6.987-1.78-15.781-1.778-24.65C89.402,24.928,90.482,15.218,93.353,7.943z    M85.897,71.809L79.8,89.671l-7.704-26.868c-0.154-0.537-0.394-1.032-0.7-1.473c-0.822-10.028-1.259-20.754-2.009-31.143   C76.293,38.811,85.868,62.55,85.897,71.809z M154.689,235.747c-15.935,15.81-36.685,24.006-57.476,24.009c-0.515,0-5.294,0-5.809,0   c-20.702-0.003-41.371-8.193-57.242-24.003c-16.087-16.029-24.156-37.027-24.162-58.028c0-14.425,3.814-28.819,11.469-41.563   c6.854-11.392,15.632-17.693,23.261-22.256c7.229-4.948,14.155-5.822,16.936-13.968l0.069,0.02   c1.667-5.995,3.612-12.55,5.361-18.31l7.484,26.098c0.604,2.104,2.493,3.564,4.684,3.619c2.188,0.055,4.148-1.31,4.854-3.383   l10.204-29.896l10.224,29.899c0.708,2.07,2.663,3.435,4.854,3.38c2.188-0.055,4.074-1.509,4.681-3.613l7.541-26.153   c1.756,5.772,3.712,12.351,5.391,18.363l0.07-0.02c2.794,8.153,9.734,9.014,16.995,13.971c7.657,4.563,16.472,10.867,23.353,22.258   c7.678,12.742,11.506,27.133,11.506,41.555C178.932,198.719,170.836,219.714,154.689,235.747z" fill="#231F20"/>
<path d="M166.498,177.592c-0.542-0.104-1.065,0.253-1.169,0.797c-1.083,5.694-2.715,11.196-4.845,16.447   c-0.208,0.512,0.04,1.094,0.55,1.301c0.512,0.21,1.097-0.038,1.304-0.55c2.18-5.372,3.849-11,4.958-16.827   C167.399,178.219,167.042,177.696,166.498,177.592z" fill="#231F20"/>
<path d="M155.115,207.779c-0.469-0.293-1.085-0.146-1.376,0.323c-12.454,20.074-32.792,34.85-56.752,40.101   c-0.539,0.121-0.881,0.654-0.763,1.192c0.118,0.542,0.654,0.881,1.192,0.763c24.496-5.372,45.289-20.474,58.022-41.003   C155.731,208.686,155.584,208.07,155.115,207.779z" fill="#231F20"/>
</g>
</svg>