<?xml version="1.0" encoding="utf-8"?>

<!DOCTYPE svg PUBLIC "-//W3C//DTD SVG 1.1//EN" "http://www.w3.org/Graphics/SVG/1.1/DTD/svg11.dtd">
<!-- Uploaded to: SVG Repo, www.svgrepo.com, Generator: SVG Repo Mixer Tools -->
<svg version="1.1" id="_x32_" xmlns="http://www.w3.org/2000/svg" xmlns:xlink="http://www.w3.org/1999/xlink" 
	 width="800px" height="800px" viewBox="0 0 512 512"  xml:space="preserve">
<style type="text/css">
<![CDATA[
	.st0{fill:#000000;}
]]>
</style>
<g>
	<path class="st0" d="M503,221.391c-4.156-9.813-9.688-18.797-16.469-26.672c-9.156-10.594-20.656-19.281-33.328-25.094
		c-11.734-5.375-24.141-8.234-35.891-8.25c-2.125,0-4.219,0.094-6.266,0.297c-11.063-8.172-23.609-14.781-37.359-19.703
		c-16.469-5.875-33.969-8.969-50.656-8.984c-6.781,0.016-13.391,0.516-19.719,1.516c0.109-1.641,0.25-3.375,0.438-5.219
		c0.75-7.375,2.094-16.25,3.984-26.391c2.719-14.5,6.109-28.953,8.453-38.516c1.063-4.313,2.156-8.578,3.219-12.656
		c0.406-1.516,0.734-2.719,0.953-3.516l0.234-0.891L323.719,36c0.906-3.281,0.25-6.813-1.813-9.516s-5.281-4.297-8.688-4.297H234
		c-5.281,0-9.797,3.781-10.719,8.969l-1.313,7.188c-0.047,0.344-1.5,8.563-2.969,20.875c-1.938,16.563-2.938,32.234-2.938,46.594
		c0,11.063,0.594,20.938,1.75,29.906c-0.375,0.094-0.781,0.219-1.188,0.344c-8.672-2.031-17.969-3.063-27.656-3.078
		c-14.969,0.016-30.156,2.406-45.125,7.141c-11.375,3.578-22.141,8.391-32.016,14.297c-3.766,2.25-7.406,4.688-10.891,7.25
		c-2.063-0.203-4.141-0.297-6.266-0.297c-10.359,0.016-21.375,2.266-31.891,6.531c-8.313,3.359-16.156,7.906-23.313,13.469
		C27.5,190.734,18,202.516,11.266,216.391C3.781,231.797,0,249.297,0,268.406c0,7.656,0.625,15.688,1.844,23.844
		c3.625,24.031,8.5,46.813,14.531,67.688c4.813,16.75,10.344,32.141,16.406,45.781c4.906,10.969,10.25,20.969,15.875,29.688
		c9.563,14.828,19.781,26,31.281,34.156c6.391,4.531,13.156,8.031,20.063,10.406c7.375,2.531,15.031,3.813,22.813,3.813
		c4.828,0,9.781-0.516,14.734-1.531c1.766,0.813,3.516,1.563,5.266,2.203c9.563,3.547,20.297,5.359,31.875,5.359
		c0.016,0,0.031,0,0.031,0c14.625,0,30.625-2.75,48.844-8.359c10.875,4.375,22.813,6.594,35.625,6.594h0.125
		c11.656,0,22.641-1.859,32.75-5.516c16.75,4.891,31.578,7.281,45.219,7.281c10.297,0,19.922-1.422,28.625-4.219
		c2.906-0.938,5.781-2.063,8.563-3.328c4.969,1,9.906,1.516,14.781,1.516c9.125,0,18.125-1.781,26.688-5.281
		c6.984-2.859,13.766-6.875,20.156-11.969c10.125-8.031,19.188-18.469,27.75-31.891c11.078-17.391,20.813-39.328,28.938-65.188
		c7.328-23.391,13.188-49.375,17.375-77.203c1.219-8.156,1.844-16.188,1.844-23.844C512,251.359,508.969,235.531,503,221.391z
		 M247.141,62.531c0.563-4.766,1.109-8.844,1.578-12h41.734c-1.734,6.781-4.047,16.188-6.359,26.641s-4.641,21.984-6.406,33.094
		c-0.875,5.547-1.594,11-2.125,16.172c-0.531,5.188-0.844,10.094-0.844,14.625c0,0.25,0.031,0.469,0.031,0.688
		c-5.156-0.531-10.344-0.781-15.469-0.781c-3.938,0-7.859,0.156-11.781,0.469c-1.016-4.828-1.75-10.031-2.25-15.453
		c-0.594-6.547-0.844-13.375-0.844-20.188C244.406,89.906,245.781,74.219,247.141,62.531z M106.766,452.25
		c-4.516-1.828-8.922-4.469-13.234-7.906c-7.563-6-14.813-14.453-21.469-24.938c-10.031-15.688-18.719-35.859-25.813-58.438
		c-7.063-22.563-12.563-47.547-16.375-72.938c-1.063-6.984-1.531-13.516-1.531-19.625c0-14.188,2.578-26.063,6.766-36
		c3.141-7.453,7.203-13.813,11.828-19.188c6.969-8.078,15.25-13.984,23.688-17.844c5.406-2.5,10.875-4.125,15.984-4.969
		c-1.563,2-3.047,4.047-4.453,6.156c-4.484,6.75-8.094,14.125-10.563,22.063c-2.5,7.938-3.844,16.453-3.844,25.391
		c0,1.891,0.063,3.797,0.188,5.734c1.844,29.156,6.781,62.188,13.188,93.375c3.188,15.578,6.734,30.688,10.469,44.594
		c3.703,13.906,7.594,26.609,11.469,37.438c2.859,8,6.344,15.375,10.594,21.953c1.875,2.891,3.938,5.641,6.125,8.203
		C115.281,455,110.984,453.969,106.766,452.25z M174.719,461.469c-7.641,0-14.219-1-19.938-2.844
		c-4.281-1.375-8.094-3.234-11.578-5.531c-5.203-3.438-9.672-7.906-13.609-13.547c-3.938-5.609-7.313-12.406-10.125-20.266
		c-3.656-10.234-7.422-22.531-11.031-36.063c-5.438-20.328-10.563-43.438-14.641-66.75c-4.078-23.297-7.141-46.781-8.453-67.813
		c-0.094-1.563-0.156-3.125-0.156-4.641c0.016-12.781,3.375-24.063,9.188-34.109c4.375-7.531,10.156-14.344,17.016-20.344
		c10.281-8.984,22.953-16.094,36.453-20.906c13.484-4.813,27.781-7.344,41.125-7.328c0.219,0,0.438,0,0.641,0
		c-3.859,2.859-7.547,6.047-10.922,9.625c-7.688,8.016-13.969,17.891-18.266,29.609c-4.297,11.688-6.641,25.188-6.641,40.563
		c0,7.625,0.594,15.719,1.781,24.313l12.359,108.547l0.016,0.188c2.563,16.031,6.25,30.359,11.172,42.969
		c3.703,9.453,8.109,17.922,13.281,25.359c3.828,5.5,8.109,10.406,12.828,14.688C193.594,460.125,183.469,461.484,174.719,461.469z
		 M289.406,452.859c-8.594,4.484-18.469,6.828-30.125,6.859c-10.375-0.016-19.344-1.891-27.234-5.438
		c-5.922-2.672-11.266-6.313-16.172-10.969c-7.344-7.016-13.672-16.438-18.844-28.438c-5.172-11.953-9.156-26.438-11.844-43.297
		l-12.313-108.234l-0.031-0.109c-1.094-7.938-1.625-15.313-1.625-22.109c0.016-16.141,2.891-29.156,7.672-39.672
		c3.578-7.891,8.25-14.406,13.766-19.859c8.25-8.156,18.531-13.938,29.969-17.719c11.469-3.766,24.063-5.469,36.656-5.469
		c11.156,0,22.375,1.344,32.766,4.281c7.797,2.219,15.125,5.328,21.703,9.406c4.938,3.063,9.469,6.672,13.5,10.891
		c6.031,6.344,10.984,14.047,14.5,23.594c3.5,9.531,5.563,20.922,5.563,34.547c0,6.797-0.516,14.172-1.625,22.109l-0.016,0.109
		l-12.328,108.219c-2.391,15-5.797,28.109-10.156,39.219c-3.266,8.375-7.063,15.609-11.344,21.734
		C305.422,441.703,298,448.375,289.406,452.859z M383.703,437.641c-2.547,3.922-5.328,7.328-8.391,10.25
		c-4.594,4.375-9.797,7.688-16,10c-6.188,2.297-13.438,3.578-22.031,3.578c-7.422,0.016-15.844-0.969-25.328-3.047
		c0.938-0.828,1.859-1.641,2.766-2.516c9.375-8.938,16.906-20.438,22.813-34.125s10.188-29.578,13.063-47.609l0.031-0.188
		l12.359-108.547c1.188-8.594,1.766-16.688,1.766-24.313c0-18.219-3.281-33.813-9.219-46.875
		c-4.469-9.813-10.406-18.156-17.406-25.063c-2.813-2.781-5.813-5.344-8.953-7.672c10.016,0.563,20.406,2.453,30.453,5.625
		c9.094,2.859,17.938,6.766,26,11.594c12.109,7.234,22.469,16.547,29.688,27.469c3.625,5.469,6.5,11.328,8.469,17.625
		c1.953,6.281,3.031,12.984,3.031,20.188c0,1.516-0.063,3.078-0.156,4.641l0,0c-1.75,28.031-6.594,60.453-12.844,90.969
		c-3.125,15.25-6.625,30.047-10.25,43.594c-3.609,13.531-7.375,25.828-11.031,36.063
		C390.031,426.266,387.094,432.406,383.703,437.641z M482.125,288.031c-3.313,22.109-7.906,43.906-13.719,64.063
		c-4.344,15.141-9.391,29.344-15.063,42.063c-4.266,9.563-8.875,18.266-13.797,25.891c-7.391,11.453-15.453,20.453-23.859,26.391
		c-4.219,3-8.5,5.219-12.875,6.719c-3.438,1.188-6.938,1.906-10.594,2.156c1.594-1.844,3.094-3.75,4.5-5.781
		c5-7.172,9-15.375,12.219-24.375c3.875-10.828,7.75-23.531,11.484-37.438c5.578-20.875,10.797-44.438,14.953-68.234
		c4.172-23.813,7.313-47.859,8.688-69.734l0,0c0.125-1.938,0.188-3.844,0.188-5.734c0-15.891-4.281-30.391-11.547-42.859
		c-2.188-3.766-4.641-7.344-7.313-10.75c4.234,0.703,8.703,1.922,13.188,3.75c5.609,2.281,11.25,5.438,16.516,9.563
		c7.906,6.172,15,14.422,20.156,25.047c5.156,10.641,8.406,23.672,8.422,39.641C483.672,274.516,483.188,281.047,482.125,288.031z"
		/>
</g>
</svg>