<svg width="25" height="27" viewBox="0 0 25 27" fill="none" xmlns="http://www.w3.org/2000/svg">
<path fill-rule="evenodd" clip-rule="evenodd" d="M23.5216 1.05615C23.7878 1.05615 23.8902 1.07696 24.0284 1.1706C24.1257 1.23823 24.2844 1.40471 24.3766 1.55037C24.4738 1.69604 24.5967 1.94054 24.653 2.09661C24.7196 2.27869 24.7503 2.47638 24.7247 2.89777L24.2127 3.24632C23.8902 3.46482 23.537 3.76655 23.2656 4.05788C23.025 4.31279 22.7691 4.65094 22.6872 4.80701C22.6104 4.95788 22.5336 5.17117 22.5182 5.27002C22.4926 5.42608 22.5387 5.56134 22.8407 6.18042C23.0404 6.581 23.2503 7.05961 23.3066 7.24689C23.368 7.43417 23.4346 7.7255 23.4653 7.89718C23.4909 8.06885 23.5267 8.37579 23.5472 8.57348C23.5626 8.77116 23.5523 9.16134 23.5267 9.43186C23.496 9.70238 23.4244 10.1134 23.368 10.3423C23.3117 10.5712 23.1684 10.9561 23.0558 11.2006C22.9431 11.4451 22.7486 11.7833 22.6308 11.955C22.508 12.1266 22.2827 12.3972 22.1342 12.5532C21.9807 12.7093 21.7298 12.9382 21.5762 13.0527C21.4124 13.1775 21.2639 13.344 21.223 13.4428C21.1667 13.5729 21.1564 13.7394 21.182 14.0879C21.2025 14.3428 21.2332 14.8943 21.2486 15.3105C21.2742 15.9139 21.2639 16.148 21.1974 16.481C21.1513 16.7099 21.0387 17.074 20.9465 17.2873C20.8595 17.5006 20.6701 17.8544 20.5319 18.0677C20.3936 18.281 20.0609 18.6867 19.7895 18.9677C19.5182 19.2538 19.1394 19.6076 18.5813 20.0393L18.5148 20.5752C18.4738 20.8717 18.3919 21.3243 18.3254 21.5792C18.2639 21.8341 18.1411 22.2087 18.0592 22.4116C17.9773 22.6145 17.8186 22.9162 17.711 23.0879C17.6035 23.2596 17.4244 23.5145 17.3066 23.6497C17.1889 23.7902 16.9687 24.0035 16.8151 24.1232C16.6616 24.248 16.4056 24.4197 16.252 24.5081C16.0984 24.5966 15.8117 24.7318 15.6121 24.8099C15.4124 24.8827 15.0438 24.9919 14.793 25.044C14.5165 25.1064 13.8151 25.174 13.0267 25.2208C12.1052 25.2781 11.5421 25.3405 11.1069 25.4289C10.7691 25.5018 10.1803 25.6474 9.80148 25.7567C9.36633 25.8867 9.07452 25.9492 9.00797 25.9231C8.95165 25.9023 8.8595 25.8243 8.7008 25.611L8.86974 25.0752C8.96189 24.7838 9.07452 24.3677 9.11548 24.1544C9.18203 23.8474 9.20251 23.3324 9.23834 19.8365L9.07452 19.8729C8.98237 19.8989 8.50114 19.9145 8.00967 19.9093C7.22128 19.9093 7.04722 19.8937 6.57623 19.774C6.2793 19.696 5.92606 19.5919 5.78271 19.5347C5.64449 19.4775 4.938 19.1393 4.22128 18.7804C3.50455 18.4214 2.71104 18.0469 2.45507 17.948C2.20421 17.844 1.68203 17.6671 1.30319 17.5526C0.924348 17.433 0.591584 17.3394 0.560867 17.3394C0.53527 17.3394 0.458478 17.2925 0.397044 17.2353C0.315133 17.1677 0.279297 17.074 0.279297 16.9492C0.279297 16.8035 0.315133 16.7359 0.473836 16.6006C0.576225 16.507 0.873154 16.2209 1.12401 15.9607C1.37998 15.7058 1.69227 15.3417 1.82025 15.1544C1.94824 14.9671 2.16838 14.6185 2.3066 14.374C2.43971 14.1295 2.7264 13.5209 2.94141 13.0214C3.15131 12.522 3.38681 12.007 3.45848 11.8769C3.53527 11.7469 3.70933 11.5024 3.84756 11.3307C3.98578 11.159 4.2264 10.9197 4.37998 10.8001C4.53356 10.6804 4.79466 10.5139 4.9636 10.4307C5.13254 10.3423 5.43459 10.2278 5.62913 10.1654C5.82367 10.103 6.26906 10.0249 7.23664 9.92607L7.28783 9.74399C7.31855 9.64515 7.44653 9.33821 7.57964 9.06769C7.70763 8.79718 7.88681 8.46943 7.97384 8.33937C8.06087 8.20932 8.26053 7.97001 8.41411 7.80354C8.57281 7.63706 8.82879 7.41857 8.98237 7.32492C9.13595 7.23128 9.4124 7.10123 9.5967 7.044C9.781 6.98677 10.2776 6.89313 10.6974 6.83591C11.2708 6.76308 11.5319 6.70585 11.7213 6.60701C11.8646 6.53938 12.054 6.39371 12.1462 6.28967C12.2332 6.18562 12.3663 5.99314 12.4329 5.85267C12.4994 5.71741 12.6274 5.42088 12.7196 5.19198C12.8066 4.96308 12.9551 4.63533 13.0421 4.46886C13.1342 4.29719 13.3646 3.98505 13.5643 3.77175C13.7639 3.55846 14.0711 3.28274 14.2554 3.16308C14.4397 3.03823 14.7315 2.87696 14.9107 2.80413C15.0848 2.73129 15.3714 2.63765 15.5506 2.59603C15.7247 2.55441 16.0165 2.50239 16.2008 2.48678C16.3851 2.46598 16.7435 2.47638 16.9943 2.50759C17.2452 2.53881 17.665 2.62204 17.9158 2.69488C18.1667 2.77291 18.5865 2.93418 18.8373 3.05384C19.0882 3.17869 19.4209 3.36597 19.5694 3.47002C19.7127 3.57407 19.8663 3.6573 19.9022 3.6573C19.9329 3.6573 19.9994 3.58447 20.0455 3.49083C20.0916 3.39719 20.2656 3.13187 20.4346 2.90297C20.6035 2.67407 20.88 2.36193 21.0438 2.20586C21.2127 2.04979 21.5046 1.81569 21.7042 1.68563C21.9039 1.56078 22.1445 1.42031 22.2418 1.37349C22.339 1.33187 22.595 1.24344 22.8049 1.18101C23.0199 1.11338 23.3322 1.06135 23.5216 1.05615V1.05615ZM22.4005 2.23707C22.1598 2.36193 21.868 2.57522 21.6325 2.80413C21.4175 3.00701 21.1257 3.34516 20.9824 3.55846C20.839 3.77175 20.6598 4.06828 20.5831 4.21395C20.4909 4.40643 20.409 4.50528 20.3117 4.53649C20.2145 4.56771 20.0609 4.5573 19.8356 4.50528C19.6001 4.44805 19.3288 4.43245 18.8885 4.45325C18.4943 4.46886 18.1155 4.51568 17.839 4.58851C17.5984 4.65094 17.2196 4.7914 16.9943 4.90065C16.7691 5.0099 16.4363 5.2232 16.252 5.37406C16.0677 5.51973 15.822 5.76423 15.6991 5.9099C15.5813 6.06077 15.4022 6.33128 15.31 6.51857C15.2127 6.70585 15.0848 7.044 15.0182 7.2729C14.9261 7.62666 14.9107 7.76712 14.9414 8.20932C14.9568 8.49544 14.9875 9.01047 15.0028 9.35382C15.0336 9.86365 15.0182 10.0353 14.9465 10.2902C14.9005 10.4619 14.8134 10.6908 14.7622 10.7949C14.711 10.9041 14.5677 11.1018 14.4499 11.2319C14.3271 11.3619 13.9994 11.6272 13.7179 11.8249C13.4363 12.0174 13.1138 12.2775 13.0063 12.4024C12.8936 12.5272 12.7503 12.7561 12.6837 12.9018C12.6172 13.0527 12.5353 13.3336 12.4943 13.5261C12.4534 13.7238 12.4022 14.1503 12.3868 14.4781C12.3714 14.8058 12.3766 15.3261 12.397 15.633C12.4175 15.9399 12.4226 16.2521 12.4022 16.3249C12.3714 16.4185 12.223 16.5382 11.8902 16.7359C11.6291 16.892 11.2861 17.1313 11.1325 17.2665C10.979 17.4018 10.7844 17.5943 10.7076 17.6983C10.6257 17.8024 10.5028 17.9792 10.4363 18.0937C10.3697 18.2081 10.2674 18.4891 10.2059 18.718C10.1035 19.1029 10.0933 19.2954 10.0575 21.4492C10.0267 23.1919 10.0011 23.8682 9.93971 24.1804C9.89875 24.4093 9.84756 24.659 9.8322 24.737C9.81684 24.8203 9.8066 24.8827 9.81684 24.8827C9.82196 24.8827 10.0575 24.8255 10.339 24.7526C10.6206 24.6798 11.0609 24.5862 11.3117 24.5445C11.5626 24.5029 12.2127 24.4405 12.7452 24.4145C13.2776 24.3833 13.9124 24.3364 14.153 24.3052C14.3936 24.2792 14.7264 24.2168 14.8953 24.17C15.0643 24.1284 15.4175 23.9879 15.6786 23.863C16.0011 23.707 16.2469 23.5405 16.4619 23.3324C16.636 23.1711 16.8663 22.8954 16.9738 22.7237C17.0865 22.5521 17.2452 22.2243 17.3322 21.9954C17.4192 21.7665 17.5319 21.3815 17.5831 21.137C17.6394 20.8925 17.7059 20.4607 17.7366 20.1746C17.7622 19.8885 17.8185 19.6232 17.8544 19.5815C17.8851 19.5399 18.0438 19.4151 18.1974 19.2954C18.351 19.181 18.6633 18.9209 18.8885 18.718C19.1087 18.5203 19.4312 18.1769 19.6001 17.9636C19.7639 17.7503 19.9892 17.3862 20.0967 17.1573C20.2042 16.9284 20.3322 16.5902 20.3783 16.4029C20.4448 16.1324 20.4551 15.9243 20.4295 15.3885C20.4141 15.0191 20.3834 14.4573 20.368 14.1399C20.3424 13.6821 20.3527 13.5053 20.4192 13.2555C20.496 12.9798 20.5472 12.907 20.8749 12.6053C21.0745 12.418 21.3868 12.111 21.5711 11.9238C21.7554 11.7365 22.0063 11.4139 22.1291 11.211C22.2469 11.003 22.4107 10.6336 22.4977 10.3787C22.5796 10.129 22.6718 9.69197 22.7076 9.40584C22.7486 9.02087 22.7486 8.76076 22.7076 8.41741C22.6769 8.16249 22.6155 7.81394 22.5745 7.64747C22.5336 7.4862 22.3186 6.99198 22.1035 6.55498C21.7145 5.77984 21.7093 5.75383 21.7042 5.37406C21.7042 5.03071 21.7247 4.93707 21.8885 4.59372C21.9909 4.38042 22.1752 4.06308 22.3032 3.89141C22.4312 3.71973 22.6974 3.4284 22.8868 3.24632C23.0813 3.05904 23.3936 2.80413 23.5831 2.67407L23.9209 2.43476C23.665 1.94575 23.6291 1.91453 23.4704 1.90413C23.3732 1.89893 23.1786 1.93014 23.0353 1.96655C22.897 2.00817 22.6052 2.12783 22.4005 2.23707ZM15.4073 3.50123C15.2383 3.55846 14.9517 3.69892 14.7674 3.81857C14.5831 3.93823 14.3271 4.14632 14.1991 4.27638C14.0711 4.40643 13.9022 4.63013 13.8203 4.7758C13.7383 4.91626 13.5643 5.29082 13.4363 5.60817C13.3083 5.9203 13.1342 6.29487 13.0523 6.44053C12.9704 6.581 12.8015 6.8099 12.6735 6.93995C12.5455 7.07001 12.3151 7.24169 12.1718 7.31452C12.0233 7.39255 11.7674 7.4914 11.6087 7.53302C11.4448 7.57464 11.0813 7.63706 10.7998 7.66307C10.5182 7.69429 10.1496 7.75672 9.98066 7.79833C9.81172 7.83995 9.55063 7.9492 9.39705 8.04284C9.24346 8.13648 9.00285 8.34978 8.8595 8.52666C8.71616 8.70353 8.4909 9.06249 8.3578 9.33301C8.22981 9.60353 8.06087 9.99891 7.9892 10.2122C7.91752 10.4255 7.81001 10.6492 7.74858 10.7064C7.65131 10.8001 7.55916 10.8105 6.9909 10.8209C6.53015 10.8313 6.2281 10.8625 5.93629 10.9405C5.71104 11.003 5.41411 11.1122 5.27077 11.1902C5.13254 11.2683 4.85097 11.492 4.65131 11.6949C4.40558 11.9394 4.2264 12.1735 4.10865 12.4232C4.00626 12.6209 3.82708 13.0214 3.70933 13.3076C3.59158 13.5937 3.37145 14.0723 3.22298 14.374C3.07452 14.6758 2.81343 15.1336 2.6496 15.3885C2.48066 15.6434 2.16838 16.0596 1.95336 16.3093L1.55916 16.7671C2.3322 17.022 2.74175 17.1729 2.96701 17.2665C3.19227 17.3602 3.93971 17.7191 4.63083 18.0625C5.32196 18.411 6.05916 18.7492 6.26906 18.8168C6.47896 18.8844 6.84756 18.9781 7.08817 19.0249C7.32879 19.0717 7.77418 19.1081 8.08647 19.1081C8.39875 19.1081 8.78783 19.0821 8.95677 19.0561L9.26394 18.9989C9.32537 18.6399 9.38681 18.3902 9.44824 18.2081C9.50455 18.0313 9.64278 17.7295 9.75541 17.5318C9.86292 17.3394 10.1138 17.0272 10.3083 16.8295C10.4977 16.637 10.851 16.3509 11.0916 16.1948L11.5216 15.9087L11.5165 13.9683C11.2503 13.8174 11.025 13.6197 10.8459 13.422C10.6667 13.2295 10.4517 12.9382 10.3697 12.7717C10.2878 12.6105 10.1854 12.3451 10.1394 12.1891C10.0882 12.0174 10.0575 11.7157 10.0575 11.4347C10.0575 11.1746 10.0933 10.8313 10.1342 10.6648C10.1752 10.5035 10.2827 10.2226 10.3697 10.0405C10.4721 9.84284 10.6718 9.57752 10.897 9.34862C11.1223 9.11972 11.3834 8.91683 11.5831 8.81278C11.7571 8.72434 12.0336 8.6151 12.1974 8.57348C12.3561 8.53186 12.6837 8.49544 12.9244 8.49544C13.165 8.49544 13.4875 8.52666 13.6411 8.56827C13.7947 8.60989 13.9585 8.65671 13.9994 8.67232C14.066 8.69833 14.0762 8.60989 14.0762 8.04284C14.0813 7.56943 14.1069 7.2781 14.1735 7.0388C14.2247 6.85152 14.3476 6.51337 14.4551 6.28446C14.5575 6.05556 14.7469 5.72782 14.8697 5.55614C14.9926 5.38447 15.223 5.11915 15.3766 4.96308C15.5353 4.81221 15.8373 4.57291 16.0472 4.43245C16.2571 4.29198 16.6052 4.1047 16.8151 4.01626C17.025 3.92262 17.409 3.79776 17.6598 3.73534L18.1206 3.62089C17.8441 3.52725 17.6138 3.47002 17.4295 3.4284C17.2452 3.38678 16.9226 3.33996 16.7127 3.32436C16.5028 3.30875 16.1906 3.31915 16.0216 3.35037C15.8527 3.37638 15.5762 3.44401 15.4073 3.50123ZM12.0284 9.58272C11.8544 9.67116 11.6189 9.84804 11.4807 9.99891C11.3424 10.1446 11.1735 10.3995 11.1018 10.5608C11.025 10.7272 10.9482 10.9925 10.9278 11.1486C10.9073 11.3047 10.9073 11.5648 10.9329 11.7209C10.9585 11.8769 11.0302 12.1214 11.0967 12.2671C11.1633 12.4076 11.3168 12.6417 11.4397 12.7769C11.5677 12.9122 11.6803 13.0266 11.6957 13.0266C11.711 13.0214 11.7622 12.9018 11.8083 12.7509C11.8544 12.6001 11.9875 12.3347 12.095 12.1631C12.2025 11.9914 12.4073 11.7417 12.5455 11.6116C12.6837 11.4816 12.9551 11.2683 13.1547 11.1382C13.3544 11.0134 13.6001 10.8261 13.7127 10.7272C13.8203 10.6284 13.9534 10.4619 14.0046 10.3527C14.0609 10.2486 14.1121 10.0717 14.1274 9.96249C14.1581 9.77001 14.153 9.7596 13.9124 9.62954C13.7793 9.55671 13.5848 9.47347 13.4875 9.44226C13.3902 9.41105 13.2162 9.37983 13.1035 9.36943C12.9909 9.35902 12.7708 9.36423 12.6172 9.38504C12.4636 9.41105 12.1974 9.49428 12.0284 9.58272Z" fill="#545454" stroke="#545454" stroke-width="0.5"/>
<path fill-rule="evenodd" clip-rule="evenodd" d="M7.16501 12.2983C7.43123 12.2931 7.75378 12.3295 7.93297 12.3763C8.10192 12.418 8.37839 12.5324 8.54734 12.6209C8.71629 12.7145 9.003 12.9382 9.18731 13.1255C9.3921 13.3336 9.58665 13.5937 9.68905 13.8018C9.7812 13.9891 9.88872 14.27 9.92967 14.426C9.97063 14.5821 10.0065 14.9099 10.0065 15.1544C10.0065 15.3989 9.97063 15.7266 9.92967 15.8827C9.88872 16.0388 9.7812 16.3197 9.68905 16.507C9.58665 16.7151 9.3921 16.9752 9.18731 17.1833C9.003 17.3706 8.71629 17.5943 8.54734 17.6879C8.37839 17.7763 8.10192 17.8908 7.93297 17.9324C7.76402 17.9792 7.43123 18.0156 7.19061 18.0156C6.94998 18.0156 6.61719 17.9792 6.44824 17.9324C6.27929 17.8908 6.00282 17.7763 5.83387 17.6879C5.66492 17.5943 5.37821 17.3706 5.1939 17.1833C5.00959 16.996 4.78944 16.7047 4.69729 16.533C4.61025 16.3613 4.49762 16.0804 4.45154 15.9087C4.40034 15.7266 4.3645 15.4145 4.3645 15.1544C4.3645 14.8943 4.40034 14.5821 4.45154 14.4C4.49762 14.2284 4.61025 13.9474 4.69729 13.7758C4.78944 13.6041 5.00959 13.3128 5.1939 13.1255C5.37821 12.9382 5.66492 12.7145 5.83387 12.6209C6.00282 12.5324 6.26905 12.418 6.42264 12.3763C6.57624 12.3347 6.91414 12.2983 7.16501 12.2983ZM6.24857 13.3492C6.08474 13.4428 5.84923 13.6249 5.72636 13.7654C5.60348 13.9006 5.43965 14.1451 5.36285 14.3116C5.29118 14.4729 5.21438 14.7278 5.1939 14.8682C5.17342 15.0139 5.17342 15.2584 5.1939 15.4145C5.21438 15.5706 5.29118 15.8359 5.36285 16.0023C5.43965 16.1636 5.6086 16.4185 5.74172 16.5642C5.89019 16.7255 6.11546 16.8919 6.32025 16.9908C6.62743 17.1469 6.68887 17.1573 7.19061 17.1573C7.69234 17.1573 7.75378 17.1469 8.06096 16.9908C8.26575 16.8919 8.49102 16.7255 8.63438 16.5642C8.77261 16.4185 8.94156 16.1636 9.01836 16.0023C9.14635 15.7318 9.16171 15.6434 9.16171 15.1544C9.16171 14.6654 9.14635 14.5769 9.01836 14.3116C8.94156 14.1451 8.77773 13.9006 8.65486 13.7654C8.53198 13.6249 8.29647 13.4428 8.13264 13.3492C7.96369 13.2607 7.72818 13.1671 7.60019 13.1515C7.47219 13.1359 7.32372 13.1099 7.2674 13.1047C7.21108 13.0943 7.02677 13.1099 6.85782 13.1359C6.67863 13.1619 6.42264 13.2503 6.24857 13.3492ZM16.0478 20.622C16.1195 20.6168 16.2219 20.648 16.2782 20.6844C16.3345 20.726 16.3959 20.8197 16.4164 20.8925C16.4471 20.9966 16.4215 21.1058 16.3089 21.3295C16.2219 21.496 16.0529 21.7665 15.9249 21.9278C15.7969 22.0942 15.5563 22.3335 15.3925 22.4688C15.2337 22.5989 14.8907 22.807 14.6398 22.9318C14.389 23.0567 13.9948 23.2075 13.7695 23.2648C13.5442 23.322 13.2114 23.3844 13.0271 23.4052C12.7097 23.4416 12.6892 23.4364 12.551 23.3064C12.464 23.2127 12.4128 23.1139 12.4128 23.0098C12.4128 22.9266 12.4537 22.8122 12.4998 22.7601C12.5612 22.6977 12.7455 22.6509 13.063 22.6041C13.3241 22.5729 13.7285 22.4688 13.9589 22.3804C14.1944 22.2971 14.5426 22.1151 14.7371 21.9798C14.9368 21.8445 15.1979 21.6052 15.3208 21.4492C15.4436 21.2931 15.6024 21.0538 15.6689 20.9185C15.7355 20.7885 15.8225 20.6688 15.8532 20.6532C15.8891 20.6376 15.9761 20.622 16.0478 20.622Z" fill="#545454" stroke="#545454" stroke-width="0.5"/>
</svg>
