<?xml version="1.0" encoding="utf-8"?>

<!DOCTYPE svg PUBLIC "-//W3C//DTD SVG 1.1//EN" "http://www.w3.org/Graphics/SVG/1.1/DTD/svg11.dtd">
<!-- Uploaded to: SVG Repo, www.svgrepo.com, Generator: SVG Repo Mixer Tools -->
<svg height="800px" width="800px" version="1.1" id="_x32_" xmlns="http://www.w3.org/2000/svg" xmlns:xlink="http://www.w3.org/1999/xlink" 
	 viewBox="0 0 512 512"  xml:space="preserve">
<style type="text/css">
	.st0{fill:#000000;}
</style>
<g>
	<path class="st0" d="M474.089,265.702c-35.243-47.443-102.935-50.784-178.786-13.105c-75.852,37.664-94.267,107.57-129.097,156.498
		c-28.377,39.863-59.667,63.541-78.463,71.351c28.885-32.163,73.764-89.108,73.764-89.108s42.156-70.073,26.503-56.087
		c-12.39,11.089-91.235,92.482-123.374,125.74c4.762-19.686,23.488-54.381,58.865-88.616
		c43.164-41.767,152.767-101.863,178.652-182.485c25.885-80.646-11.374-184.7-65.033-189.686
		c-24.218-2.254-55.492,14.01-78.074,52.897c-24.265,41.799-54.38,76.137-66.43,110.936
		c-19.154,55.341,11.827,133.645-17.685,197.44c-20.82,45.022-56.944,80.218-33.885,132.066c0.841,1.889,2.111,2.889,3.603,3.246
		c0.39,6.271,4.04,9.58,10.327,8.85c0.58,1.453,1.755,2.572,3.787,3.144c54.714,15.026,84.106-25.964,125.493-53.294
		c58.659-38.743,86.655-8.747,145.092-19.296c42.863-7.723,61.508-38.783,99.196-69.034
		C463.611,339.006,488.83,285.554,474.089,265.702z M199.845,136.208c22.726-55.912,33.822-77.233,40.458-68.097
		c8.041,11.058-83.758,219.499-102.792,237.438C118.477,323.472,177.112,192.121,199.845,136.208z M325.934,347.531
		c-33.766,22.407-97.506,67.048-86.79,41.966c5.231-12.256,75.606-58.452,169.571-104.554
		C510.991,246.001,359.693,325.107,325.934,347.531z"/>
	<path class="st0" d="M323.323,191.732c16.51-18.47,86.694-96.323,93.322-92.886c6.319,3.27-63.493,88.385-95.466,120.906
		c33.322-18.288,104.943-5.588,104.943-5.588s18.114-8.422,15.796-30.997c-2.318-22.574,59.858-99.434-16.724-125.85
		C360.264,34.924,315.29,68.27,315.29,68.27C327.363,100.457,327.49,153.385,323.323,191.732z"/>
</g>
</svg>